<?xml version="1.0" encoding="UTF-8" standalone="no"?>
<svg
   xmlns:dc="http://purl.org/dc/elements/1.1/"
   xmlns:cc="http://creativecommons.org/ns#"
   xmlns:rdf="http://www.w3.org/1999/02/22-rdf-syntax-ns#"
   xmlns:svg="http://www.w3.org/2000/svg"
   xmlns="http://www.w3.org/2000/svg"
   viewBox="0 0 960 960"
   height="960"
   width="960"
   xml:space="preserve"
   id="svg2"
   version="1.1"><metadata
     id="metadata8"><rdf:RDF><cc:Work
         rdf:about=""><dc:format>image/svg+xml</dc:format><dc:type
           rdf:resource="http://purl.org/dc/dcmitype/StillImage" /></cc:Work></rdf:RDF></metadata><defs
     id="defs6"><clipPath
       id="clipPath20"
       clipPathUnits="userSpaceOnUse"><path
         id="path18"
         d="M 0,720 H 720 V 0 H 0 Z" /></clipPath></defs><g
     transform="matrix(1.3333333,0,0,-1.3333333,0,960)"
     id="g10"><path
       id="path12"
       style="fill:#f0eadd;fill-opacity:1;fill-rule:nonzero;stroke:none"
       d="M 0,0 H 720 V 720 H 0 Z" /><g
       id="g14"><g
         clip-path="url(#clipPath20)"
         id="g16"><g
           transform="translate(490.3579,310.1113)"
           id="g22"><path
             id="path24"
             style="fill:#de4e41;fill-opacity:1;fill-rule:nonzero;stroke:none"
             d="M 0,0 C -7.645,15.809 -17.959,32.666 -30.636,49.889 -17.959,67.111 -7.645,83.969 -0.001,99.778 34.298,87.065 55.616,69.4 55.616,49.889 55.616,30.377 34.299,12.712 0,0 m 1.145,-81.614 c -13.797,-13.797 -41.361,-11.215 -74.603,4.049 5.773,16.584 10.4,35.798 13.614,56.94 21.142,3.214 40.356,7.841 56.939,13.614 15.265,-33.242 17.847,-60.807 4.05,-74.603 m -131.503,-54.471 c -19.511,0 -37.177,21.317 -49.889,55.616 15.809,7.645 32.667,17.959 49.889,30.636 17.223,-12.677 34.081,-22.991 49.889,-30.636 -12.712,-34.299 -30.377,-55.616 -49.889,-55.616 m -131.503,54.471 c -13.797,13.796 -11.215,41.361 4.049,74.603 16.584,-5.773 35.798,-10.4 56.94,-13.614 3.214,-21.143 7.841,-40.356 13.614,-56.94 -33.242,-15.264 -60.806,-17.846 -74.603,-4.049 m -54.471,131.503 c 0,19.511 21.318,37.177 55.617,49.889 7.644,-15.809 17.958,-32.667 30.635,-49.889 C -242.757,32.666 -253.071,15.808 -260.716,0 c -34.299,12.712 -55.616,30.377 -55.616,49.889 m 54.471,131.503 c 13.797,13.797 41.362,11.215 74.603,-4.05 -5.773,-16.583 -10.4,-35.797 -13.614,-56.939 -21.142,-3.215 -40.356,-7.841 -56.94,-13.614 -15.264,33.241 -17.846,60.806 -4.049,74.603 m 131.503,54.47 c 19.512,0 37.177,-21.317 49.889,-55.616 -15.809,-7.644 -32.667,-17.959 -49.889,-30.635 -17.222,12.677 -34.08,22.991 -49.889,30.635 12.712,34.299 30.378,55.616 49.889,55.616 M -55.666,80.827 c -0.719,11.654 -1.84,22.922 -3.324,33.727 19.859,-3.121 37.994,-7.495 53.679,-12.869 -7.29,-14.892 -17.021,-30.808 -28.857,-47.056 -6.591,8.689 -13.765,17.449 -21.498,26.198 m 0.471,-52.771 c 0.308,7.158 0.48,14.433 0.48,21.832 0,7.399 -0.172,14.675 -0.48,21.833 6.238,-7.29 12.074,-14.586 17.515,-21.832 -5.441,-7.246 -11.277,-14.542 -17.515,-21.833 m -0.471,-9.105 c 7.733,8.748 14.907,17.509 21.498,26.198 11.836,-16.249 21.567,-32.165 28.857,-47.056 -15.685,-5.375 -33.82,-9.749 -53.679,-12.869 1.484,10.804 2.605,22.072 3.324,33.727 m -36.981,-37.648 c 5.278,4.843 10.545,9.866 15.776,15.097 5.232,5.232 10.255,10.499 15.099,15.778 -0.744,-9.565 -1.776,-18.852 -3.053,-27.823 -8.971,-1.276 -18.257,-2.308 -27.822,-3.052 m -6.773,-6.106 c 11.655,0.718 22.923,1.839 33.727,3.324 -3.12,-19.86 -7.494,-37.995 -12.869,-53.679 -14.891,7.29 -30.807,17.02 -47.056,28.857 8.689,6.59 17.45,13.765 26.198,21.498 m -52.77,-0.472 c 7.158,-0.307 14.433,-0.479 21.832,-0.479 7.399,0 14.674,0.172 21.832,0.48 -7.29,-6.238 -14.586,-12.075 -21.832,-17.515 -7.246,5.44 -14.542,11.277 -21.832,17.514 m -9.106,0.472 c 8.749,-7.733 17.509,-14.908 26.199,-21.498 -16.249,-11.837 -32.166,-21.567 -47.057,-28.857 -5.375,15.684 -9.749,33.819 -12.869,53.679 10.804,-1.485 22.072,-2.606 33.727,-3.324 m -37.648,36.981 c 4.844,-5.279 9.866,-10.545 15.098,-15.777 5.232,-5.232 10.498,-10.254 15.778,-15.099 -9.566,0.745 -18.852,1.777 -27.823,3.053 -1.277,8.971 -2.308,18.257 -3.053,27.823 m -6.106,6.773 c 0.719,-11.655 1.84,-22.923 3.324,-33.728 -19.859,3.121 -37.995,7.495 -53.679,12.869 7.29,14.892 17.021,30.808 28.857,47.057 6.59,-8.689 13.765,-17.45 21.498,-26.198 m -0.471,52.77 c -0.307,-7.158 -0.48,-14.434 -0.48,-21.833 0,-7.399 0.173,-14.674 0.48,-21.832 -6.238,7.291 -12.074,14.587 -17.515,21.833 5.441,7.245 11.278,14.541 17.515,21.832 m 0.471,9.106 c -7.733,-8.748 -14.908,-17.509 -21.498,-26.199 -11.837,16.249 -21.567,32.166 -28.857,47.057 15.684,5.375 33.82,9.749 53.679,12.869 -1.484,-10.804 -2.605,-22.073 -3.324,-33.727 m 36.982,37.648 c -5.28,-4.844 -10.546,-9.867 -15.778,-15.099 -5.232,-5.232 -10.254,-10.498 -15.098,-15.776 0.745,9.565 1.777,18.851 3.053,27.822 8.971,1.276 18.257,2.308 27.823,3.053 m 6.772,6.105 c -11.655,-0.718 -22.923,-1.839 -33.727,-3.323 3.12,19.859 7.494,37.994 12.869,53.679 14.891,-7.29 30.808,-17.021 47.056,-28.857 -8.689,-6.591 -17.449,-13.766 -26.198,-21.499 m 52.77,0.472 c -7.158,0.307 -14.433,0.48 -21.832,0.48 -7.399,0 -14.674,-0.173 -21.832,-0.48 7.29,6.237 14.586,12.074 21.832,17.514 7.246,-5.44 14.542,-11.277 21.832,-17.514 m 9.107,-0.472 c -8.749,7.733 -17.51,14.908 -26.199,21.499 16.249,11.836 32.165,21.566 47.056,28.856 5.375,-15.684 9.749,-33.819 12.869,-53.678 -10.804,1.484 -22.072,2.605 -33.726,3.323 m 22.548,-21.203 c -5.231,5.231 -10.498,10.254 -15.776,15.098 9.565,-0.745 18.851,-1.777 27.822,-3.053 1.277,-8.971 2.308,-18.257 3.053,-27.823 -4.844,5.279 -9.867,10.546 -15.099,15.778 m 16.549,-53.489 c 0,-9.747 -0.287,-19.318 -0.834,-28.663 -6.222,-6.996 -12.787,-13.967 -19.68,-20.86 -6.892,-6.892 -13.862,-13.456 -20.858,-19.678 -9.346,-0.547 -18.918,-0.834 -28.664,-0.834 -9.747,0 -19.318,0.287 -28.664,0.834 -6.996,6.222 -13.967,12.787 -20.859,19.679 -6.892,6.892 -13.457,13.863 -19.679,20.859 -0.547,9.345 -0.834,18.916 -0.834,28.663 0,9.747 0.287,19.318 0.834,28.665 6.222,6.995 12.787,13.966 19.679,20.858 6.892,6.892 13.863,13.457 20.859,19.679 9.346,0.547 18.917,0.834 28.664,0.834 9.747,0 19.318,-0.287 28.665,-0.834 6.995,-6.221 13.966,-12.786 20.857,-19.678 6.893,-6.892 13.458,-13.863 19.68,-20.859 0.547,-9.347 0.834,-18.918 0.834,-28.665 M 1.145,181.392 c 13.797,-13.797 11.215,-41.362 -4.049,-74.603 -16.584,5.773 -35.798,10.399 -56.94,13.614 -3.214,21.142 -7.841,40.355 -13.614,56.939 33.241,15.264 60.806,17.847 74.603,4.05 M 61.223,49.889 c 0,21.877 -22.424,41.293 -58.842,54.983 16.071,35.431 18.198,65.016 2.729,80.485 -15.469,15.469 -45.054,13.343 -80.486,-2.729 -13.69,36.418 -33.106,58.841 -54.982,58.841 -21.877,0 -41.293,-22.423 -54.983,-58.841 -35.431,16.071 -65.016,18.198 -80.485,2.729 -15.469,-15.469 -13.342,-45.054 2.729,-80.485 -36.418,-13.69 -58.842,-33.106 -58.842,-54.983 0,-21.877 22.424,-41.293 58.842,-54.983 -16.072,-35.431 -18.198,-65.016 -2.729,-80.486 15.469,-15.468 45.054,-13.342 80.485,2.729 13.69,-36.418 33.106,-58.841 54.983,-58.841 21.876,0 41.293,22.424 54.983,58.842 35.431,-16.072 65.016,-18.198 80.485,-2.73 15.469,15.47 13.343,45.055 -2.728,80.486 36.418,13.69 58.841,33.106 58.841,54.983" /></g><g
           transform="translate(398.4268,358.9227)"
           id="g26"><path
             id="path28"
             style="fill:#de4e41;fill-opacity:1;fill-rule:nonzero;stroke:none"
             d="m 0,0 c 0,-21.678 -17.573,-39.251 -39.251,-39.251 -21.677,0 -39.25,17.573 -39.25,39.251 0,21.678 17.573,39.251 39.25,39.251 C -17.573,39.251 0,21.678 0,0" /></g><g
           transform="translate(402.1648,479.4786)"
           id="g30"><path
             id="path32"
             style="fill:#4d4c4e;fill-opacity:1;fill-rule:nonzero;stroke:none"
             d="m 0,0 c 0,-4.129 -3.347,-7.476 -7.476,-7.476 -4.129,0 -7.477,3.347 -7.477,7.476 0,4.129 3.348,7.476 7.477,7.476 C -3.347,7.476 0,4.129 0,0" /></g><g
           transform="translate(284.3568,500.5257)"
           id="g34"><path
             id="path36"
             style="fill:#4d4c4e;fill-opacity:1;fill-rule:nonzero;stroke:none"
             d="m 0,0 c 0,-3.582 -2.904,-6.486 -6.486,-6.486 -3.582,0 -6.486,2.904 -6.486,6.486 0,3.582 2.904,6.486 6.486,6.486 C -2.904,6.486 0,3.582 0,0" /></g><g
           transform="translate(253.1054,385.0901)"
           id="g38"><path
             id="path40"
             style="fill:#4d4c4e;fill-opacity:1;fill-rule:nonzero;stroke:none"
             d="m 0,0 c 0,-3.097 -2.51,-5.607 -5.607,-5.607 -3.097,0 -5.608,2.51 -5.608,5.607 0,3.097 2.511,5.607 5.608,5.607 C -2.51,5.607 0,3.097 0,0" /></g><g
           transform="translate(508.6686,276.6831)"
           id="g42"><path
             id="path44"
             style="fill:#4d4c4e;fill-opacity:1;fill-rule:nonzero;stroke:none"
             d="m 0,0 c 0,-4.497 -3.646,-8.143 -8.143,-8.143 -4.497,0 -8.143,3.646 -8.143,8.143 0,4.497 3.646,8.143 8.143,8.143 C -3.646,8.143 0,4.497 0,0" /></g><g
           transform="translate(229.2746,229.956)"
           id="g46"><path
             id="path48"
             style="fill:#4d4c4e;fill-opacity:1;fill-rule:nonzero;stroke:none"
             d="m 0,0 c 0,-3.355 -2.72,-6.074 -6.074,-6.074 -3.355,0 -6.075,2.719 -6.075,6.074 0,3.355 2.72,6.075 6.075,6.075 C -2.72,6.075 0,3.355 0,0" /></g><g
           transform="translate(353.1014,255.1886)"
           id="g50"><path
             id="path52"
             style="fill:#4d4c4e;fill-opacity:1;fill-rule:nonzero;stroke:none"
             d="m 0,0 c 0,-3.613 -2.929,-6.542 -6.542,-6.542 -3.613,0 -6.542,2.929 -6.542,6.542 0,3.613 2.929,6.542 6.542,6.542 C -2.929,6.542 0,3.613 0,0" /></g><g
           transform="translate(483.4699,390.6973)"
           id="g54"><path
             id="path56"
             style="fill:#4d4c4e;fill-opacity:1;fill-rule:nonzero;stroke:none"
             d="m 0,0 c 0,-3.097 -2.51,-5.607 -5.607,-5.607 -3.097,0 -5.607,2.51 -5.607,5.607 0,3.097 2.51,5.607 5.607,5.607 C -2.51,5.607 0,3.097 0,0" /></g><g
           transform="translate(209.1821,319.672)"
           id="g58"><path
             id="path60"
             style="fill:#4d4c4e;fill-opacity:1;fill-rule:nonzero;stroke:none"
             d="m 0,0 c 0,-2.839 -2.301,-5.14 -5.14,-5.14 -2.839,0 -5.14,2.301 -5.14,5.14 0,2.839 2.301,5.14 5.14,5.14 C -2.301,5.14 0,2.839 0,0" /></g><g
           transform="translate(418.9866,410.3227)"
           id="g62"><path
             id="path64"
             style="fill:#4d4c4e;fill-opacity:1;fill-rule:nonzero;stroke:none"
             d="m 0,0 c 0,-3.613 -2.929,-6.542 -6.542,-6.542 -3.613,0 -6.542,2.929 -6.542,6.542 0,3.613 2.929,6.542 6.542,6.542 C -2.929,6.542 0,3.613 0,0" /></g></g></g></g></svg>