<?xml version="1.0" encoding="utf-8"?>
<!-- Generator: Adobe Illustrator 22.1.0, SVG Export Plug-In . SVG Version: 6.00 Build 0)  -->
<svg version="1.1" id="Layer_1" xmlns="http://www.w3.org/2000/svg" xmlns:xlink="http://www.w3.org/1999/xlink" x="0px" y="0px"
	 viewBox="0 0 500 500" style="enable-background:new 0 0 500 500;" xml:space="preserve">
<style type="text/css">
	.st0{fill:#ff8c1a;}
	.st1{opacity:0.16;}
	.st2{fill:#54667A;}
	.st3{fill:#FFFFFF;}
	.st4{fill:#CBCBCB;}
	.st5{fill:#A5A5A5;}
	.st6{fill:#FAFCF1;}
	.st7{fill:#4BA5A5;}
</style>
<rect x="0.3" class="st0" width="500" height="500"/>
<g>
	<g class="st1">
		<path d="M453.5,196.8c0.9-0.6,1.6-1.1,2.4-1.6c-0.1-1.1-1.7-2.6,0.3-2.8c1.1,1.1,1.7,2.2,2.7,2.8c1.6,1,3.4,1.8,5.2,2.5
			c0.5,0.2,1.2,0.2,1.7,0c0.2-0.1,0.3-0.9,0.2-1.4c-0.1-0.4-0.5-0.8-0.8-1.3c1.4-0.6,3.4-0.6,2.5-2.9c-2.3-0.3-4.5-0.5-6.8-0.8
			c-6-4.1-12.7-7.4-20.6-7.8c-0.3,0.8-0.6,1.5-0.8,2c-3.4-0.1-6.6-2.6-9.9,0.6c-0.8-0.8-1.7-1.4-2.4-2.3c-1.4-1.8-3.4-2.5-5.2-1.7
			c-3.3,1.3-5.4-0.7-7.9-1.9c-1-0.5-2.2-1.1-3.1-0.9c-2.8,0.8-4.7-1-7.2-1.7c-1.7,0.4-2.6,1.3-1.5,3.6c-3.2-0.3-6-0.5-8.9-0.8
			c-0.7,1.5-2.1,1.5-6.2-0.7c0.6-0.5,1.1-0.9,1.6-1.3c-1.9-3.4-5.4-3.5-7.5-0.1c-6.1-3.1-12.3-3.7-18.8-1c1.4-1.1,3.1-1.7,4.3-2.7
			c1.1-0.9,2.2-2.3,2.3-3.6c0.1-1.4-4.9-3.8-6.3-3c-2.2,1.4-3,0.2-4.3-1.2c-1.6-1.8-3.5-1.2-4.2,1.1c-0.2,0.8-0.4,1.5-0.5,2
			c-2.3,0-4.5-0.3-6.6,0.1c-2.6,0.4-5.1,1.4-7.7,2.1c-0.2,0.1-0.5,0.2-0.7,0.3c-1,0.5-1.4,1.2-0.2,1.9c0.4,0.2,0.9,0.3,1.4,0.4
			c-0.2,0.3-0.4,0.6-0.7,0.9c-1.4,0-2.9-0.2-4.3,0.1c-0.8,0.1-1.8,0.9-2,1.6c-0.1,0.6,0.8,1.4,1.4,2.1c0.8,1,1.6,1.9,2.4,2.9
			c-1.9-0.7-3.3-1.8-4.8-2.7c-0.4-0.3-1.1-0.3-1.5-0.1c-0.4,0.2-0.6,0.9-0.7,1.4c-0.1,0.4,0.2,0.9,0.4,1.3c-0.3,0.1-0.5,0.3-0.8,0.4
			c-1.1-1.6-2.1-3.2-3.2-4.9c-0.5,1.1,0,7.7,0.8,8.3c0.4,0.3,1,0.1,1.5,0.3c1,0.3,2.1,0.3,2.8,0.9c0.8,0.7,1.3,1.8,2,3
			c-0.4-0.2-0.6-0.2-0.8-0.3c-3.4-3.2-3.4-3.2-5.2,0.9c-0.1,0.1-0.1,0.3-0.2,0.4c-1,1.7-2.2,2.1-4.4,0.8c0.9-0.4,1.6-0.5,1.9-1
			c0.6-0.9,1.7-2,1.5-2.8c-0.7-3.6-1.7-7.1-2.8-10.6c-0.2-0.7-1.4-1.8-1.9-1.6c-0.8,0.2-1.5,1.1-2,1.9c-0.5,0.9-0.8,2-1.1,3.1
			c-0.2,0.9-0.7,1.9-0.4,2.7c0.4,1.1,1.4,2,2,3c0.3,0.5,0.3,1.1,0.4,1.7c-0.2,0.1-0.4,0.2-0.5,0.4c-2.3-3.2-5.3-4.5-9.1-3.8
			c0.1,1.2,0.2,2.2,0.2,3.1c-0.2,0-0.4,0.1-0.5,0.1c-0.4-0.6-0.9-1.1-1.1-1.4c-2,0.6-4,1.9-5.4,1.5c-2.7-0.8-4.2,0.6-6,1.8
			c-0.8,0.5-1.6,1.1-2.6,1.8c-0.7-2.2-0.7-4.8-4-3.7c0.6,1.8,1.1,3.4,1.8,5.4c-0.7-0.3-1-0.5-1.3-0.5c-1.4,0.3-2.8,0.7-4.1,1.1
			c0.2,0.7,0.6,1.3,0.6,2c0,0.4-0.4,0.9-0.3,0.8c-1.4-0.6-2.5-1.7-3.2-1.4c-2.4,0.9,0.7,1.8,0.3,2.9c-2.6-1.2-3.6-3-3.2-5.7
			c1,0.2,2.2,0.7,3.1,0.5c1.2-0.3,2.2-1.3,3.3-2c-0.7-0.8-1.2-1.8-2.1-2.3c-2.8-1.5-5.7-2.7-8.6-4c-0.3-0.2-0.9-0.4-0.9-0.7
			c-0.5-3.1-2.2-1.4-3.5-1.2c-1.1-0.4-2.2-0.7-3.3-0.7c-0.2,0-0.4,1.2-0.6,2c-1.4-0.6-2.9-1.8-4.4-0.1c0.4,0.6,0.7,1.1,1.4,2.1
			c-1.8,0.9-3.4,2.2-5.1,2.5c-3.2,0.5-4.4,2.8-5.6,5.1c-1.5,3-3.4,5.6-6.8,6.7c-2,0.7-3.3,2.6-2.8,4.2c0.6,2,1.4,3.9,2.3,6.2
			c1.2-0.6,2.4-1.1,3.5-1.6c1.3-0.6,2.4-0.4,3,1c0.6,1.2,1.2,2.4,1.7,3.7c0.8,2.2,1.2,2.4,2.6,0.5c1.1-1.4,1.5-3.4,2.7-4.5
			c2.1-1.9,2.1-3.3,0.4-5.3c-1.6-1.9-0.8-3.6,1.5-5c1.1-0.7,1.8-2,2.7-3.1c0.6-0.8,1-2.2,1.6-2.2c1-0.1,2.2,0.6,3,0.8
			c-1,1-1.6,1.7-2.2,2.3c-0.4,0.4-0.7,0.9-1.2,1.2c-2.1,1.4-2.5,3.4-1.1,6c1,1.9,2.8,2.2,5.2,1.1c1.6-0.8,1.9-0.6,2.5,1.7
			c-2.3-1.1-4.1-0.6-5.4,1.7c0.6,0.6,1.1,1.2,1.6,1.8c-0.1,0.2-0.3,0.5-0.4,0.7c-0.9-0.5-1.8-0.9-3-1.5c-0.1,0.8-0.1,1.6-0.3,2.3
			c-0.5,1.8-0.6,5-2.6,4.6c-3.1-0.6-5.2,1.4-7.9,1.4c-2.1,0-3.6-1.2-3-3.3c0.1-0.5,0.5-0.9,0.6-1.3c0.4-1.3-0.8-3.1-1.3-3.1
			c-0.5,1-0.8,2.1-1.3,2.3c-1.9,0.6-1.5,1.5-0.8,2.7c0.5,0.9,1,1.9,1.5,2.9c-2.6,1.4-6.3,0.7-6.2,4.9c-3.5-1.4-3.6,5.1-6.6,3.2
			c-1.8,1-3.1,1.8-5.1,2.9c5.2,1.5,5,4.8,3.7,8.6c-2.3-0.4-4.4-0.8-6.6-1.1c-1.6-0.2-2.7,0.8-2.5,2.2c0.3,2.2,0.6,4.2-1.1,6
			c-0.2,0.2-0.2,1,0,1.1c1.3,0.9,1,4.1,3.8,2.7c0.1-0.1,0.6,0.4,0.8,0.7c0.8,0.8,5.9,0.5,6.5-0.4c0.7-1.1,1.2-2.2,1.8-3.4
			c0.4-0.8,0.4-1.8,0.9-2.5c1.3-1.7,2.8-3.2,4.6-5.3c1.9,1.2,4.3-0.1,6.2-1.3c1.6,1.7,2.8,3.5,4.4,4.7c2.1,1.6,4.5,2.7,4.2,6
			c0.3,0,0.5,0,0.8,0c0.3-1.1,0.6-2.1,1-3.3c0.6,0.1,1.2,0.3,2.6,0.6c-0.9-1-1.3-1.4-1.7-1.9c-2-2.4-5.4-3.2-6.7-6.5
			c-0.5-1.3-0.7-2,0.6-2.8c0.3,0.3,0.7,0.5,0.9,0.8c1.3,1.4,2.5,2.9,3.9,4.3c0.8,0.9,2.1,1.4,2.7,2.4c1.2,2.1,2,4.4,3.1,6.6
			c0.2,0.5,0.8,1,1.3,1.1c0.3,0.1,0.8-0.6,1.1-1c0.4-0.4,0.9-0.7,1.5-1.1c-0.7-0.5-1.4-1-2.1-1.5c1.4-2.8,4.1-2.2,6.2-2.8
			c-2.6,4.3-2.1,5.7,2.7,8.3c0.6-0.4,1.2-0.7,1.7-1c1,0.3,1.8,0.8,2.6,0.9c0.9,0.1,1.9,0,3-0.1c0.2,0.9,0.6,1.7,0.4,2.3
			c-0.6,1.9-1.2,3.9-2.2,5.5c-0.3,0.5-2.2,0-3.3,0.1c-0.9,0.1-1.8,0.7-2.9,1.1c-0.4-0.3-1.3-1.1-1.9-1c-2.4,0.4-4.1-1.3-5.8-2.3
			c-1.9-1.1-2.7-0.5-3.6,0.8c-0.5,0.8-0.5,1.8-0.9,3c-1-0.5-1.9-1-2.9-1.4c-1.6-0.7-3.2-1.4-4.8-2.1c-1.4-0.6-2.8-1.2-4.2-1.8
			c0.3-0.2,0.6-0.4,0.9-0.6c0.1-1.4,0.6-3,0.1-4.3c-0.5-1.3-2-1.4-3.4-0.6c-0.3,0.1-0.7,0.1-1,0.1c-4.2-0.8-8.2,0.2-11.6,2.2
			c-2.4,1.4-3.8,0.9-5.7,0c-0.9,1.3-1.6,3.2-2.7,3.5c-2.3,0.7-2.5,2-2.8,3.9c-0.2,1.2-0.8,2.5-1.6,3.5c-0.8,1-2.4,1.3-3.1,2.3
			c-1.3,1.9-2.5,3.9-3.1,6.1c-0.7,2.6-1.1,5.5-0.8,8.1c0.4,2.6,0.2,4.6-2.3,6.1c1.3,0.9,2.7,1.7,1.5,3.5c-0.1,0.2,0.4,0.9,0.7,1.2
			c0.3,0.4,0.8,0.7,1.2,1.1c2.8,3.6,5.4,7.2,8.3,10.7c0.4,0.5,2,0.4,2.9,0.2c1.3-0.3,2.5-1.4,3.7-1.2c2.7,0.3,5-0.3,7.3-1.7
			c0.8-0.5,1.9-0.6,2.8-0.6c0.5,0,1.4,0.5,1.5,0.9c0.2,2.4,2,2.6,3.8,3c1,0.2,1.9,0.7,2.6,0.9c-0.1,2,0.4,4-0.4,5.1
			c-1.7,2.3-0.3,3.4,1,4.8c1,1,2.4,2.1,2.7,3.3c0.9,3.3,1.4,6.8,2.1,10.6c-0.4,0.8-1.1,2.2-2,3.4c-1.6,2.5-1.4,4.9-0.1,7.6
			c1.1,2.3,2.7,4.8,2.7,7.2c-0.1,4,2.2,7,3.4,10.4c0.4,1.3,1.4,2.7,1.2,3.8c-0.4,1.8,0.5,2.8,1.6,3.3c0.8,0.4,2.1,0,3.2-0.1
			c1.1-0.2,2.2-0.4,3.2-0.7c2-0.6,4.1-1.2,6-2.2c0.9-0.4,1.6-1.5,2.3-2.4c0.6-0.8,1.2-1.6,1.7-2.5c0.3-0.5,0.3-1.4,0.6-1.5
			c1.9-0.6,1.6-2.2,1.9-3.6c0.1-0.7,0.5-1.9,0.9-2c3-0.6,2.5-2.9,2.3-4.8c-0.2-1.7-1.1-3.3,0.5-4.7c1.2-1.1,2.1-2.5,3.4-3.3
			c4.6-2.8,3.8-3.8,3.3-7.1c-0.5-3.4-1.7-6.7-1.7-10.1c0-4.2,2.9-7.3,5.7-10.2c2.3-2.4,4.9-4.6,6.7-7.3c1.7-2.6,2.5-5.8,3.7-8.8
			c-0.5-0.6-1.1-1.3-1.6-1.9c-0.9,0.5-1.7,1-2.5,1.4c-0.8,0.4-1.6,0.8-2.4,1.1c-1.7,0.6-5.6-1-6.4-2.3c-1.7-3.2-3.5-6.3-5.2-9.4
			c-1.4-2.5-2.7-5-4-7.5c-0.1-0.1-0.1-0.4-0.1-0.5c1.3-2.8-1-4-2.3-5.8c-0.9-1.3-1.6-2.7-2.5-4.2c1.5,0.9,2.6,1.5,3.5,2.2
			c0.5,0.4,0.9,1,1.3,1.6c0.4,0.7,0.8,1.5,1.2,2.3c0.9,1.7,1.9,3.3,2.8,5c0.5,1,0.9,2.1,1.6,3c2.2,3.3,4.8,6.3,4.3,10.7
			c-0.1,0.6,0.8,1.6,1.4,2c0.4,0.2,1.2-0.6,1.9-0.9c1.3-0.6,2.5-1.1,3.8-1.6c0.5-0.2,1.1-0.2,1.6-0.5c1.7-0.9,3.4-1.8,5-2.8
			c4.3-2.8,4.7-2.6,6.8-6.6c0.1-0.3,0.4-0.5,0.7-0.7c1.8-1.8,1.2-4-1-5c-1.2-0.5-2.2-1.6-3.4-2.5c0,0-0.3,0.5-0.7,0.8
			c-1,0.6-2,1.4-3,1.4c-1.1,0-2.4-0.6-2-2.4c0.1-0.3-0.8-0.8-1.3-1.3c-1.7-1.6-3.5-3-4.1-5.6c1.2,0.1,2.2,0.2,3.2,0.3
			c-0.1,0.1-0.3,0.3-0.4,0.4c1.2,1.3,2.4,2.8,3.8,3.9c1.8,1.5,3.7,1.2,5.4-0.3c1.1,3.4,5.2,4.5,7.3,2.8c2.1,0.3,3.6,0.6,5.6,0.9
			c0.2,0.2,0.9,0.8,1.7,1.4c0.8,0.7,1.8,1.3,2.2,2.2c1.5,3.2,2.1,3.4,5.1,1.9c0.1,0.7,0.2,1.3,0.2,1.9c-0.3,3.5,0.7,6.5,2.5,9.5
			c1.4,2.4,2.1,5.3,3.2,7.9c0.2,0.6,0.7,1.1,1,1.7c0.6-0.4,1.4-0.7,1.9-1.3c1.8-2.3,1.7-5,1.4-7.7c-0.1-0.8-0.2-2,0.2-2.5
			c1.8-1.9,3.8-3.5,5.7-5.3c1-0.9,2.8-1.7,2.9-2.7c0.3-2.6,1.7-2.5,3.2-2.3c0.8-1,1.5-1.9,1.9-2.5c0.8,1.4,1.4,2.8,2.3,3.9
			c1.6,1.9,3.1,3.7,2.7,6.5c-0.2,1.3,1,1.8,2.2,0.9c0.5-0.4,0.6-1.1,0.9-1.6c0.2,0.2,0.5,0.3,0.7,0.5c0.2,0.7,0.6,1.4,0.4,2
			c-0.7,3,1.3,5.3,1.9,8c0.2,1.1,1.9,2,1.9,3c-0.2,3.8,1,7.1,3.1,10.1c1.1,0.3,2.2,0.6,3.4,0.9c0.6-3.3,0.8-6.1-1.8-8.3
			c-1.7-1.5-3.3-3.1-3.7-5.5c-0.1-1.1-0.1-2.2,0.1-3.2c0-0.2,1.1-0.4,1.2-0.3c0.6,0.9,1,1.8,1.5,2.8c0.1,0.1,0.2,0.2,0.4,0.5
			c4.4-1.7,1.5,2.8,3.2,3.9c2-2.1,5.1-3.2,5.3-6.8c0.2-3-0.7-5.3-3.1-7.3c-2.6-2-2.5-3.3-0.3-5.4c0.6-0.5,0.9-1.2,1.5-2
			c0.4,0.8,0.7,1.5,1.1,2.4c2.2-2.1,4.2-3.9,7.4-3.1c0.5,0.1,1.4-0.5,1.8-1c1.9-2.5,4.2-4.7,5.2-7.7c0.2-0.6,1-1.2,0.8-1.5
			c-1-2.6-0.2-5.7-2.6-7.9c-0.9-0.9-1.6-2.4-1.7-3.7c0-0.6,1.6-1.2,2.4-1.9c0.3-0.3,0.7-1.2,0.5-1.3c-0.5-0.5-1.1-1.1-1.8-1.2
			c-0.5-0.1-1.1,0.7-1.6,0.8c-0.7,0.1-1.6,0-2.1-0.4c-0.4-0.3-0.7-1.5-0.4-1.8c0.9-1.1,2.1-2,3.5-3.2c0.2,1.3,0.4,2.3,0.6,3.4
			c1.7-0.6,3.3-1.1,4.9-1.7c0.1,0.3,0.2,0.5,0.3,0.8c-0.4,0.6-0.7,1.2-1.2,1.9c2.6,0.9,3.4,3.1,3.8,5.4c0.3,1.7,1,2.5,2.6,1.6
			c1.9-1,1.8-2.8,1-4.2c-1-1.8-2.4-3.3-3.5-4.8c0.7-1.2,1.8-2.4,2.1-3.8c0.3-1.8,1.2-2.1,2.7-2.3c1-0.1,2.4-0.4,3-1.2
			c4.1-4.8,5.1-10.5,4-16.5c-0.6-3-2.9-3.7-4.8-2.1c-1-0.9-2.1-1.7-3.1-2.6c1-1.4,2-2.8,2.8-4.3c2.1-3.9,3.7-4.7,8.2-4
			c1.2,0.2,2.5,0.7,3.5-0.8c0.1-0.2,1.5,0.2,2.3,0.5c0.7,0.2,1.6,0.8,2.2,0.7c0.7-0.2,1.3-1,1.7-1.7c0.3-0.5,0.1-1.4,0.3-1.9
			c0.5-0.9,1.1-2.2,1.8-2.3c1-0.2,2.2,0.6,3.2,1c0.4,0.2,0.7,0.6,1.2,1c0.7-0.9,1.3-1.7,2-2.6c1.5,1.6,0.6,2.4-0.4,3.6
			c-1.7,2.1-3.7,4.3-4.4,6.7c-1.1,3.7,1.6,6.8,3,10c0.1,0.3,0.7,0.5,1.4,0.9c0.5-1,1-1.8,1.4-2.7c0.5-1.2,0.8-2.5,1.6-3.5
			c1.5-2,1.6-4.5,0-6.1c-1.4-1.3-1.3-2.9,0.2-4c3-2.4,4.7-2.4,7.5-0.3c1.4-1.1,0.5-3.9,3.2-4.2c1.7-0.2,3.4-0.9,5.6-1.6
			C458.1,198.6,454.7,198.6,453.5,196.8z M293.4,241.2c0,0.4-1.1,1.1-1.7,1.1c-1.6-0.1-3.6,0-4.6-0.9c-1.6-1.3-2.8-1.2-4.5-0.7
			c-2.2,0.6-4.4,0.7-6.9,1.1c-0.5-3.1,0.2-4.6,2.5-6.2c0.6-0.4,0.7-1.4,1.1-2.1c0.3-0.7,0.6-1.3,0.9-2.2c0.9,1.2,1.6,2.1,2.5,3.3
			c-0.7,0.4-1.4,0.8-2.2,1.2c0.2,0.3,0.3,0.7,0.5,1c1.8-0.4,3.5-0.7,5.3-1.1c0-0.2,0-0.5,0-0.7c-0.7-0.3-1.4-0.5-2.2-0.8
			c-0.1-0.2-0.2-0.4-0.2-0.6c1.8-0.8,3.6-1.6,5.4-2.4c0.1,0.1,0.2,0.3,0.3,0.4c-0.9,1-1.8,2-2.9,3.3c2.1,1.5,4.1,2.6,5.9,4.1
			C293,239.4,293.4,240.4,293.4,241.2z M309.6,242.7c-0.5-0.3-0.9-0.6-1.8-1.2c0.6,2.2,1.1,4,1.6,5.8c0.4,1.6-1.2,3.2-2.8,2.8
			c-2.9-0.6-4-3.3-2.4-5.7c0.2-0.2,0.6-0.3,1.1-0.5c-2.8-2.5-5.9-4.8-4.8-8.3c1-3,4.1-4.2,7.6-3.3c-0.1,0.5-0.1,1.2-0.2,1.5
			c-1.2,1-2.3,1.7-2.9,2.7c-0.3,0.4,0.4,1.7,0.9,2.4c0.5,0.6,1.4,1,2.3,1.6c0,0,0.6-0.2,1.2-0.4c0.3,0.8,0.5,1.6,0.8,2.4
			C310,242.5,309.8,242.6,309.6,242.7z M317.4,236.8c0.7-1.6,1.2-3.1,2-4.5c0.1-0.2,1.9,0.2,2,0.5c0.3,1.7,0.4,3.4,0.6,5.6
			C320.2,237.8,319.1,237.4,317.4,236.8z"/>
		<path d="M376.6,304.8C376.6,304.7,376.6,304.7,376.6,304.8C376.6,304.7,376.6,304.7,376.6,304.8L376.6,304.8z"/>
		<path d="M191.3,314.3c-0.9-0.6-1.8-1.2-2.8-1.5c-2.2-0.8-4.9,0.1-6.5-2.4c-0.3-0.4-1.2-0.5-1.8-0.6c-1.4-0.1-2.9,1-4-0.7
			c-0.1-0.1-1.2,0.3-1.7,0.6c-0.2,0.2-0.4,0.4-0.7,0.6c-0.1,0.1-0.3,0-0.2-0.2c2.2-3.9,1.9-4.8-1.5-8.6c-2-2.2-3.9-2.8-6-1.6
			c-0.1,0-0.1,0-0.2,0c-2.1-2.3-4.2-4.7-6.4-7c0-0.1,0-0.1,0-0.2c0.1-0.1,0.2-0.2,0.3-0.3c0.1-0.1,0-0.2-0.1-0.2
			c-0.9-0.1-1.9-0.3-2.6,0.1c-3.1,1.7-5.4,0.4-7.9-1.4c-1.1-0.8-3.2-1.4-4.1-0.8c-2.4,1.5-5.1,3-5.7,5.7c0,0.1-0.1,0.1-0.2,0.1
			c-1.5-0.6-3-1.8-4.3-1.6c-3.1,0.5-4.9-0.7-4.6-3.9c0.1-1.6,0.5-3.1,0.9-5.1c0-0.1,0-0.1-0.1-0.2c-1.7-0.3-3.5-0.7-5.7-1.1
			c-0.1,0-0.1-0.1-0.1-0.2c0.4-1.7,0.9-3.7,1.2-5.7c0.1-0.8-0.2-1.7-0.4-2.5c0-0.1-0.1-0.1-0.2-0.1c-1.2,0.3-2.5,0.5-3.6,1
			c-0.4,0.2-0.5,1-0.7,1.5c-1.2,2.5-6.3,3.1-7.4,0.7c-1-2.2-1.5-4.8-1.5-7.3c0-4.1,3-6.6,5.7-9.2c0,0,0.1-0.1,0.2,0
			c0.6,0.4,1,0.7,1.5,1.1c0.1,0,0.2,0,0.2,0c0.3-0.5,0.6-0.9,1.1-1.5c0.1-0.1,0.2-0.1,0.3,0.1c0.3,2.3,1.6,2.2,2.9,1.9
			c0,0,0.1,0,0.1-0.1c0.3-0.8,0.3-1.6,0.7-1.9c1.5-1.3,7,0,7.8,1.7c0.2,0.5,0.1,1.1,0.1,1.6c0,2.6,0.9,4.7,4,6.3
			c0.1,0.1,0.2,0,0.2-0.1c-0.4-2.6-0.6-4.8-1-7c-1.1-5.1,0.1-7.6,4.6-9.5c2.9-1.3,3.5-2.4,2.5-5.1c0,0,0-0.1,0-0.1
			c1.1-1.8,1.9-3.6,3.3-4.9c1.4-1.3,3.3-1.9,5-2.9c0.1,0,0.1-0.1,0-0.2c-1.1-1.5-0.4-2.4,1.2-3.3c1.8-1,3.3-2.4,5-3.6
			c0.8-0.5,1.6-1,2.4-1.4c0.1,0,0.2,0,0.2,0l0.3,0.6c0,0.1,0,0.1,0,0.2c-1,0.8-2.1,1.5-3.1,2.3c-0.3,0.3-0.6,1.1-0.5,1.4
			c0.1,0.3,1.1,0.7,1.3,0.5c2-1.2,3.9-2.6,6.4-4.3c0.1-0.1,0.1-0.2,0-0.3c-1.4-0.5-2.4-0.7-3.3-1.2c-0.8-0.6-1.4-1.5-1.8-2.4
			c-0.2-0.4,0-1.1,0-1.7c0-0.1-0.1-0.2-0.1-0.1c-0.8,0-1.6-0.1-2.3,0.2c-0.9,0.3-1.6,0.9-2.4,1.4c-0.1,0-0.2,0-0.2-0.1l-0.2-0.5
			c0-0.1,0-0.1,0.1-0.2c2-1.2,3.4-3,6.3-2.8c2.6,0.2,5.4,0.8,7.5-1.6c0.2-0.3,0.7-0.3,1.1-0.4c2.3-0.3,2.8-1,2.3-3.7
			c-0.4-2.2-1.7-1.4-3-0.9c-0.1,0-0.2-0.1-0.2-0.2c0.4-0.7,0.8-1.4,1.1-2c0-0.1,0-0.2-0.1-0.2c-1.6-0.6-3.2-1.1-3.6-2.9
			c-0.2-0.8,0.2-1.7-0.1-2.4c-0.8-1.7-1.9-3.3-3-5.1c-0.1-0.1-0.2-0.1-0.2,0c-1.4,1.8-2.3,4.9-5.3,3.2c-0.8-0.5-0.5-2.9-0.7-5.3
			c0,0,0-0.1,0-0.1c-1.8-1.7-4.9-3-8.5-3.5c0,0-0.1,0-0.1,0c-1.2,1.2-1.9,2.6-1.4,4.7c0.2,0.8,0.1,2.2-0.3,2.5
			c-1.8,1.1-1,2.4-0.8,3.8c0.2,1.3,0.6,3.4,0.1,3.7c-2.5,1.3-2.2,3.5-2.1,5.5c0.2,2.4-1.6,2.3-2.9,2.8c-0.1,0-0.2,0-0.2-0.1
			c-0.4-1.1-1.1-2.2-1.2-3.4c-0.1-0.9,0.1-1.9,0.3-2.9c0.1-0.3-0.3-0.5-0.5-0.3l0,0c0,0-0.1,0-0.2,0c-1.9-1.1-3.8-2.2-5.7-3.2
			c-1-0.5-2.1-0.9-3.1-1.4c-0.8-0.4-1.6-0.8-2.1-1.4c-0.7-0.9-1.1-2.1-1.6-3.1c0,0,0-0.1,0-0.1c0.5-4.6,5.2-6.1,7.9-9.3
			c0,0,0.2,0,0.2,0c2-0.1,2.5-1.3,2.5-3c0-0.1,0-0.1-0.1-0.1c-0.5-0.3-1-0.6-1.5-0.8c-0.1-0.1-0.1-0.3,0.1-0.3
			c1.6,0.3,3.1,1.1,3.8-1.5c0-0.1,1,0,1.5,0c1.2,0,2.5,0.2,3.4-0.2c0.5-0.2,0.5-1.7,0.7-2.6c0.1-0.5,0.1-1.1,0.4-1.5
			c1.1-1.5,0.2-2.3-0.9-2.9c-1.1-0.5-2.3-0.8-3,0.9c-0.7,1.5-1.6,2.9-2.7,4.7c-0.1,0.1-0.2,0.1-0.3-0.1c-0.2-1.8-0.4-3.1-0.6-4.8
			c0-0.1-0.2-0.2-0.2-0.1c-0.8,0.8-1.2,1.3-1.8,1.9c-0.1,0.1-0.2,0-0.2-0.1c-0.5-1.7-0.8-3.1-1.2-4.4c-0.3-0.8-0.5-1.9-1.2-2.3
			c-0.5-0.3-1.7,0.2-2.3,0.6c-0.6,0.5-1.1,1.1-1.6,1.8c-0.3,0.4-0.2,0.9,0.1,1.3c2.3,2,2.1,2.9,0,4.1c0,0-0.1,0-0.1,0
			c-1.7-0.2-3-0.7-3.7-0.3c-3.1,1.7-5.1,1.8-7.9-0.1c-0.5-0.3-1.7-0.1-2.1,0.3c-0.5,0.5-0.7,1.4-1,2.3c0,0.1-0.1,0.1-0.2,0.1
			c-1.8-0.4-2.9-4-5.8-1.1c-0.1,0.1-0.3,0-0.2-0.1c0.7-2.5-0.7-2.7-2.1-3c-2.1-0.4-4.2-1-6.3-1.5c-0.5-0.1-1-0.4-1.4-0.3
			c-2.3,0.6-4.5,0.9-5.8-1.6c0-0.1-0.1-0.1-0.2,0c-1.2,1-2.3,1.8-3.3,2.7c-0.1,0-0.1,0-0.2,0c-0.1-0.1-0.2-0.2-0.3-0.3
			c0-0.1,0-0.2,0-0.2c0.5-0.4,0.9-0.7,1.5-1.1c0.1-0.1,0.1-0.2-0.1-0.2c-2-0.5-4.5,1.1-6,3.6c0,0.1-0.1,0.1-0.2,0.1
			c-2.6-0.8-5.6-1-7.7-2.5c-2.9-2-5.8-0.2-8.7-1.3c-1.3-0.5-3.1,0.1-3.9-1.8c0-0.1-0.2-0.1-0.2,0c-1.5,1.5-2.8,2.2-3.6-0.3
			c0-0.1-0.1-0.1-0.2-0.1c-1.1,0.3-2,0.6-2.9,0.9c-1.9,0.6-3.7,1.1-5.6,1.7c-0.2,0.1-0.4,0.5-0.5,0.8c-0.3,1.8-1.6,2-3.1,2.1
			c-0.9,0.1-1.7,0.6-2.5,1c-0.1,0-0.1,0.1,0,0.2c0.6,0.8,1.2,1.7,2,2.2c1.1,0.6,2.4,0.8,4.1,1.3c0.1,0,0.1,0.2,0,0.3
			c-3.5,1.1-7-0.8-9.7,2c0,0.1-0.1,0.1,0,0.2c0.8,1,1.5,2.6,2.6,2.9c1.1,0.4,2.6-0.2,3.9-0.5c0.1,0,0.2,0.1,0.1,0.2
			c-0.5,0.9-1.3,1.5-2.2,1.8c-1.1,0.5-2.5,0.6-3.5,1.3c-1,0.7-1.6,1.9-2.4,3c0,0.1,0,0.1,0,0.2c0.3,0.4,0.9,0.8,0.9,1.2
			c-0.1,2.5,0.1,2.8,2.2,2c0.1,0,0.2,0.1,0.2,0.2c-0.2,0.9-0.4,1.9-0.6,2.9c0,0.1,0.1,0.2,0.1,0.2c1.7-0.1,3.1-0.2,4.4-0.3
			c0.3,0.4,0.3,0.5,0.6,0.9c-2.4,4.1-7.6,4.5-11.2,7.4c-0.1,0.1-0.1,0.2,0.1,0.2c1.2,0.3,2.4,0.6,3.4,0.2c2.7-1.2,5.3-2.8,7.9-4.3
			c1.4-0.8,2.7-1.8,4.1-2.7c0,0,0,0,0,0c1.4-2,2.8-4,4.1-6c0.8-1.1,1.6-1.9,2.8-1c0.1,0.1,0.1,0.2,0,0.2c-1.2,1.2-2.4,2.4-3.5,3.6
			c0,0-0.1,0.1,0,0.2c0.1,0.2,0.3,0.5,0.4,0.7c0,0,0.1,0.1,0.1,0.1c0.7,0,1.6,0.3,2-0.1c1.3-1.1,2.5-2.3,3.4-3.6
			c0.8-1.1,1.1-1.4,2.1-0.3c0.7,0.7,1.8,1.7,2.6,1.6c2.1-0.3,3.2,0.9,4.6,1.9c1.1,0.8,1.8,2.3,3.6,1.9c0.3-0.1,1.9,0.3,2.1,1.9
			c0.1,1,1.5,2,2.4,2.9c0.1,0.1,0,0.2-0.1,0.2l0,0c-0.1,0-0.1,0.1-0.1,0.2c1.2,3,2.5,6,3.7,9c0,0,0,0.1,0,0.1
			c-0.2,1-0.4,2.1,0.1,2.7c1.8,2.3,1.2,4.6,0.4,7.1c-0.9,3.1-1.4,6.4-2,9.6c-0.1,0.7,0.4,1.5,0.7,2.3c0.5,1.2,1.1,2.4,1.6,3.5
			c0,0.1,0,0.1-0.1,0.2c-0.1,0.1-0.3,0.1-0.4,0.2c-0.1,0-0.1,0.2,0,0.2c1.7,1.6,3.4,3.2,4.9,4.7c0,0,0,0,0,0.1
			c0.4,1.7,0.5,3.7,1.4,5c1.1,1.5,2.2,2.6,0.6,4.4c-0.1,0.1,0,0.2,0,0.2c2.1,1.2,4,2.2,4.2,4.9c0.1,1,1.6,1.8,2.5,2.7
			c0.1,0.1,0.2,0,0.2-0.1c0.2-5.4-4.5-8.7-5.2-13.6c0-0.1,0.1-0.2,0.2-0.1c1,0.7,2.1,1.4,2.4,2.3c1,3.7,3.5,6.5,5.6,9.5
			c1,1.4,1.3,3.3,2,4.9c0.2,0.6,0.3,1.4,0.8,1.7c2,1.5,4.1,3,6.2,4.3c1.9,1.1,3.8,2.4,6.4,1.4c0.7-0.3,2,0.8,3,1.3
			c1.2,0.6,2.4,1.2,3.6,2c1.3,0.9,2.6,1.7,3.7,2.8c1.5,1.4,0.9,4.6,4,4.8c0.2,0,0.3,0.9,0.5,1c1.3,0.6,2.7,1.2,4.1,1.6
			c0.3,0.1,0.9-0.9,1.4-1.5c0-0.1,0.1-0.1,0.2,0c2.2,1.5,2.4,4,2.6,6.4c0.1,0.7-0.6,1.7-1.2,2.2c-3.1,2.5-4.3,6-2.9,9.1
			c0,0.1,0,0.1,0,0.2c-2.2,1.6-2.2,2.8-0.1,4.5c0.2,0.2,0.3,0.5,0.5,0.8c0.8,1.7,1.7,3.5,2.4,5.2c2,4.3,3.3,9.1,8.5,10.9
			c0.9,0.3,2,1.5,2.1,2.5c0.5,3.5,1.1,7.1,0.9,10.7c-0.2,3.2-1.3,6.3-1.9,9.5c-0.2,0.9-0.3,1.9,0,2.6c1.2,2.4,0.5,4.5-0.4,6.8
			c-0.4,1-0.6,2.2-0.6,3.2c0.1,2.3,0.4,4.6,0.6,7c0,0.3,0.3,0.5,0.4,0.8c0.4,1,0.9,2,1,3c0.2,1.9-2.1,3.8-0.1,5.8
			c0.1,0.1-0.2,0.4-0.3,0.6c-1.1,1.8-0.2,3.3,0.9,4.7c1.8,2.2,3.6,4.3,5.2,6.3c0,0.1,0.1,0.1,0.2,0c0.7-0.6,1.3-1,1.9-1.5
			c0,0,0.1-0.1,0.1-0.1c-0.1-1.4-0.3-2.9-0.2-4.3c0-0.6,0.4-1.3,0.7-1.9c0.7-1.7,1.5-3.3,2.2-5c0.1-0.3-0.5-1-0.9-1.2
			c-1.8-0.8-1.4-1.5-0.3-2.6c2.9-2.7,3-4.2,1.2-7.6c0,0,0.1-0.2,0.2-0.3c0,0,0.1-0.1,0.2,0c3,1.1,3,1.1,3.5-2.9c0-0.1,0-0.1,0.1-0.1
			c2.1-0.9,4.4-1.3,5.8-2.7c1.8-1.8-0.4-3.4-1.3-5.1c-0.1-0.1,0-0.2,0.1-0.2c4.7,0.6,6.3-0.4,6.6-3.7c0,0,0-0.1,0-0.1
			c1.1-1.2,2.2-1.9,2.4-2.9c0.6-2.5,3-4.3,2.3-7.2c-0.1-0.4,0.4-1.3,0.8-1.6c2.7-1.6,5.4-3,8.4-4.7c0,0,0.1-0.1,0.1-0.1
			c0.9-3.9,3.3-8.2,2.3-13.1c0-0.2,0-0.5,0.2-0.7c1.4-2,2.9-3.9,4.1-6c0.7-1.1,1.6-2.6,1.4-3.7C195.3,317.3,193.4,315.6,191.3,314.3
			z"/>
		<path d="M214.6,183.9c-1.7-0.3-3.2-0.6-4.9-0.8c-0.1,0-0.1-0.1-0.1-0.1c0.6-1.9,1.4-2.3,2.9-1.1c0.4,0.4,0.8,0.8,1.4,1
			c0.6,0.2,1.3,0.2,1.9,0.2c0.1,0,0.1,0,0.1-0.1c0.1-0.7,0.4-1.7,0.1-2.1c-0.5-0.8-1.6-1.2-2.3-1.8c-0.4-0.3-0.6-0.8-0.8-1.3
			c0-0.1,0-0.1,0.1-0.2c0.4-0.1,0.9-0.3,1.3-0.4c0.7-0.1,1.4-0.1,2-0.4c1.2-0.7,2.4-1.5,3.5-2.4c0.6-0.5,0.8-1.4,1.2-2.1
			c0-0.1,0-0.1,0-0.1c-3-1.6-3-1.9-0.8-3.8c0.4-0.3,0.6-1.1,0.5-1.6c-0.1-0.4-0.7-0.8-1.2-0.9c-0.9-0.1-1.7-0.1-2.6,0
			c-0.2-0.5-0.2-0.5-0.4-1c1.3-1.2,2.7-2.5,4-3.8c0.1,0,0-0.1,0-0.2c-0.5-0.3-1-0.6-1.5-1c-0.1,0-0.1-0.2,0-0.2
			c3-1.2,6.5-0.9,9.1-3.9c0-0.1,0-0.1,0-0.2c-4.9-1.7-8.7,0-12.3,2.5c-0.3-0.3-0.2-0.2-0.6-0.6c0.6-0.8,1.1-1.6,1.7-2.4
			c0,0,0-0.1,0-0.1c-0.1-0.2-0.2-0.3-0.3-0.5c0,0-0.1-0.1-0.1,0c-1.3,0.6-2.6,1.1-4.1,1.8c-0.1,0-0.1,0-0.1-0.1v-2.3
			c0-0.1-0.1-0.1-0.1-0.1c-2.3,0.5-4.6,1-6.8,1.5c-0.1,0-0.1,0-0.1-0.1c0-0.2-0.1-0.5-0.1-0.7c0-0.1,0-0.1,0.1-0.1
			c3.7-0.6,7.5-1.3,11.2-1.9c0,0,0.1,0,0.1-0.1c0-0.2,0-0.5,0-0.7c0-0.1,0-0.1-0.1-0.1c-1.2-0.3-2.5-0.8-3.7-0.8
			c-1.3,0-2.5,0.5-3.8,0.8c0,0-0.1,0-0.1,0c-0.2-0.6-0.1-0.3-0.2-0.9l0.6-0.2c0.1,0,0.1-0.1,0.1-0.2c-0.3-0.5-0.4-0.8-0.6-1
			c-0.2-0.2-0.6-0.5-0.8-0.5c-3,0.5-6.5,0.2-8.9,1.8c-2.1,1.4-3.4,2.3-5.5,0.7c-0.2-0.1-0.5,0-0.8,0c0,0-0.1,0-0.1,0.1
			c-0.2,1.2-0.3,2.2-0.4,2.9c0,0.1-0.1,0.1-0.1,0.1c-1.7-0.4-3.1-0.7-4.7-1.1c-0.1,0-0.1,0-0.1,0.1c-0.1,1.1-0.2,1.9-0.4,3.2
			c0,0.1-0.1,0.1-0.2,0.1c-0.7-0.9-1.1-1.4-1.5-1.8c-0.5-0.5-1-1-1.5-1.2c-0.3-0.1-0.7,0.7-1.1,1c0,0-0.1,0-0.1,0
			c-1-0.3-2.3-1.2-3.1-0.9c-1.9,0.6-4.1,0.9-5.2,3.1c-0.3,0.6-1.5,0.9-2.3,1c-1.5,0.1-2.5,0.4-2.4,2.3c0,0.5-0.4,1.2-0.9,1.5
			c-2.3,1.1-4.6,2.1-7,3.2c-0.3,0.2-0.5,0.6-0.8,0.9c0,0,0,0.1,0,0.1c0.4,0.3,0.8,0.7,1.2,0.7c0.8,0,1.6-0.4,2.4-0.4
			c0.7,0,1.4,0.4,2.1,0.6c0.1,0,0.1,0.1,0.1,0.1c-0.1,0.2-0.1,0.4-0.2,0.6c0,0,0,0.1-0.1,0.1c-1.2,0.2-2.4,0.3-3.9,0.5
			c-0.1,0-0.1,0.1-0.1,0.2c2.2,2.8,4.8,2.8,7.6,2.4c4-0.7,5.4,0,6.7,3.9c0.6,1.8,1,3.8,1.4,5.7c0.2,0.9,1.1,1.5,2,1.4
			c0.5-0.1,0.9,0.2,0.8,1.4c0,0,0,0.1-0.1,0.1c-0.3,0.1-0.7,0.2-1,0.3c-0.6,0.2-0.7,0.9-0.2,1.2l0,0c0.7,0.5,1.5,1,2.2,1.5
			c0,0,0.1,0.1,0,0.2c-0.6,0.8-1.1,1.8-1.9,2.2c-1.6,1-2.3,2.4-1.5,3.9c2.2,4.4,1.2,10.4,7.1,13c2.7,1.2,3.5,1.6,4.5-1.5
			c0.6-1.7,1.5-3.3,2.3-5c0.3-0.6,0.6-1.2,0.5-1.8c-0.3-1.8,0.8-2.3,2.2-2.4c1.1-0.1,2.1-0.3,3.2-0.4c2.2-0.2,3.7-0.8,4-3.3
			c0.2-1.6,1.4-2,2.9-1.7c3.8,0.8,7.8-1.3,9.7-5.2C214.7,184,214.7,183.9,214.6,183.9z"/>
		<path d="M160.2,182.8c-0.9-0.4-1.9-0.5-2.7-1c-0.9-0.6-2-1.3-2.3-2.3c-0.7-1.9-2-2.3-3.7-1.8c-0.9,0.3-1.7,0.7-2.5,1.1
			c-0.4,0.2-0.8-0.2-0.7-0.6c0,0,0,0,0,0c0.9-2,0.3-2.8-1.9-2.7c-1.8,0.1-2.4,1.4-2.9,2.8c-0.1,0.2-0.2,0.3-0.3,0.5
			c-0.3,0.3-0.8,0.1-0.8-0.3c0-0.2,0-0.4,0-0.6c0.1-0.4,0.2-0.9,0.5-1.4c0.1-0.3-0.1-0.7-0.4-0.6c-2.2,0.1-3.4,1.2-4,3
			c-0.5,1.6-0.9,3.4,1.2,4.1c0.2,0.1,0.4,0.3,0.3,0.5c-0.1,0.4-0.1,0.7-0.2,1.1c-0.1,0.3,0.2,0.6,0.4,0.6c2.4,0.1,4.9-1.3,7,0.7
			c0.1,0.1,0.9-0.6,1.4-0.7c0.7-0.1,1.9-0.2,2.2,0.3c0.6,0.7,0.8,1.6,0.9,2.2c0,0.1,0.1,0.2,0.2,0.3c1.3,0.7,2.9,1.1,3.2,1.9
			c0.4,1-0.1,2.7-0.8,3.7c-0.5,0.8-1.9,1.1-2.9,1.5c-0.6,0.2-1.5-0.1-1.9,0.3c-0.5,0.4-0.9,1.1-1.3,1.8c-0.1,0.2-0.1,0.5,0.1,0.6
			c0.7,0.5,1.5,1.2,1.9,1c2.7-1.5,4.1,0.1,5.9,1.7c1.2,1.1,2.5,2.6,4.7,2.7c0.4,0,0.6-0.4,0.4-0.7c-0.3-0.5-0.5-0.9-0.7-1.3
			c-0.3-0.5,0.3-0.9,0.7-0.6c0,0,0.1,0,0.1,0.1c0.3,0.2,0.6,0.5,0.9,0.7c0.2,0.2,0.5,0.1,0.7-0.1c1.7-2.5,1.2-4.2-1.5-5.4
			c-0.4-0.2-0.8-0.8-0.8-1.3c0-0.5,0.3-1.2,0.7-1.4c0.4-0.2,1.1,0.1,1.4,0.5c0.6,0.6,1,1.5,1.6,2.1c0.4,0.4,1.6,0.7,1.7,0.5
			c0.8-1.2,1.7-2.5,1.9-3.8c0.1-0.5-1.8-1.3-2.8-1.9c-1.2-0.7-2.3-1.3-3.6-2c-0.2-0.1-0.3-0.4-0.2-0.7
			C163.6,185.1,163.1,184,160.2,182.8z"/>
		<path d="M152.3,158.6c0.4-0.1,0.6,0.5,0.2,0.7c-0.3,0.1-0.5,0.1-0.8,0.2c-0.9,0.2-1.9,0.3-1.6,1.5c0.1,0.3-0.2,0.5-0.5,0.4
			c-0.8-0.3-1.7-0.6-2.7-1c-0.3-0.1-0.5,0.2-0.5,0.4c0.4,1.2,0.6,2.1,1,3.2c0,0.2,0,0.3-0.2,0.4c-1.5,0.9-3.1,1.9-4.8,3
			c-0.9,0.5-1,1.8-0.1,2.5c0.3,0.2,0.5,0.3,0.8,0.4c2.8,0.3,5.7,0.4,8.5,0.1c2.2-0.3,2.7-1.8,2-3.2c-0.1-0.1,0-0.3,0.1-0.4
			c1.7-1.6,3.3-3.3,5-4.7c0.7-0.6,1.9-1.2,2.7-1c3.7,0.7,6.4-1.6,6.1-5.1c0-0.2,0.1-0.3,0.3-0.4c2-0.4,3.9-0.7,5.9-1.1
			c0.2,0,0.3-0.2,0.3-0.3c0-0.1,0-0.3,0.1-0.4c0-0.1,0-0.2-0.1-0.3c-0.7-0.5-1.5-1.5-2.1-1.3c-3.8,0.8-8.1-2.4-11.6,1.6
			c-0.2,0.2-0.5,0.2-0.6-0.1c0,0,0-0.1-0.1-0.1c-0.4-0.7-1.3-1.1-2.1-1c-0.7,0.1-1.3,0.2-1.8,0.1c-1.4-0.3-2.3-0.1-3.1,1.2
			c-0.7,1.2-1.7,1.2-2.9,0.3c-0.5-0.4-1.6-0.7-2.2-0.4c-1,0.3-1.9,0.9-2.8,1.4c-0.7,0.4-0.9,1.3-0.5,2
			C146.1,160.5,149.2,159.3,152.3,158.6z"/>
		<path d="M385.8,308c0.6,1.1,1.5,2.1,2,3.2c1,2.3,2.5,2.9,4.5,1.6c1,0.6,2,1.7,2.4,1.5c0.8-0.4,1.3-1.4,1.8-2.3
			c1-1.7,1.9-3.4,2.8-5.2c0.2-0.5,0.3-1.4,0-1.7c-1.9-1.6-1.4-2.7,0.4-4.1c1.5-1.2,1.3-2-0.5-2.7c-1.1-0.4-2.1-0.8-2.9-1.1
			c-1.5,1.6-2.7,3.1-4.1,4.5c-0.8,0.8-1.9,1.5-2.9,2.2c-0.7,0.5-1.4,1.2-2.1,1.2C385.4,305.5,384.9,306.4,385.8,308z"/>
		<path d="M438.3,319.5c0.5-2.3-1.6-3-2.4-4.5c-0.4-0.8-1-1.4-1.2-1.6c-3-1.1-5.4-2.1-7.9-3c-0.7-0.2-1.7-0.5-2.2-0.2
			c-1.8,1-3.4,2.2-5.4,3.6c0.6,0.1,1.1,0.2,1.6,0.4c1.6,0.9,3.3,1.7,4.5,2.9c0.4,0.4-0.5,2.1-0.8,3.5c1,0.2,2.5,0,3.6,0.7
			c1.8,1,2.8,0.6,3.9-0.9c1.1-1.6,2.3-1.6,3.4,0c0.4,0.6,0.8,1.3,1.2,1.8c1.4,1.6,3.5,1.9,5.8,0.6c-1-0.7-1.8-1.2-2.5-1.8
			C439.3,320.6,438.2,319.9,438.3,319.5z"/>
		<path d="M120.8,177.9c-1.1-0.2-2.3-0.7-2.7-0.3c-0.7,0.6-1,1.8-1.4,2.6c-1.2-0.1-1.2-3.6-3.3-1c-1.1-1.5-4-1.3-5.3,0.7
			c-0.7,1-1.1,1.5-2.3,1.3c-0.4,0-0.9,0.7-1.4,1c0.5,0.3,0.9,0.9,1.4,1c1,0.2,2,0,3,0c0,0.2,0,0.3,0,0.5c-1.3,0.3-2.7,0.7-4.3,1.1
			c3.5,3.2,16.5,4.3,17.7,1.8c-0.2-0.6-0.5-1.2-0.7-1.9c0.7-0.2,1.3-0.4,2.2-0.6C121.7,182.5,118.8,181.5,120.8,177.9z"/>
		<path d="M298.5,330.4c0,0.4,0.1,0.9-0.1,1.1c-1.1,1.6-1.9,3.9-3.4,4.5c-2.3,1-4.4,3.1-3.1,5.2c1.1,1.9,0.2,2.9-0.7,4.2
			c-0.4,0.6-0.6,1.4-0.9,2.1c2.3,0.7,0.5,2.5,1.1,3.9c0.7,0.2,1.7,0.8,2.4,0.6c1.1-0.3,2.4-1,2.9-1.9c1.8-2.9,0.9-6.6,2.9-9.5
			c0.9-1.3,0.9-3.1,1.6-4.5C302.1,334,300.6,330.6,298.5,330.4z"/>
		<path d="M235,219.9c-0.1,1.1-0.2,2.1-0.3,3.1c0.2,0.1,0.6,0.2,0.9,0.3c-0.7,1-1.3,1.9-2.1,3c2.1-0.3,3.8-0.5,5.5-0.9
			c1.6-0.4,2.8-1.6,3.6-3c0.2-0.4-0.2-1.3-0.5-1.9c-0.4-0.7-1.1-1.2-1.4-1.9c-1.1-1.9-2-3.8-3-5.7c0.2-0.4,0.5-1,0.8-1.7
			c-1-0.2-2.1-0.2-2.2-0.5c-0.3-1-0.7-1.9-1.7-1c-0.7,0.6-0.8,1.9-1.1,2.8c-0.2,0.7-0.2,1.4-0.4,2.6c1.1,1,2.5,2.3,4.1,3.7
			C236.3,219.3,235.6,219.6,235,219.9z"/>
		<path d="M376.6,304.8C376.6,304.8,376.6,304.7,376.6,304.8C376.6,304.7,376.6,304.7,376.6,304.8
			C376.6,304.7,376.6,304.8,376.6,304.8z"/>
		<path d="M366.5,300.7c0.8,0.5,1.5,0.8,2.1,1.3c1.4,1.2,3.5,2.3,3.9,3.8c1.2,4.2,4.2,6.9,6.7,10.1c0.4,0.5,1.6,1,2.1,0.8
			c0.6-0.2,0.8-1.3,1.1-2.1c0.3-1,0.5-2.1,0.8-3.2c0.3,0,0.5-0.1,0.8-0.1c-0.6-0.6-1.2-1.1-1.8-1.6c-0.7,0.5-1.3,1.3-1.5,1.2
			c-0.5-0.3-1-0.9-1.3-1.5c-1-1.6-1.9-3.1-2.8-4.7c-2.2-1.5-4.5-2.9-6.5-4.5C368.7,299.1,367.8,299,366.5,300.7z"/>
		<path d="M307.4,183.7c-3.4-3.8-3.4-5.2,1.1-8.2c2.5-1.7,5.4-2.9,8.1-4.3c0.8-0.4,1.6-0.7,2.5-1.1c-1.3-1.6-2.4-1.6-3.8-0.8
			c-0.8,0.5-1.7,1-2.6,1.2c-3.8,0.9-7.6,1.4-9.8,5.4c-1.4,2.6-3.1,4.6-0.5,7.4C303.8,184.9,305.8,185.3,307.4,183.7z"/>
		<path d="M102.1,181.8c1.6-1,3.5-1.6,5.2-2.6c0.1-0.1,0.2-0.1,0.3-0.2c1.1-0.7,1.2-2.3,0.2-3.1c-0.2-0.1-0.3-0.2-0.5-0.3
			c-1.2-0.6-2.5-1-4-1.5c-0.4-0.1-0.9-0.1-1.3,0c-0.3,0.1-0.5,0.2-0.8,0.3c-0.6,0.3-1.4,0.4-1.7,0.9c-0.9,1.3-1.6,2.6-2.4,4
			c-0.4,0.7-0.3,1.5,0.1,2.1C98.5,183.3,99.7,183.3,102.1,181.8z"/>
		<path d="M260.7,172.4c-0.6,2.7,0.8,5,3.2,5.6c0.6-1.6,0.1-3.9,2.9-4.1c0.2,0.7,0.3,1.4,0.5,2.2c0.9,0,1.8,0.1,2.6,0
			c0.5-0.1,1.3-0.4,1.4-0.8c0.1-0.4-0.2-1.3-0.7-1.5c-0.9-0.6-2-0.7-2.9-1.3c-0.9-0.5-1.6-1.3-2.3-1.9c-0.7-0.6-1.2-1.7-1.9-1.7
			c-0.8,0-1.5,0.9-2.7,1.6c-0.8-0.2-2.1-0.6-3.9-1.2c-1.8,0.5-0.9,2.2-0.4,3.4C257.9,175.1,259.3,172.5,260.7,172.4z"/>
		<path d="M417,250c-1.6,0.9-3.2,1.7-5.1,2.8c1.5,0.9,2.4,1.5,3,1.8c1.1-0.2,1.9-0.4,2.8-0.5c0-0.3,0.1-0.9,0.1-1.1
			c1.6,0,3.2,0.5,4.2-0.1c1.5-0.8,2.5-2.3,1.8-4.5c-0.2-0.7,0.5-1.8,0.8-2.7c-0.4-0.9-0.8-2.1-1.3-3.3c-0.2-0.4-0.8-1-1.1-0.9
			c-0.4,0-0.9,0.6-1.1,1c-0.2,0.5,0,1.1,0,1.7c0,3.6-0.6,4.3-3.3,4.3c-0.2,0.7-0.4,1.3-0.5,2C417.2,250.3,417.1,250.1,417,250z"/>
		<path d="M214.6,197.3c1-0.4,2.1-0.9,3.3-1.3c1.7-0.6,2.7-2.5,2.1-4.3c-0.6-1.9-1.9-1-3.2-0.9c-2,0.2-3.9,0.3-5.9,0.3
			c-0.7,0-1.7-0.6-1.9-0.4c-0.7,0.8-1.1,1.9-1.8,3.4c1.5-0.3,2.3-0.4,3.2-0.6c-0.2,1.2-0.4,2-0.5,2.4
			C211.5,196.4,213,196.8,214.6,197.3z"/>
		<path d="M135.6,170.3c1.5,3.1,4.6,4.5,8.1,4c1.7-0.2,3.4,0.2,5.2,0.4c0.5,0,1.2,0.2,1.3,0c0.3-0.4,0.6-1.2,0.3-1.5
			c-0.5-0.7-1.3-1.4-2.1-1.6c-1.3-0.2-2.8,0.1-4.1,0c-1.8-0.2-3.9-0.2-4.1-2.9c0-0.5-1-0.9-1.6-1.4c-1.1,0.5-2,0.9-2.8,1.5
			C135.4,169,135.4,169.9,135.6,170.3z"/>
		<path d="M137.3,162c0.3,0.2,0.8,0.4,0.8,0.6c0,2.8,2.2,3,3.9,2.6c0.9-0.2,1.6-1.2,2.5-2.4c0.6-0.7,0.5-1.8-0.2-2.4
			c-1.2-1.2-2.2-2.2-3.3-3c-0.6-0.4-2.1-0.7-2.3-0.4c-0.9,1.3-2.7,2.8-2.2,4.3C136.6,161.9,137,161.8,137.3,162z"/>
		<path d="M450.5,363.6c-1.3,2.8-3.4,4.5-6.3,5.6c-0.8,0.3-1.7,0.8-2.1,1.5c-0.4,0.6-0.5,1.7-0.2,2.4c0.4,0.9,1.3,1.5,2.3,2.6
			c1.1-1.4,2-2.4,2.8-3.4c0.5-0.7,0.8-1.9,1.4-2.1c2.6-0.5,2.6-3.5,4.5-4.7c0.1-0.1-0.3-1.4-0.7-1.9
			C451.9,363.3,450.6,363.3,450.5,363.6z"/>
		<path d="M403.6,305.8c-1.3-0.1-2.3-0.2-2.6,1.6c-0.2,1.3-1.2,2.4-1.6,3.7c-0.3,0.9-0.4,2.1-0.1,3c0.3,0.9,1.3,1.6,1.9,2.4
			c0.4-0.9,0.8-1.9,1.1-2.4c0.7,0.9,1.6,1.9,2.4,2.9c0.3-0.2,0.7-0.5,1-0.7c-0.4-1-0.9-1.9-1.2-2.9c-0.2-0.7-0.3-1.4-0.2-2.1
			c0.1-0.7,0.5-1.4,0.8-2c-0.8,0-1.6,0.1-2.5,0.1c-0.2-0.7-0.4-1.4-0.5-1.7c2.1-0.4,3.9-0.7,5.6-1.1c0,0-0.2-1.1-0.2-1.1
			C406,305.6,404.8,305.9,403.6,305.8z"/>
		<path d="M112.4,174.9c1.4,0.1,2.9-0.2,4.3-0.4c1.4-0.2,2.9-0.5,4.6-0.8c0.9-0.2,1.3-1.3,0.6-2c-0.2-0.2-0.5-0.4-0.7-0.6
			c-0.6-0.5-1.5-0.7-1.8-1.3c-1-1.6-1.6-1.1-2.7-0.1c-1.1,1-2.6,1.5-3.9,2.2c-0.3,0.2-0.6,0.4-0.9,0.6c-0.5,0.4-0.6,1.1-0.3,1.6
			C111.8,174.5,112.1,174.9,112.4,174.9z"/>
		<path d="M169.5,226c-0.7,0.7-1.6,1.2-2,2c-0.5,0.9-0.5,2.1-0.8,3.1c0.8,0,1.6,0.1,2.4,0.1c0.4,0,0.8-0.1,1.1-0.1
			c0.3,0.7,0.6,1.4,1,2.3c0.4-0.5,0.7-0.8,1-1.1c0.5,0.4,1,0.8,1.7,1.4c1.3-2.7,0.5-5.3-1.6-6.2c-0.4-0.2-0.7-0.6-0.8-1
			C171.3,224.7,170.5,225.1,169.5,226z"/>
		<path d="M459.9,358.1c-3.8,0.5-2.6-4.3-5.8-5.3c0.2,1.1,0.1,1.8,0.4,2.3c1.3,1.9,1.4,3.5-0.3,5.4c-1.1,1.3,0.1,4.3,0.9,4.6
			c1.4-1.3,2.6-2.3,3.6-3.4c0.7-0.9,1.2-1.9,1.8-2.9C460.3,358.6,460.1,358.4,459.9,358.1z"/>
		<path d="M390.5,317.8c-2.3-0.3-4.6-1-6.9-1.1c-0.6,0-1.3,1.1-2,1.7c0.7,0.4,1.4,0.9,2.1,1.2c0.6,0.2,1.3,0.2,1.9,0.3
			c2.8,0.6,5.6,2,8.7,0.6C393.8,318.4,392.3,318,390.5,317.8z"/>
		<path d="M227.8,223.8c1.4-0.5,2.5-1.1,3.7-1.3c3.2-0.3,0.8-3,1.8-4.2c0.2-0.3-0.1-1.1-0.3-1.7c-0.1-0.2-0.4-0.3-0.6-0.4
			c-1-0.3-4.9,1.6-4.9,2.6C227.5,220.4,227.7,222,227.8,223.8z"/>
		<path d="M142.2,276.4c-1.8-1-3.6-1.9-5.5-2.6c-3.3-1.4-5.1-1.1-6.8,1.2c0.7-0.2,1.2-0.3,1.7-0.4c3.2-0.7,5.9,0.9,7.2,3.9
			c0.2,0.5,1.5,0.9,2.2,0.8c0.9-0.1,1.7-0.7,2.5-1.1C143.2,277.5,142.9,276.7,142.2,276.4z"/>
		<path d="M126.5,181.8c0.1,0.3,1.8,0.4,2.1,0.1c0.6-0.6,1-1.7,1.1-2.6c0.1-0.8,0-1.8-0.3-2.5c-0.3-0.7-1.2-1.5-1.8-1.4
			c-0.6,0-1.4,0.9-1.7,1.6c-0.2,0.4,0.1,1.2,0.2,2.1c-0.9-0.5-1.5-0.8-2.3-1.2C122.9,180.4,126,180.2,126.5,181.8z"/>
		<path d="M421.5,240c1,0.2,2.1,0.1,3.4,0.1c0.2-0.3,1-0.8,1.2-1.5c0.2-0.7,0-1.9-0.4-2.3c-1.3-1.1-2.9-2-4.1-2.8
			c-0.4,1.5-1,3.4-1.4,5.4C420.2,239.2,421,239.9,421.5,240z"/>
		<path d="M402.3,278.6c-0.6,0.1-1.2,0.7-1.6,1.2c-0.6,1-1.2,2.1-1.4,3.3c-0.1,0.6,0.2,1.8,0.7,2c1.1,0.5,2.5,0.7,4.1,1.1
			c-0.2-2.7-0.3-4.5-0.6-6.2C403.3,279.4,402.5,278.5,402.3,278.6z"/>
		<path d="M268,171.1c2.3,1.2,5.4-0.2,7-2.9c-2.2-0.2-4.1-0.5-6.1-0.5c-0.9,0-1.8,0.6-2.7,0.9C266.8,169.4,267.2,170.6,268,171.1z"
			/>
		<path d="M394.8,177.8c2.3,0.1,4.7-0.2,7.1-0.4c0.1,0,0.1-0.3,0.2-0.7c-1.8,0.2-2.1-4.8-4.8-1c-0.3-0.2-0.6-0.4-0.9-0.5
			c-0.8-0.3-1.7-0.7-2.5-0.8c-0.2,0-0.8,1-0.7,1.3C393.5,176.5,394.2,177.7,394.8,177.8z"/>
		<path d="M108,170.8c0.7-0.5,1.4-0.9,2.1-1.3c0.5-0.3,1.3-0.4,1.4-0.8c0.2-0.5,0.1-1.4-0.2-1.7c-0.3-0.3-1.2-0.1-1.7,0.1
			c-1.5,0.6-3,1.1-4.4,1.9c-0.2,0.1-0.3,0.2-0.5,0.3c-0.8,0.6-0.9,1.9,0,2.5l0,0c0.6,0.5,1.4,0.5,2,0.1
			C107.1,171.4,107.5,171.1,108,170.8z"/>
		<path d="M128.6,169.4c-0.3,0-0.7,0.2-1,0.3c-0.5,0.3-1.2,0.3-1.7,0.1c-0.5-0.2-1-0.4-1.4-0.6c-0.1,0-0.6,0.8-0.5,0.9
			c0.8,1.2,1.5,2.8,2.6,3.2c1,0.4,2.6-0.3,3.8-0.9c0.4-0.2,0.5-1.7,0.2-2.4C130.4,169.6,129.3,169.4,128.6,169.4z"/>
		<path d="M419.6,219.1c-0.3-0.5-0.9-0.8-1.3-1.2c-0.2,0.1-0.4,0.3-0.6,0.4c0.8,3.1,1.6,6.2,2.5,9.8c0.8-0.2,1.8-0.4,2.7-0.6
			c-0.5-1.8-1-3.6-1.7-5.3C420.9,221.1,420.3,220.1,419.6,219.1z"/>
		<path d="M152.2,280.1c-2.2-1-4-1.8-5.9-2.5c-0.1,0-0.7,1.3-1.1,2.1c-0.5,0-1.3,0.1-2.3,0.2C144.2,281.6,150,281.8,152.2,280.1z"/>
		<path d="M429.4,373c-2.4,0.4-3,0.8-3,2.7c0,1.3,0.2,2.5,1.9,2.5c1.5,0,3.4-1.8,3.2-3.5C431.4,374.1,430.1,373.6,429.4,373z"/>
		<path d="M137.6,176c-4-1.5-5.7-0.4-6,4.1c0,0.4,0.5,0.7,0.8,0.5c1.9-1.3,3.5-2.4,5.3-3.6C138,176.7,137.9,176.1,137.6,176z"/>
		<path d="M346,162.9c1.5-0.7,1.5-1.8,0.7-2.7c-0.5-0.6-1.8-0.9-2.5-0.7c-1.2,0.4-2.2,1.2-3.4,2C342.3,164.3,342.7,164.4,346,162.9z
			"/>
		<path d="M124.8,165.1c0.7,0.7,1.6,1.3,2.5,1.6c0.5,0.2,1.1,0.1,1.6,0c0.5-0.1,0.9-0.5,0.9-1c0-0.5,0-1-0.3-1.2
			c-0.9-0.9-2-1.5-3.1-2.2c-0.3-0.2-0.8-0.2-1.1,0c-0.7,0.4-1.2,0.7-1.3,1.1C123.8,163.9,124.3,164.7,124.8,165.1z"/>
		<path d="M406.5,294.2c-2.7,2.7,1.2,3.3,1.3,5.2c2.6-2.3,3-4.3,1.5-5.8C408.1,292.4,407.3,293.4,406.5,294.2z"/>
		<path d="M138.7,196.5c-0.6,0.5-0.9,1.5-0.9,2.3c0,0.7,0.6,1.5,1.2,2c0.2,0.2,1.1-0.5,1.7-0.9c0.9-0.5,1.7-1.1,2.6-1.7
			C142.5,196.2,140.2,195.3,138.7,196.5z"/>
		<path d="M351.2,166.1c-1.9-4.3-1.9-4.3-6.5-1.2C346.9,166,348.8,167.3,351.2,166.1z"/>
		<path d="M356.7,164.2c1.1-3-2.4-1.5-2.8-3.1c-0.4,0-0.7,0.1-1.1,0.1c-0.1,1.2-0.8,2.7-0.3,3.6
			C353.1,165.9,356.2,165.4,356.7,164.2z"/>
		<path d="M346.8,292.9c0,2-0.1,3.6,0,5.1c0,0.4,0.9,0.9,1.4,0.9c0.5,0,1.3-0.6,1.3-1C349.9,296,349.6,294.2,346.8,292.9z"/>
		<path d="M156,397.4C156,397.3,156,397.3,156,397.4L156,397.4C156,397.3,156,397.3,156,397.4C156,397.3,156,397.3,156,397.4
			C156,397.3,156,397.3,156,397.4C156,397.3,156,397.3,156,397.4C155.9,397.4,155.9,397.4,156,397.4
			C155.9,397.4,155.9,397.4,156,397.4z"/>
		<path d="M156.7,400.4c1.8,1.4,2.9-0.8,4.5-0.6c-1.8-0.8-2.4-4-5.3-2.4C154.8,398.7,155.4,399.4,156.7,400.4z"/>
		<path d="M133.9,163.2c-0.7,0.1-1.7,1.2-1.7,1.8c0,0.7,1,1.7,1.7,1.8c0.5,0.1,1.1-0.6,2-1.4c0.3-0.2,0.3-0.6,0-0.9
			C135,163.8,134.4,163.1,133.9,163.2z"/>
		<path d="M165.8,393.2c-0.3,0.1-0.4,1.4-0.7,2.4c2.1-0.5,3.7-1,5.3-1.4c0-0.4-0.1-0.8-0.1-1.1C168.8,393.1,167.3,393,165.8,393.2z"
			/>
		<path d="M409.7,255.8c-0.2,0.3,0,0.8,0,1.3c1.9-0.8,1.1,1.9,3,1.9c-0.1-1.7-0.2-3.3-0.4-5.6C411,254.6,410.2,255.1,409.7,255.8z"
			/>
		<path d="M401.4,273.6c-0.2-1.8-0.3-3.3-0.6-5.3C398.2,270.9,398.3,272.4,401.4,273.6z"/>
		<path d="M119.5,163.5L119.5,163.5c0-0.2-0.1-0.3-0.2-0.3c-0.8-0.2-1.7-0.7-2.4-0.5c-0.9,0.3-1.6,1.1-2.3,1.8
			c-0.1,0.1-0.1,0.2,0,0.3c0,0,0.7,0.3,1.2,0.5c0.3,0.1,0.7,0.2,1.1,0C118.5,164.6,117.3,164.1,119.5,163.5z"/>
		<path d="M127.4,185c-1.8-0.4-2.2,1-2.5,3.3c1.6-0.6,2.8-1,4-1.4C128.4,186.3,128,185.2,127.4,185z"/>
		<path d="M409.4,177.2c0.1-0.3,0.1-0.6,0.2-1c-1.8-0.2-3.6-0.3-5.6-0.5C405.4,178,406.7,178.3,409.4,177.2z"/>
		<path d="M412.5,308.4c0-1.7,0-3.2,0-5.2C409.7,307.2,409.8,307.3,412.5,308.4z"/>
		<path d="M386.7,276.9c-0.3,0-0.7-0.1-1-0.1c-0.5,1.2-1,2.4-1.6,3.6c0.3,0.3,0.7,0.5,1,0.8c0.6-0.6,1.5-1.1,1.8-1.8
			C387.2,278.6,386.8,277.7,386.7,276.9z"/>
		<path d="M398,296.2c1.1-2.1,1.9-3.8,2.8-5.5c-0.3-0.1-0.5-0.3-0.8-0.4C397.3,294.3,397.3,294.3,398,296.2z"/>
		<path d="M115,168.9c1.4-0.8,2.7-1.6,4-2.3c-0.2-0.2-0.4-0.5-0.5-0.7C114.8,165.8,114.8,165.9,115,168.9z"/>
		<path d="M452.4,182c-0.3-0.5-0.6-1.3-1-1.4c-1.6-0.3-2.6,0.5-2.4,2.8C450.1,182.9,451.3,182.4,452.4,182z"/>
		<path d="M439.7,316.3c0.1,0.3,0.2,0.7,0.3,1c1-0.2,2.1-0.2,2.9-0.7c0.6-0.4,0.7-1.4,1-2.2c-0.2-0.1-0.4-0.2-0.6-0.3
			C442.1,314.8,440.9,315.5,439.7,316.3z"/>
		<path d="M420.1,311.6c1.4-0.5,2.4-1,4-1.6C420.9,308.3,420.6,308.5,420.1,311.6z"/>
		<path d="M132.9,173.9c0.5-0.1,1-0.2,1.5-0.3c0.4-0.1,0.6-0.5,0.5-0.8c-0.1-0.4-0.2-0.8-0.2-0.8c-0.7,0.1-1.4,0.3-2.1,0.5
			c-0.4,0.1-0.6,0.5-0.5,0.8c0,0,0,0.1,0,0.1C132.2,173.7,132.5,173.9,132.9,173.9z"/>
		<path d="M445.5,311.2c-0.4-0.6-1.3-0.9-2.1-1.3c-0.1,0.2-0.3,0.4-0.4,0.6c0.7,1.1,1.3,2.3,2,3.4c0.3-0.1,0.5-0.1,0.8-0.2
			C445.7,312.8,445.9,311.8,445.5,311.2z"/>
		<path d="M51.8,215.4c0.2,0.3,0.9,0.5,1,0.5c0.3-0.3,0.6-0.7,0.9-1.1c0.3-0.5,0.2-1.1-0.4-1.4c0,0,0,0,0,0
			c-0.4-0.2-0.9-0.1-1.1,0.3c-0.2,0.2-0.3,0.4-0.4,0.7C51.6,214.7,51.6,215.2,51.8,215.4z"/>
		<path d="M133.9,160.3c-0.3-0.3-0.6-0.6-1-1.1c-0.1-0.1-0.4-0.1-0.5,0c-0.5,0.5-0.9,0.9-0.9,1.3c0,0.4,0.4,0.7,0.7,1.1
			c0.1,0.1,0.3,0.1,0.5,0c0.4-0.3,0.8-0.6,1.2-0.9C134,160.7,134,160.5,133.9,160.3z"/>
		<path d="M433.7,337.4c-0.4-0.4-0.5-1.1-0.7-1.6c-1.6-3.5-3.2-7-4.8-10.5c0-0.1-0.4,0-0.6,0c-0.5,3.3-1,6.6-1.5,10.2
			c-5.9-3.1-6.5-4.2-5.2-9.5c-2.5,0.3-4.9,0.2-6.9,1c-1.3,0.5-2.1,2.4-3.2,3.8c-0.7-0.6-1.5-1.2-2.7-2.1c-2,2.5-3.9,5-5.9,7.4
			c-0.6,0.8-1.3,1.6-2.1,2c-1.4,0.8-3,1.1-4.4,1.9c-2.3,1.2-4.4,2.7-4.3,5.6c0.2,2.5,1.1,4.9,1.5,7.4c0.4,2.4,0.7,4.8,1.1,7.1
			c0.1,0.9,0,2.3,0.5,2.5c1,0.4,2.2,0.4,3.3,0.2c1.6-0.3,3.1-0.8,4.6-1.2c0.8-0.3,1.8-0.5,2.4-1c5.4-4,10.4-3.4,14.4,1.9
			c0.7-0.4,1.4-0.9,2.3-1.4c-0.1,1-0.4,1.8-0.1,2.3c0.9,1.5,2.3,2.8,3.1,4.3c1.2,2.2,4.2,3.2,6.3,1.9c0.7,0.5,1.4,1,1.8,1.4
			c1.5-1.1,2.8-2,3.6-2.5c1.5-3.3,3.1-6.2,4.2-9.3c0.7-2.1,1.3-4.6,1-6.8C440.9,346.4,438.1,341.5,433.7,337.4z"/>
	</g>
	<g>
		<rect x="180.9" y="180.2" class="st2" width="133.5" height="153"/>
		<rect x="176.3" y="204.6" class="st3" width="32.8" height="109.3"/>
		<g>
			<rect x="180.9" y="208.3" class="st4" width="4.5" height="102.9"/>
			<rect x="190.4" y="208.3" class="st4" width="4.5" height="102.9"/>
			<rect x="199.9" y="208.3" class="st4" width="4.5" height="102.9"/>
		</g>
		<path class="st5" d="M210.2,197.5L210.2,197.5l-34.1-0.1c-5.2,0-9.5,4.2-9.5,9.5c0,5.2,4.2,9.5,9.5,9.5c4,0,7.4-2.4,8.8-5.9h15.6
			c1.4,3.5,4.8,5.9,8.8,5.9c5.2,0,9.5-4.2,9.5-9.5C218.7,202,215,198,210.2,197.5z"/>
		<path class="st5" d="M209,317.3h-32.8c-2.3,0-4.2-1.9-4.2-4.2l0,0c0-2.3,1.9-4.2,4.2-4.2H209c2.3,0,4.2,1.9,4.2,4.2l0,0
			C213.3,315.4,211.4,317.3,209,317.3z"/>
		<rect x="236" y="204.6" class="st3" width="32.8" height="109.3"/>
		<g>
			<rect x="240.6" y="208.3" class="st4" width="4.5" height="102.9"/>
			<rect x="250.1" y="208.3" class="st4" width="4.5" height="102.9"/>
			<rect x="259.6" y="208.3" class="st4" width="4.5" height="102.9"/>
		</g>
		<path class="st5" d="M269.7,197.5L269.7,197.5l-34.1-0.1c-5.2,0-9.5,4.2-9.5,9.5c0,5.2,4.2,9.5,9.5,9.5c4,0,7.4-2.4,8.8-5.9h15.6
			c1.4,3.5,4.8,5.9,8.8,5.9c5.2,0,9.5-4.2,9.5-9.5C278.2,202,274.5,198,269.7,197.5z"/>
		<path class="st5" d="M268.8,317.3H236c-2.3,0-4.2-1.9-4.2-4.2l0,0c0-2.3,1.9-4.2,4.2-4.2h32.8c2.3,0,4.2,1.9,4.2,4.2l0,0
			C273,315.4,271.1,317.3,268.8,317.3z"/>
		<rect x="295.7" y="204.6" class="st3" width="32.8" height="109.3"/>
		<g>
			<rect x="300.3" y="208.3" class="st4" width="4.5" height="102.9"/>
			<rect x="309.9" y="208.3" class="st4" width="4.5" height="102.9"/>
			<rect x="319.4" y="208.3" class="st4" width="4.5" height="102.9"/>
		</g>
		<path class="st5" d="M329.7,197.5L329.7,197.5l-34.1-0.1c-5.2,0-9.5,4.2-9.5,9.5c0,5.2,4.2,9.5,9.5,9.5c4,0,7.4-2.4,8.8-5.9h15.6
			c1.4,3.5,4.8,5.9,8.8,5.9c5.2,0,9.5-4.2,9.5-9.5C338.1,202,334.4,198,329.7,197.5z"/>
		<path class="st5" d="M328.5,317.3h-32.8c-2.3,0-4.2-1.9-4.2-4.2l0,0c0-2.3,1.9-4.2,4.2-4.2h32.8c2.3,0,4.2,1.9,4.2,4.2l0,0
			C332.7,315.4,330.8,317.3,328.5,317.3z"/>
		<path class="st6" d="M248.7,134l-96,48.3c-2.8,1.4-4.6,4.3-4.6,7.4l0,0c0,4.5,3.7,8.2,8.2,8.2h192.2c4.5,0,8.2-3.7,8.2-8.2l0,0
			c0-3.1-1.8-6-4.6-7.4L256,134C253.7,132.8,251,132.8,248.7,134z"/>
		<path class="st6" d="M347.8,336.6H157v-6.5c0-7.3,5.9-13.2,13.2-13.2h164.4c7.3,0,13.2,5.9,13.2,13.2V336.6z"/>
		<path class="st2" d="M359.5,355.6H145.3V349c0-7.3,5.9-13.2,13.2-13.2h187.8c7.3,0,13.2,5.9,13.2,13.2V355.6z"/>
	</g>
	<path class="st6" d="M249.7,416.9c-1.8,0-3.7-0.1-5.6-0.2l0.1-1.1c1.8,0.1,3.7,0.2,5.5,0.2L249.7,416.9z M255.2,416.9l0-1.1
		c1.8,0,3.7-0.1,5.5-0.2l0.1,1.1C258.9,416.8,257.1,416.8,255.2,416.9z M238.6,416.3c-1.8-0.2-3.7-0.3-5.5-0.6l0.1-1.1
		c1.8,0.2,3.7,0.4,5.5,0.6L238.6,416.3z M266.3,416.3l-0.1-1.1c1.8-0.2,3.7-0.3,5.5-0.6l0.1,1.1C270,416,268.2,416.1,266.3,416.3z
		 M227.6,415c-1.8-0.3-3.7-0.6-5.5-0.9l0.2-1.1c1.8,0.3,3.6,0.7,5.4,0.9L227.6,415z M277.3,415l-0.2-1.1c1.8-0.3,3.6-0.6,5.4-0.9
		l0.2,1.1C281,414.4,279.2,414.7,277.3,415z M216.6,412.9c-1.8-0.4-3.6-0.9-5.4-1.3l0.3-1.1c1.8,0.5,3.6,0.9,5.4,1.3L216.6,412.9z
		 M288.2,412.9l-0.2-1.1c1.8-0.4,3.6-0.8,5.4-1.3l0.3,1.1C291.9,412,290,412.5,288.2,412.9z M205.9,410.1c-1.8-0.5-3.6-1.1-5.3-1.7
		l0.4-1.1c1.7,0.6,3.5,1.2,5.3,1.7L205.9,410.1z M299,410l-0.3-1.1c1.8-0.5,3.5-1.1,5.3-1.7l0.4,1.1
		C302.5,408.9,300.7,409.5,299,410z M195.4,406.5c-1.7-0.7-3.5-1.3-5.2-2.1l0.4-1c1.7,0.7,3.4,1.4,5.1,2L195.4,406.5z M309.5,406.5
		l-0.4-1c1.7-0.6,3.4-1.3,5.1-2l0.4,1C312.9,405.1,311.2,405.8,309.5,406.5z M185.1,402.2c-1.7-0.8-3.4-1.6-5-2.4l0.5-1
		c1.6,0.8,3.3,1.6,5,2.4L185.1,402.2z M319.7,402.2l-0.5-1c1.7-0.8,3.3-1.6,5-2.4l0.5,1C323.1,400.6,321.4,401.4,319.7,402.2z
		 M175.2,397.2c-1.6-0.9-3.2-1.8-4.8-2.8l0.6-1c1.6,0.9,3.2,1.9,4.8,2.7L175.2,397.2z M329.6,397.2l-0.5-1c1.6-0.9,3.2-1.8,4.8-2.7
		l0.6,1C332.8,395.4,331.2,396.3,329.6,397.2z M339.1,391.5l-0.6-0.9c1.5-1,3.1-2,4.6-3.1l0.6,0.9
		C342.2,389.5,340.7,390.5,339.1,391.5z M165.6,391.5c-1.6-1-3.1-2-4.6-3.1l0.6-0.9c1.5,1,3,2.1,4.6,3.1L165.6,391.5z M348.3,385.2
		l-0.7-0.9c1.5-1.1,2.9-2.2,4.4-3.4l0.7,0.9C351.2,383,349.7,384.1,348.3,385.2z M156.4,385.2c-1.5-1.1-3-2.2-4.4-3.4l0.7-0.9
		c1.4,1.1,2.9,2.3,4.4,3.4L156.4,385.2z M356.9,378.3l-0.7-0.8c1.4-1.2,2.8-2.4,4.1-3.7l0.8,0.8
		C359.7,375.9,358.3,377.1,356.9,378.3z M147.8,378.3c-1.4-1.2-2.8-2.4-4.2-3.7l0.8-0.8c1.3,1.2,2.7,2.5,4.1,3.7L147.8,378.3z
		 M365.1,370.8l-0.8-0.8c1.3-1.3,2.6-2.6,3.9-3.9l0.8,0.8C367.7,368.2,366.4,369.5,365.1,370.8z M139.6,370.8
		c-1.3-1.3-2.6-2.6-3.9-4l0.8-0.8c1.3,1.3,2.6,2.6,3.9,3.9L139.6,370.8z M372.8,362.7l-0.8-0.7c1.2-1.4,2.4-2.8,3.6-4.2l0.9,0.7
		C375.2,359.9,374,361.4,372.8,362.7z M131.9,362.7c-1.2-1.4-2.4-2.8-3.6-4.2l0.9-0.7c1.2,1.4,2.4,2.8,3.6,4.2L131.9,362.7z
		 M379.8,354.2l-0.9-0.7c1.1-1.4,2.2-2.9,3.3-4.4l0.9,0.6C382.1,351.2,381,352.7,379.8,354.2z M124.9,354.2c-1.1-1.5-2.2-3-3.3-4.5
		l0.9-0.6c1.1,1.5,2.2,3,3.3,4.4L124.9,354.2z M386.3,345.2l-0.9-0.6c1-1.5,2-3.1,3-4.6l0.9,0.6C388.4,342,387.4,343.6,386.3,345.2z
		 M118.4,345.1c-1-1.5-2-3.1-3-4.7l0.9-0.6c1,1.6,2,3.1,3,4.6L118.4,345.1z M112.6,335.7c-0.9-1.6-1.8-3.2-2.7-4.9l1-0.5
		c0.8,1.6,1.7,3.2,2.6,4.8L112.6,335.7z M392.2,335.7l-1-0.6c0.9-1.6,1.8-3.2,2.7-4.8l1,0.5C394,332.4,393.1,334.1,392.2,335.7z
		 M107.4,325.9c-0.8-1.7-1.6-3.3-2.3-5l1-0.4c0.7,1.7,1.5,3.3,2.3,5L107.4,325.9z M397.4,325.9l-1-0.5c0.8-1.7,1.6-3.3,2.3-5l1,0.4
		C398.9,322.5,398.2,324.2,397.4,325.9z M102.9,315.8c-0.7-1.7-1.3-3.5-2-5.2l1-0.4c0.6,1.7,1.3,3.5,2,5.2L102.9,315.8z
		 M401.8,315.7l-1-0.4c0.7-1.7,1.3-3.4,2-5.2l1,0.4C403.2,312.2,402.5,313.9,401.8,315.7z M99.2,305.3c-0.6-1.8-1.1-3.5-1.6-5.3
		l1.1-0.3c0.5,1.8,1,3.5,1.6,5.3L99.2,305.3z M405.6,305.2l-1.1-0.3c0.6-1.7,1.1-3.5,1.6-5.3l1.1,0.3
		C406.7,301.6,406.2,303.4,405.6,305.2z M96.1,294.6c-0.4-1.8-0.9-3.6-1.2-5.4L96,289c0.4,1.8,0.8,3.6,1.2,5.4L96.1,294.6z
		 M408.6,294.5l-1.1-0.3c0.4-1.8,0.8-3.6,1.2-5.4l1.1,0.2C409.5,290.9,409.1,292.7,408.6,294.5z M93.9,283.8
		c-0.3-1.8-0.6-3.7-0.9-5.5l1.1-0.2c0.3,1.8,0.5,3.6,0.9,5.4L93.9,283.8z M410.9,283.6l-1.1-0.2c0.3-1.8,0.6-3.6,0.8-5.4l1.1,0.2
		C411.5,280,411.2,281.8,410.9,283.6z M92.3,272.8c-0.2-1.8-0.4-3.7-0.5-5.5l1.1-0.1c0.1,1.8,0.3,3.7,0.5,5.5L92.3,272.8z
		 M412.4,272.6l-1.1-0.1c0.2-1.8,0.3-3.7,0.5-5.5l1.1,0.1C412.8,268.9,412.6,270.8,412.4,272.6z M91.6,261.7
		c-0.1-1.8-0.1-3.7-0.1-5.6l1.1,0c0,1.8,0,3.7,0.1,5.5L91.6,261.7z M413.2,261.5l-1.1,0c0.1-1.8,0.1-3.7,0.1-5.5v-0.3h1.1v0.3
		C413.3,257.8,413.2,259.7,413.2,261.5z M92.7,250.6l-1.1,0c0.1-1.8,0.2-3.7,0.3-5.5l1.1,0.1C92.8,246.9,92.7,248.8,92.7,250.6z
		 M412.1,250.2c-0.1-1.8-0.2-3.7-0.3-5.5l1.1-0.1c0.1,1.8,0.2,3.7,0.3,5.5L412.1,250.2z M93.4,239.6l-1.1-0.1
		c0.2-1.8,0.4-3.7,0.7-5.5l1.1,0.2C93.8,236,93.6,237.8,93.4,239.6z M411.3,239.2c-0.2-1.8-0.4-3.7-0.7-5.5l1.1-0.2
		c0.3,1.8,0.5,3.7,0.7,5.5L411.3,239.2z M94.9,228.7l-1.1-0.2c0.3-1.8,0.7-3.7,1-5.5l1.1,0.2C95.6,225.1,95.2,226.9,94.9,228.7z
		 M409.8,228.3c-0.3-1.8-0.7-3.6-1-5.4l1.1-0.2c0.4,1.8,0.7,3.6,1.1,5.5L409.8,228.3z M97.1,217.9l-1.1-0.3c0.4-1.8,0.9-3.6,1.4-5.4
		l1.1,0.3C98.1,214.3,97.6,216.1,97.1,217.9z M407.5,217.5c-0.4-1.8-0.9-3.6-1.4-5.3l1.1-0.3c0.5,1.8,1,3.6,1.4,5.4L407.5,217.5z
		 M100.1,207.3l-1.1-0.3c0.6-1.8,1.2-3.5,1.8-5.3l1,0.4C101.3,203.8,100.7,205.5,100.1,207.3z M404.5,206.9
		c-0.6-1.7-1.2-3.5-1.8-5.2l1-0.4c0.6,1.7,1.2,3.5,1.8,5.3L404.5,206.9z M103.9,196.9l-1-0.4c0.7-1.7,1.4-3.4,2.2-5.1l1,0.4
		C105.3,193.5,104.5,195.2,103.9,196.9z M400.7,196.5c-0.7-1.7-1.4-3.4-2.1-5.1l1-0.5c0.7,1.7,1.5,3.4,2.2,5.1L400.7,196.5z
		 M108.3,186.8l-1-0.5c0.8-1.7,1.6-3.3,2.5-5l1,0.5C109.9,183.4,109.1,185.1,108.3,186.8z M396.3,186.4c-0.8-1.6-1.6-3.3-2.5-4.9
		l1-0.5c0.9,1.6,1.7,3.3,2.5,4.9L396.3,186.4z M113.5,177l-1-0.6c0.9-1.6,1.9-3.2,2.8-4.8l0.9,0.6
		C115.3,173.8,114.4,175.4,113.5,177z M391.1,176.7c-0.9-1.6-1.9-3.2-2.8-4.7l0.9-0.6c1,1.6,1.9,3.2,2.8,4.8L391.1,176.7z
		 M119.3,167.6l-0.9-0.6c1-1.5,2.1-3.1,3.2-4.6l0.9,0.6C121.3,164.5,120.3,166.1,119.3,167.6z M385.3,167.4c-1-1.5-2.1-3-3.1-4.5
		l0.9-0.6c1.1,1.5,2.1,3,3.2,4.6L385.3,167.4z M125.7,158.6l-0.9-0.7c1.1-1.5,2.3-2.9,3.5-4.3l0.9,0.7
		C128,155.7,126.8,157.2,125.7,158.6z M378.9,158.4c-1.1-1.4-2.3-2.9-3.4-4.3l0.9-0.7c1.2,1.4,2.3,2.9,3.5,4.3L378.9,158.4z
		 M132.7,150.1l-0.8-0.7c1.2-1.4,2.5-2.8,3.8-4.1l0.8,0.8C135.2,147.4,133.9,148.7,132.7,150.1z M371.9,149.9
		c-1.2-1.4-2.5-2.7-3.7-4.1l0.8-0.8c1.3,1.3,2.5,2.7,3.8,4.1L371.9,149.9z M140.3,142.1l-0.8-0.8c1.3-1.3,2.7-2.6,4-3.8l0.8,0.8
		C142.9,139.5,141.6,140.8,140.3,142.1z M364.3,141.9c-1.3-1.3-2.7-2.6-4-3.8l0.8-0.8c1.4,1.2,2.7,2.5,4,3.8L364.3,141.9z
		 M148.4,134.6l-0.7-0.8c1.4-1.2,2.8-2.4,4.3-3.5l0.7,0.9C151.2,132.3,149.8,133.4,148.4,134.6z M356.1,134.5
		c-1.4-1.2-2.8-2.4-4.3-3.5l0.7-0.9c1.4,1.1,2.9,2.3,4.3,3.5L356.1,134.5z M157,127.8l-0.7-0.9c1.5-1.1,3-2.2,4.5-3.2l0.6,0.9
		C160,125.6,158.5,126.7,157,127.8z M347.5,127.6c-1.5-1.1-3-2.2-4.5-3.2l0.6-0.9c1.5,1,3,2.1,4.5,3.2L347.5,127.6z M166.1,121.5
		l-0.6-0.9c1.5-1,3.1-2,4.7-2.9l0.6,1C169.2,119.5,167.6,120.5,166.1,121.5z M338.4,121.3c-1.5-1-3.1-2-4.7-2.9l0.6-1
		c1.6,0.9,3.2,1.9,4.7,2.9L338.4,121.3z M175.5,115.8l-0.5-1c1.6-0.9,3.3-1.8,4.9-2.6l0.5,1C178.8,114.1,177.1,115,175.5,115.8z
		 M328.9,115.7c-1.6-0.9-3.3-1.7-4.9-2.6l0.5-1c1.6,0.8,3.3,1.7,4.9,2.6L328.9,115.7z M185.4,110.9l-0.5-1c1.7-0.8,3.4-1.5,5.1-2.2
		l0.4,1C188.7,109.4,187,110.1,185.4,110.9z M319,110.7c-1.7-0.8-3.4-1.5-5.1-2.2l0.4-1c1.7,0.7,3.4,1.5,5.1,2.2L319,110.7z
		 M195.5,106.6l-0.4-1c1.7-0.7,3.5-1.3,5.2-1.9l0.4,1.1C199,105.3,197.2,106,195.5,106.6z M308.8,106.5c-1.7-0.6-3.5-1.3-5.2-1.9
		l0.4-1.1c1.8,0.6,3.5,1.2,5.2,1.9L308.8,106.5z M205.9,103.1l-0.3-1.1c1.8-0.5,3.6-1,5.3-1.5l0.3,1.1
		C209.5,102,207.7,102.5,205.9,103.1z M298.4,102.9c-1.8-0.5-3.5-1-5.3-1.5l0.3-1.1c1.8,0.5,3.6,1,5.3,1.5L298.4,102.9z
		 M216.6,100.2l-0.2-1.1c1.8-0.4,3.6-0.8,5.4-1.1l0.2,1.1C220.2,99.4,218.4,99.8,216.6,100.2z M287.7,100.1
		c-1.8-0.4-3.6-0.8-5.4-1.1l0.2-1.1c1.8,0.3,3.6,0.7,5.4,1.1L287.7,100.1z M227.4,98.1l-0.2-1.1c1.8-0.3,3.7-0.5,5.5-0.8l0.1,1.1
		C231.1,97.6,229.2,97.9,227.4,98.1z M276.9,98.1c-1.8-0.3-3.6-0.5-5.5-0.7l0.1-1.1c1.8,0.2,3.7,0.5,5.5,0.7L276.9,98.1z
		 M238.4,96.8l-0.1-1.1c1.8-0.2,3.7-0.3,5.5-0.4l0.1,1.1C242,96.5,240.2,96.7,238.4,96.8z M265.9,96.8c-1.8-0.2-3.7-0.3-5.5-0.4
		l0.1-1.1c1.8,0.1,3.7,0.2,5.5,0.4L265.9,96.8z M249.4,96.2l0-1.1c1.8,0,3.7,0,5.6,0l0,1.1C253.1,96.2,251.2,96.2,249.4,96.2z"/>
	<path class="st7" d="M148.1,208.3l-13.3-19.1c5.5-5.8,8.8-13.6,8.8-22.2c0-17.9-14.5-32.4-32.4-32.4c-17.9,0-32.4,14.5-32.4,32.4
		s14.5,32.4,32.4,32.4c4.7,0,9.2-1,13.2-2.8L148.1,208.3z"/>
	<path class="st7" d="M354.9,261.5l17.8-15c-3.8-7-5-15.4-2.7-23.8c4.7-17.3,22.4-27.5,39.7-22.8c17.3,4.7,27.5,22.4,22.8,39.7
		c-4.7,17.3-22.4,27.5-39.7,22.8c-4.5-1.2-8.6-3.4-12-6.1L354.9,261.5z"/>
	<path class="st7" d="M139.7,291.2l-17.1,15.9c4.1,6.8,5.7,15.2,3.9,23.6c-3.8,17.5-21,28.5-38.5,24.7c-17.5-3.8-28.5-21-24.7-38.5
		c3.8-17.5,21-28.5,38.5-24.7c4.6,1,8.7,2.9,12.3,5.5L139.7,291.2z"/>
	<path class="st3" d="M109.5,181.4c-3.1-0.1-6.2-0.8-9.1-2.1v-7.1c1.7,0.8,3.5,1.6,5.4,2.1c1.9,0.6,3.7,0.8,5.1,0.8
		c1.2,0,2.1-0.1,2.7-0.4c0.6-0.3,0.8-0.8,0.8-1.5c0-0.5-0.2-0.9-0.6-1.2c-0.4-0.3-1.1-0.7-2-1.1c-1-0.4-2.2-0.9-3.9-1.5
		c-1.8-0.7-3.3-1.4-4.4-2.3c-1.1-0.8-1.9-1.8-2.4-2.8c-0.5-1-0.8-2.3-0.8-3.9c0-2.4,0.8-4.2,2.3-5.5c1.5-1.3,3.8-2.2,6.8-2.5v-4.8
		h4.5v4.7c2.9,0.2,5.7,0.9,8.6,2.1l-2.6,6.1c-3-1.3-5.7-2-8.1-2c-1.1,0-2,0.1-2.4,0.4c-0.5,0.3-0.7,0.7-0.7,1.2
		c0,0.5,0.2,0.9,0.5,1.2c0.3,0.3,0.9,0.7,1.8,1c0.8,0.4,2,0.8,3.5,1.3c3,1.1,5.1,2.3,6.5,3.6c1.3,1.4,2,3.1,2,5.2
		c0,2.4-0.8,4.4-2.3,5.9c-1.5,1.5-3.8,2.4-6.7,2.8v5.8h-4.5V181.4z"/>
	<path class="st3" d="M394.9,222.4c1-1.2,1.8-2.1,2.6-3.1c1.4,0.9,2.8,1.9,4.2,2.8c4.8,3.1,9.9,5.5,15.6,6.6c1.7,0.4,3-0.3,3.3-1.7
		c0.3-1.3-0.6-2.4-2.3-2.8c-6.6-1.4-12.3-4.7-17.8-8.6c0.8-1,1.7-2,2.6-3.2c-4.3-0.7-8.5-1.4-12.8-2.2
		C391.9,214.4,393.4,218.3,394.9,222.4z"/>
	<path class="st3" d="M383.4,234.8c0,3.2,0,6.5,0,9.7c0,2.3,0.8,3.1,3.1,3.1c0.5,0,1,0,1.5,0c1.5-0.1,2.5-0.9,2.5-2.5
		c0-6.9,0-13.8,0-20.6c0-1.6-0.9-2.4-2.5-2.5c-0.6,0-1.2,0-1.7,0c-1.9,0.1-2.7,0.9-2.8,2.8C383.4,228.1,383.4,231.4,383.4,234.8z"/>
	<path class="st3" d="M392.7,237.2c0,2.5,0,5,0,7.6c0,2,0.9,2.8,2.8,2.9c0.6,0,1.2,0,1.7,0c1.5-0.1,2.4-0.9,2.4-2.4
		c0-5.4,0-10.8,0-16.1c0-1.5-0.9-2.3-2.4-2.4c-0.6,0-1.3,0-1.9,0c-1.8,0.1-2.7,0.9-2.7,2.7C392.7,231.9,392.7,234.6,392.7,237.2z"/>
	<path class="st3" d="M409,239.4c0-1.8,0-3.6,0-5.4c0-1.8-0.9-2.7-2.7-2.7c-0.6,0-1.3,0-1.9,0c-1.5,0.1-2.4,0.9-2.4,2.4
		c-0.1,3.8-0.1,7.6,0,11.5c0,1.5,0.9,2.3,2.4,2.4c0.7,0,1.4,0,2,0c1.6-0.1,2.5-0.9,2.5-2.6C409.1,243.1,409,241.2,409,239.4z"/>
	<path class="st3" d="M418.3,241.7c0-1.1,0-2.1,0-3.2c-0.1-1.6-0.9-2.5-2.6-2.5c-0.6,0-1.3,0-1.9,0c-1.6,0.1-2.5,0.9-2.5,2.4
		c-0.1,2.3-0.1,4.5,0,6.8c0,1.5,0.9,2.3,2.4,2.4c0.7,0,1.5,0,2.2,0c1.5-0.1,2.3-0.9,2.4-2.4C418.4,244,418.3,242.8,418.3,241.7z"/>
	<path class="st3" d="M97.8,341.1c-5.5,1.7-13.3-1.2-17.3-6.5c-4.6-6.1-5-14.3-0.8-20.7c4.1-6.2,11.7-9.4,18.8-7.7
		c-0.1,0.5-0.3,1-0.4,1.4c-1.4,4.7-2.8,9.5-4,14.2c-0.3,1.1-0.3,2.4,0,3.5c1.1,4.8,2.3,9.5,3.5,14.2
		C97.6,340.1,97.7,340.6,97.8,341.1z"/>
	<path class="st3" d="M100,340.7c-1.3-5.2-2.5-10.2-3.8-15.3c5.1,1.5,10.1,2.9,15.2,4.4C109.4,335.2,105.6,338.7,100,340.7z"/>
	<path class="st3" d="M100.7,306.9c8.1,2.4,13.5,12.1,11.4,20.5c-5.3-1.5-10.6-3-16-4.6C97.6,317.5,99.1,312.2,100.7,306.9z"/>
</g>
</svg>
