<?xml version="1.0" encoding="UTF-8" standalone="no"?>
<svg
   xmlns:dc="http://purl.org/dc/elements/1.1/"
   xmlns:cc="http://creativecommons.org/ns#"
   xmlns:rdf="http://www.w3.org/1999/02/22-rdf-syntax-ns#"
   xmlns:svg="http://www.w3.org/2000/svg"
   xmlns="http://www.w3.org/2000/svg"
   viewBox="0 0 666.66669 666.66669"
   height="666.66669"
   width="666.66669"
   xml:space="preserve"
   id="svg2"
   version="1.1"><metadata
     id="metadata8"><rdf:RDF><cc:Work
         rdf:about=""><dc:format>image/svg+xml</dc:format><dc:type
           rdf:resource="http://purl.org/dc/dcmitype/StillImage" /></cc:Work></rdf:RDF></metadata><defs
     id="defs6"><clipPath
       id="clipPath20"
       clipPathUnits="userSpaceOnUse"><path
         id="path18"
         d="M 0,500 H 500 V 0 H 0 Z" /></clipPath><clipPath
       id="clipPath58"
       clipPathUnits="userSpaceOnUse"><path
         id="path56"
         d="M 244.281,223.564 H 337.37 V 136.742 H 244.281 Z" /></clipPath></defs><g
     transform="matrix(1.3333333,0,0,-1.3333333,0,666.66667)"
     id="g10"><path
       id="path12"
       style="fill:#ffffff;fill-opacity:1;fill-rule:nonzero;stroke:none"
       d="M 1,0 H 500 V 499 H 1 Z" /><g
       id="g14"><g
         clip-path="url(#clipPath20)"
         id="g16"><g
           transform="translate(408,249)"
           id="g22"><path
             id="path24"
             style="fill:#40b7ad;fill-opacity:1;fill-rule:nonzero;stroke:none"
             d="m 0,0 c 0,-86.709 -70.291,-157 -157,-157 -86.708,0 -157,70.291 -157,157 0,86.708 70.292,157 157,157 C -70.291,157 0,86.708 0,0" /></g><g
           transform="translate(343.001,211.1162)"
           id="g26"><path
             id="path28"
             style="fill:#36968b;fill-opacity:1;fill-rule:nonzero;stroke:none"
             d="m 0,0 -0.217,0.217 v 0.001 l -3.439,3.439 -1.791,1.791 -5.231,5.23 c -0.976,0.976 -2.264,1.462 -3.551,1.457 v 106.413 h -125.108 -32.436 V -70.504 h 32.436 52.104 l -1.466,-5.471 -3.274,-3.273 c -0.364,-0.364 -0.364,-0.961 0,-1.325 l 0.252,-0.252 0.293,-0.293 c 0.342,-0.342 0.903,-0.342 1.244,0 l 3.315,3.314 21.449,5.747 -0.07,0.072 c 0.076,0.042 0.141,0.105 0.215,0.155 0.029,0.018 0.056,0.042 0.086,0.062 0.07,0.053 0.148,0.09 0.211,0.154 l 1.111,1.11 h 49.638 v 49.638 l 0.016,0.016 13.996,13.996 0.001,0.001 L 0,-6.637 C 1.825,-4.812 1.825,-1.825 0,0" /></g><path
           id="path30"
           style="fill:#897e75;fill-opacity:1;fill-rule:nonzero;stroke:none"
           d="m 196.664,147.612 h -32.436 v 189.052 h 32.436 z" /><path
           id="path32"
           style="fill:#dfcec2;fill-opacity:1;fill-rule:nonzero;stroke:none"
           d="M 321.771,147.612 H 196.664 v 189.052 h 125.107 z" /><path
           id="path34"
           style="fill:#beaca0;fill-opacity:1;fill-rule:nonzero;stroke:none"
           d="m 296.531,274.084 h -70.224 v 31.658 h 70.224 z" /><g
           transform="translate(267.7314,146.6064)"
           id="g36"><path
             id="path38"
             style="fill:#f0bf5f;fill-opacity:1;fill-rule:nonzero;stroke:none"
             d="m 0,0 -14.135,14.135 c -0.934,0.934 -0.934,2.463 0,3.397 L 36.524,68.191 54.057,50.66 3.396,0 C 2.463,-0.934 0.934,-0.934 0,0" /></g><g
           transform="translate(246.6328,139.6426)"
           id="g40"><path
             id="path42"
             style="fill:#dfcec2;fill-opacity:1;fill-rule:nonzero;stroke:none"
             d="M 0,0 23.948,6.417 6.417,23.949 Z" /></g><g
           transform="translate(321.7881,197.2666)"
           id="g44"><path
             id="path46"
             style="fill:#f05e4f;fill-opacity:1;fill-rule:nonzero;stroke:none"
             d="m 0,0 -17.532,17.531 13.996,13.996 c 1.945,1.946 5.127,1.946 7.071,0 l 10.461,-10.46 c 1.944,-1.944 1.944,-5.127 0,-7.071 z" /></g><g
           transform="translate(244.5327,137.0391)"
           id="g48"><path
             id="path50"
             style="fill:#736e69;fill-opacity:1;fill-rule:nonzero;stroke:none"
             d="m 0,0 -0.504,0.504 c -0.365,0.364 -0.365,0.961 0,1.325 l 4.489,4.489 c 0.365,0.365 0.961,0.365 1.326,0 L 5.814,5.814 c 0.365,-0.364 0.365,-0.96 0,-1.325 L 1.325,0 C 0.96,-0.364 0.364,-0.364 0,0" /></g><g
           id="g52"><g
             id="g54" /><g
             id="g66"><g
               style="opacity:0.19999701"
               id="g64"
               clip-path="url(#clipPath58)"><g
                 id="g62"
                 transform="translate(336.001,218.1162)"><path
                   id="path60"
                   style="fill:#736e69;fill-opacity:1;fill-rule:nonzero;stroke:none"
                   d="m 0,0 -5.447,5.448 -86.273,-86.273 0.292,-0.293 c 0.343,-0.342 0.902,-0.342 1.244,0 l 3.315,3.314 21.449,5.747 -0.07,0.072 c 0.182,0.099 0.358,0.216 0.512,0.371 L -14.213,-20.85 0,-6.637 C 1.825,-4.812 1.825,-1.825 0,0" /></g></g></g></g><path
           id="path68"
           style="fill:#897e75;fill-opacity:1;fill-rule:nonzero;stroke:none"
           d="m 292.214,297.108 h -58.999 v 2.302 h 58.999 z" /><path
           id="path70"
           style="fill:#897e75;fill-opacity:1;fill-rule:nonzero;stroke:none"
           d="m 292.214,288.762 h -58.999 v 2.302 h 58.999 z" /><path
           id="path72"
           style="fill:#897e75;fill-opacity:1;fill-rule:nonzero;stroke:none"
           d="m 292.214,280.416 h -58.999 v 2.302 h 58.999 z" /></g></g></g></svg>