<?xml version="1.0" encoding="utf-8"?>
<!-- Generator: Adobe Illustrator 22.1.0, SVG Export Plug-In . SVG Version: 6.00 Build 0)  -->
<svg version="1.1" id="Layer_1" xmlns="http://www.w3.org/2000/svg" xmlns:xlink="http://www.w3.org/1999/xlink" x="0px" y="0px"
	 viewBox="0 0 500 500" style="enable-background:new 0 0 500 500;" xml:space="preserve">
<style type="text/css">
	.st0{fill:#1FAAAA;}
	.st1{fill-rule:evenodd;clip-rule:evenodd;fill:#2C2C2C;}
	.st2{fill-rule:evenodd;clip-rule:evenodd;fill:#4D4D4D;}
	.st3{fill-rule:evenodd;clip-rule:evenodd;fill:#F0F0F0;}
	.st4{fill-rule:evenodd;clip-rule:evenodd;fill:#E0E0E0;}
	.st5{fill-rule:evenodd;clip-rule:evenodd;fill:#2B2B2B;}
	.st6{fill-rule:evenodd;clip-rule:evenodd;fill:#FFFFFF;}
	.st7{fill-rule:evenodd;clip-rule:evenodd;fill:#DEBA9B;}
	.st8{fill-rule:evenodd;clip-rule:evenodd;fill:#F7CFAC;}
	.st9{fill-rule:evenodd;clip-rule:evenodd;fill:#333333;}
	.st10{fill-rule:evenodd;clip-rule:evenodd;fill:#FF0000;}
	.st11{fill-rule:evenodd;clip-rule:evenodd;fill:#1A9347;}
	.st12{fill-rule:evenodd;clip-rule:evenodd;fill:#1AB64D;}
	.st13{fill-rule:evenodd;clip-rule:evenodd;fill:#DEDE3C;}
	.st14{fill-rule:evenodd;clip-rule:evenodd;fill:#56DE3C;}
	.st15{fill-rule:evenodd;clip-rule:evenodd;fill:#5656C4;}
	.st16{fill:#5AC75A;}
	.st17{fill:#FFC012;}
	.st18{fill:#FFDC00;}
	.st19{fill-rule:evenodd;clip-rule:evenodd;fill:#EF5160;}
	.st20{fill-rule:evenodd;clip-rule:evenodd;fill:#FFCF00;}
</style>
<rect x="0.3" class="st0" width="500" height="500"/>
<g id="Bussines_Learning_2_">
	<g id="Projector">
		<path class="st1" d="M278.6,338.8L278.6,338.8c2,0,3.5,1.6,3.5,3.5v22.3c0.1,0.1,0.1,0.2,0.2,0.3l22.9,39.6c0.7,1.2,0.3,2.8-1,3.5
			l0,0c-1.2,0.7-2.8,0.3-3.5-0.9L282.2,375v29.9c0,2-1.6,3.5-3.5,3.5l0,0c-2,0-3.6-1.6-3.6-3.5V375l-18.5,32.1
			c-0.7,1.2-2.3,1.7-3.5,0.9l0,0c-1.2-0.7-1.7-2.3-1-3.5l22.9-39.6c0.1-0.1,0.1-0.2,0.2-0.3v-22.3
			C275.1,340.4,276.7,338.8,278.6,338.8L278.6,338.8z"/>
		<path class="st2" d="M158.6,175.4h240.1c6.4,0,11.7,5.3,11.7,11.7v154.1c0,6.4-5.2,11.7-11.7,11.7H158.6
			c-6.4,0-11.7-5.3-11.7-11.7V187.1C146.9,180.7,152.1,175.4,158.6,175.4L158.6,175.4z"/>
		<path class="st3" d="M161.9,182.3h233.4c4.5,0,8.1,3.6,8.1,8.1v147.4c0,4.5-3.6,8.1-8.1,8.1H161.9c-4.5,0-8.1-3.6-8.1-8.1V190.4
			C153.8,186,157.4,182.3,161.9,182.3L161.9,182.3z"/>
		<path class="st4" d="M161.9,182.3h233.4c4.5,0,8.1,3.6,8.1,8.1v79H153.8v-79C153.8,186,157.4,182.3,161.9,182.3L161.9,182.3z"/>
	</g>
	<g id="Man">
		<path class="st5" d="M93.9,321.6h39.8c14.6,0,26.5,11.9,26.5,26.5v56.7H67.3v-56.7C67.3,333.5,79.3,321.6,93.9,321.6L93.9,321.6z"
			/>
		<path class="st6" d="M98.1,321.7l15.6,58.8l15.6-58.8C118.9,321.6,108.6,321.6,98.1,321.7L98.1,321.7z"/>
		<path class="st7" d="M108.7,303h10.1c3.3,0,6,2.7,6,6v12.9c0,3.3-2.7,6-6,6h-10.1c-3.3,0-6-2.7-6-6V309
			C102.7,305.7,105.4,303,108.7,303L108.7,303z"/>
		<path class="st8" d="M115.2,202.3c29.5,0,53.6,23.1,55.2,52.2c3.8,1.3,6.5,4.7,6.5,8.7c0,4.6-3.6,8.4-8.4,9.2
			c-6.4,23.4-27.9,40.6-53.3,40.6c-25.4,0-46.8-17.2-53.3-40.5c-0.4,0.1-0.8,0.1-1.2,0.1c-5.6,0-10.1-4.2-10.1-9.3
			c0-4.9,4.2-8.9,9.4-9.3C61.9,225.1,85.9,202.3,115.2,202.3L115.2,202.3z"/>
		<path class="st9" d="M73.3,174C44.8,210.3,54,250.4,62.2,278.1c4.2-38.4,46.1-32.2,68.9-48.9c17.4,2.6,24.7,28.9,36,42.6
			c2.9-25.4,15.3-42.3,5.2-65.6c-14.1-32.3-40.1-10.5-84.1-45.9c0.6,4.2,1.1,8.5,1.7,12.7c-4.4-2.5-10-5.9-16.5-15.4
			C71.1,168,72.2,171.6,73.3,174L73.3,174z"/>
		<polygon class="st10" points="113.7,380.5 109.7,365.3 105.7,334.9 112.7,327.9 113.7,327.9 114.7,327.9 121.8,334.9 117.8,365.3
					"/>
	</g>
	<g id="Gears">
		<path class="st11" d="M178.1,132.5c1.7,0.2,3.3,0.6,4.8,1.2h0c0.2,0.1,0.3,0.1,0.5,0.2l0.1,0c0.1,0,0.2,0.1,0.4,0.2l0.2,0.1
			c0.1,0,0.2,0.1,0.3,0.1l0.3,0.1l0.2,0.1c0.1,0.1,0.2,0.1,0.3,0.2l0.1,0c0.1,0.1,0.3,0.1,0.4,0.2l0.1,0c1.5,0.7,2.9,1.6,4.2,2.6
			l3.4-3.4l5.4,5.4l-3.4,3.4c1,1.4,1.9,2.8,2.6,4.2l0,0.1c0.1,0.1,0.1,0.3,0.2,0.4l0.1,0.1c0.1,0.1,0.1,0.2,0.2,0.4l0.1,0.2
			c0,0.1,0.1,0.2,0.1,0.3c0.1,0.1,0.1,0.2,0.2,0.3l0,0.2c0.1,0.1,0.1,0.3,0.2,0.4v0c0.1,0.2,0.1,0.3,0.2,0.5l0,0
			c0.5,1.6,1,3.2,1.2,4.8h4.8v7.7h-4.8c-0.2,1.7-0.7,3.3-1.2,4.8v0c-0.1,0.2-0.1,0.3-0.2,0.5l-0.1,0.1c0,0.1-0.1,0.2-0.1,0.4
			l-0.1,0.2c0,0.1-0.1,0.2-0.1,0.3c-0.1,0.1-0.1,0.2-0.1,0.3l-0.1,0.2c-0.1,0.1-0.1,0.2-0.2,0.4l-0.1,0.1c-0.1,0.2-0.1,0.3-0.2,0.5
			l0,0c-0.7,1.5-1.6,2.9-2.6,4.2l3.4,3.4l-5.4,5.4l-3.4-3.4c-1.4,1-2.8,1.9-4.3,2.6l0,0c-0.2,0.1-0.3,0.1-0.4,0.2l-0.1,0
			c-0.1,0.1-0.2,0.1-0.4,0.2l-0.2,0.1c-0.1,0-0.2,0.1-0.3,0.1c-0.1,0-0.2,0.1-0.2,0.1c-0.1,0-0.2,0.1-0.2,0.1
			c-0.1,0.1-0.2,0.1-0.3,0.1l-0.2,0.1c-0.1,0.1-0.3,0.1-0.4,0.2l0,0c-1.6,0.5-3.2,0.9-4.8,1.2v4.8h-7.6v-4.8
			c-1.7-0.2-3.3-0.6-4.8-1.2l0,0c-0.2-0.1-0.3-0.1-0.5-0.2l-0.1,0c-0.1-0.1-0.2-0.1-0.4-0.2l-0.2-0.1c-0.1-0.1-0.2-0.1-0.3-0.1
			l-0.3-0.1l-0.2-0.1c-0.1,0-0.2-0.1-0.3-0.2l-0.1,0c-0.1-0.1-0.3-0.2-0.4-0.2l-0.1,0c-1.5-0.7-2.9-1.6-4.2-2.6l-3.4,3.4l-5.4-5.4
			l3.4-3.4c-1-1.3-1.9-2.8-2.6-4.2l0,0c-0.1-0.2-0.1-0.3-0.2-0.4l-0.1-0.1c-0.1-0.1-0.1-0.2-0.2-0.4l-0.1-0.2c0-0.1-0.1-0.2-0.1-0.2
			c-0.1-0.1-0.1-0.2-0.2-0.3l0-0.1c-0.1-0.2-0.1-0.3-0.2-0.4v-0.1c-0.1-0.2-0.1-0.3-0.2-0.5v0c-0.5-1.5-1-3.2-1.2-4.8h-4.8v-7.7h4.8
			c0.2-1.7,0.7-3.3,1.2-4.8v0c0.1-0.1,0.1-0.3,0.2-0.4l0.1-0.1c0-0.1,0.1-0.2,0.1-0.4l0.1-0.2c0-0.1,0.1-0.2,0.1-0.3
			c0.1-0.1,0.1-0.2,0.1-0.3l0.1-0.2c0.1-0.1,0.1-0.2,0.2-0.4l0.1-0.1c0.1-0.2,0.1-0.3,0.2-0.5l0,0c0.7-1.5,1.6-2.9,2.6-4.3l-3.4-3.4
			l5.4-5.4l3.4,3.4c1.4-1,2.8-1.9,4.3-2.6l0,0c0.2-0.1,0.3-0.2,0.4-0.2l0.1,0c0.1-0.1,0.2-0.1,0.4-0.2l0.2-0.1
			c0.1-0.1,0.2-0.1,0.3-0.1c0.1,0,0.2-0.1,0.2-0.1c0.1,0,0.2-0.1,0.2-0.1c0.1,0,0.2-0.1,0.3-0.1l0.2,0c0.1-0.1,0.3-0.1,0.4-0.2l0,0
			c1.6-0.5,3.2-0.9,4.8-1.2v-4.8h7.6V132.5z M174.3,150.2c4.6,0,8.3,3.7,8.3,8.3c0,4.6-3.7,8.3-8.3,8.3c-4.5,0-8.3-3.7-8.3-8.3
			C166,153.9,169.7,150.2,174.3,150.2L174.3,150.2z M174.3,143.6c8.2,0,14.9,6.6,14.9,14.8c0,8.2-6.7,14.8-14.9,14.8
			c-8.2,0-14.8-6.7-14.8-14.8C159.4,150.3,166.1,143.6,174.3,143.6L174.3,143.6z"/>
		<path class="st12" d="M253.7,151.9c1.8,0.8,3.6,1.7,5.2,2.8l0,0c0.2,0.1,0.3,0.2,0.5,0.3l0.1,0.1c0.2,0.1,0.3,0.2,0.4,0.3l0.2,0.2
			c0.1,0.1,0.2,0.1,0.3,0.2l0.3,0.2l0.2,0.2c0.1,0.1,0.2,0.2,0.4,0.3l0.1,0.1c0.2,0.1,0.3,0.2,0.4,0.4l0,0c1.5,1.3,2.8,2.7,4.1,4.2
			l4.9-2.8l4.5,7.8l-4.9,2.8c0.8,1.9,1.3,3.7,1.7,5.7v0.1c0,0.2,0.1,0.3,0.1,0.5l0,0.1c0,0.2,0.1,0.3,0.1,0.5l0.1,0.2
			c0,0.1,0,0.2,0,0.3c0,0.2,0,0.3,0.1,0.4v0.2c0,0.2,0.1,0.4,0.1,0.5v0.1c0,0.2,0,0.4,0.1,0.6v0c0.2,2,0.1,3.9-0.1,5.9l5.5,1.5
			l-2.3,8.7l-5.5-1.5c-0.8,1.8-1.7,3.6-2.8,5.2v0c-0.1,0.2-0.2,0.3-0.3,0.5l-0.1,0.1c-0.1,0.1-0.2,0.2-0.3,0.4l-0.2,0.2
			c-0.1,0.1-0.2,0.2-0.2,0.3c-0.1,0.1-0.2,0.2-0.2,0.3l-0.1,0.2c-0.1,0.1-0.2,0.2-0.3,0.4l-0.1,0.1c-0.1,0.2-0.3,0.3-0.4,0.5l0,0
			c-1.3,1.5-2.7,2.8-4.2,4.1l2.8,4.9l-7.8,4.5l-2.9-4.9c-1.8,0.8-3.7,1.3-5.7,1.7l0,0c-0.2,0-0.4,0.1-0.6,0.1l-0.1,0
			c-0.2,0-0.3,0.1-0.5,0.1l-0.2,0c-0.1,0-0.3,0-0.4,0c-0.1,0-0.2,0-0.3,0.1c-0.1,0-0.2,0-0.3,0c-0.1,0-0.3,0-0.4,0l-0.2,0
			c-0.2,0-0.3,0-0.5,0h-0.1c-1.9,0.2-3.9,0.1-5.9-0.1l-1.5,5.5l-8.7-2.3l1.5-5.5c-1.8-0.8-3.6-1.7-5.1-2.9h-0.1
			c-0.2-0.1-0.3-0.2-0.5-0.3l-0.1-0.1c-0.1-0.1-0.2-0.2-0.4-0.3l-0.2-0.2c-0.1-0.1-0.2-0.2-0.3-0.2l-0.3-0.2l-0.2-0.2
			c-0.1-0.1-0.2-0.2-0.4-0.3l-0.1-0.1c-0.1-0.1-0.3-0.2-0.4-0.4l-0.1,0c-1.5-1.3-2.8-2.7-4.1-4.2l-4.9,2.8l-4.5-7.8l4.9-2.8
			c-0.7-1.9-1.3-3.8-1.6-5.7v-0.1c-0.1-0.2-0.1-0.4-0.1-0.5v-0.2c0-0.2-0.1-0.3-0.1-0.5l0-0.2c0-0.1,0-0.2,0-0.3
			c0-0.2-0.1-0.3-0.1-0.4l0-0.2c0-0.2,0-0.3-0.1-0.5v-0.1c0-0.2,0-0.4,0-0.6v0c-0.2-2-0.1-3.9,0.1-5.9l-5.5-1.5l2.3-8.7l5.5,1.5
			c0.8-1.8,1.7-3.6,2.8-5.2l0,0c0.1-0.2,0.2-0.3,0.3-0.5l0.1-0.1c0.1-0.1,0.2-0.2,0.3-0.4l0.2-0.2c0.1-0.1,0.1-0.2,0.2-0.3
			c0.1-0.1,0.2-0.2,0.2-0.3l0.2-0.2c0.1-0.1,0.2-0.2,0.3-0.4l0.1-0.1c0.1-0.2,0.2-0.3,0.4-0.5l0,0c1.3-1.5,2.7-2.9,4.3-4.1l-2.8-4.9
			l7.8-4.5l2.8,4.9c1.9-0.8,3.8-1.3,5.7-1.7l0,0c0.2,0,0.4-0.1,0.6-0.1h0.1c0.2,0,0.3-0.1,0.5-0.1l0.2,0c0.2,0,0.3,0,0.4,0
			c0.1,0,0.2,0,0.3-0.1c0.1,0,0.2,0,0.3,0c0.1,0,0.3,0,0.4,0l0.2,0c0.2,0,0.4,0,0.5,0h0c1.9-0.2,3.9-0.1,5.9,0.1l1.4-5.5l8.7,2.3
			L253.7,151.9z M243.9,171c5.2,1.4,8.3,6.7,6.9,12c-1.4,5.2-6.8,8.3-12,6.9c-5.2-1.4-8.3-6.7-6.9-12
			C233.3,172.7,238.7,169.6,243.9,171L243.9,171z M245.9,163.5c9.4,2.5,14.9,12.1,12.4,21.5c-2.5,9.4-12.1,14.9-21.5,12.4
			c-9.3-2.5-14.9-12.1-12.4-21.5C226.9,166.6,236.5,161,245.9,163.5L245.9,163.5z"/>
	</g>
	<g id="Graph">
		<path class="st13" d="M335.9,355h9.8v47.5H326v-37.6C326,359.5,330.4,355,335.9,355L335.9,355z"/>
		<path class="st14" d="M362.1,324.8h9.8v77.7h-19.7v-67.9C352.3,329.2,356.7,324.8,362.1,324.8L362.1,324.8z"/>
		<path class="st15" d="M388.4,296h9.8v106.5h-19.7v-96.7C378.5,300.4,382.9,296,388.4,296L388.4,296z"/>
	</g>
	<g id="Lines">
		<path class="st16" d="M185.8,305.5c-2.3,0-4.2-1.9-4.2-4.2c0-2.3,1.9-4.2,4.2-4.2h61.7l28.3-49.1c0.8-1.4,2.2-2.1,3.7-2.1v0h86.7
			l55-72c1.4-1.9,4.1-2.2,5.9-0.8c1.9,1.4,2.2,4.1,0.8,5.9l-56.1,73.5c-0.8,1.1-2.1,1.9-3.6,1.9h-86.3L253.8,303
			c-0.7,1.5-2.1,2.5-3.9,2.5H185.8z"/>
		<path class="st17" d="M290,161.3c-1.2,0-2.1-0.9-2.1-2.1c0-1.2,1-2.1,2.1-2.1h100.4c1.2,0,2.1,1,2.1,2.1c0,1.2-1,2.1-2.1,2.1H290z
			"/>
		<path class="st18" d="M269,149.1c-1.2,0-2.1-0.9-2.1-2.1c0-1.2,1-2.1,2.1-2.1h100.4c1.2,0,2.1,1,2.1,2.1c0,1.2-0.9,2.1-2.1,2.1
			H269z"/>
	</g>
	<g id="Circles">
		<path class="st19" d="M278.7,243.6c4.4,0,7.9,3.4,7.9,7.6c0,4.2-3.5,7.7-7.9,7.7s-7.9-3.4-7.9-7.7
			C270.8,247,274.3,243.6,278.7,243.6L278.7,243.6z M278.7,236.3c8.6,0,15.5,6.7,15.5,15c0,8.3-6.9,15-15.5,15
			c-8.6,0-15.5-6.7-15.5-15C263.2,243,270.1,236.3,278.7,236.3L278.7,236.3z M278.7,233.1c10.4,0,18.8,8.1,18.8,18.2
			c0,10-8.4,18.2-18.8,18.2c-10.4,0-18.8-8.1-18.8-18.2C259.9,241.2,268.3,233.1,278.7,233.1L278.7,233.1z"/>
		<path class="st20" d="M431.4,154.7c7.2,0,13.1,5.7,13.1,12.6c0,7-5.9,12.6-13.1,12.6c-7.2,0-13.1-5.7-13.1-12.6
			C418.3,160.4,424.2,154.7,431.4,154.7L431.4,154.7z M431.4,142.5c14.2,0,25.8,11.1,25.8,24.9c0,13.7-11.5,24.9-25.8,24.9
			c-14.2,0-25.7-11.1-25.7-24.9C405.7,153.6,417.2,142.5,431.4,142.5L431.4,142.5z M431.4,137.2c17.2,0,31.2,13.5,31.2,30.1
			c0,16.6-13.9,30.1-31.2,30.1c-17.2,0-31.1-13.5-31.1-30.1C400.3,150.7,414.2,137.2,431.4,137.2L431.4,137.2z"/>
	</g>
</g>
</svg>
