<?xml version='1.0' encoding='utf-8'?>
<svg xmlns="http://www.w3.org/2000/svg" version="1.1" id="Layer_1" x="0px" y="0px" viewBox="0 0 500 500" style="enable-background:new 0 0 500 500;"> <style type="text/css"> .st0{fill:#C41C44;} .st1{fill:#F9F7F1;} .st2{fill:#5A5F63;} .st3{fill:#B7D967;} .st4{fill:#FFBD35;} .st5{fill:#F85523;} .st6{fill:#E8D4B0;} .st7{fill:#F86B40;} .st8{fill:#FFFFFF;} .st9{fill:#724E36;} .st10{fill:#663F25;} .st11{fill:#C3C5C6;} .st12{fill:#464C50;} .st13{fill:#6A6F72;} .st14{fill:#DE3F18;} .st15{opacity:0.5;} .st16{opacity:0.5;fill:#F8C740;} .st17{fill:#4D5357;} .st18{fill:#28E6FE;} .st19{fill:#2FCA74;} .st20{fill:#878B8E;} .st21{fill:#916D4D;} .st22{fill:#A1A7A7;} .st23{fill:#94736A;} .st24{fill:#EFF0F0;} .st25{fill:#C5C9C9;} .st26{fill:#E2E4E4;} .st27{fill:#FEA511;} .st28{fill:#C8CBCB;} </style> <rect class="st0" width="500" height="500"/> <g> <g> <rect x="143.2" y="127.7" transform="matrix(0.9581 -0.2865 0.2865 0.9581 -60.1651 77.9021)" class="st1" width="185.9" height="233.7"/> <g> <path class="st2" d="M192.1,182.4l-7.2-23.3l30.4-9.4l7.2,23.3L192.1,182.4z M187.8,160.6l5.9,18.9l26-8.1l-5.9-18.9L187.8,160.6 z"/> <path class="st2" d="M240.4,207.1l-7.2-23.3l30.4-9.4l7.2,23.3L240.4,207.1z M236,185.3l5.9,18.9l26-8.1l-5.9-18.9L236,185.3z"/> <path class="st2" d="M203,259.7l-7.2-23.3l30.4-9.4l7.2,23.3L203,259.7z M198.6,237.8l5.9,18.9l26-8.1l-5.9-18.9L198.6,237.8z"/> <path class="st2" d="M156.4,221.8l-5.8-18.6l24.1-7.5l5.8,18.6L156.4,221.8z M153.5,204.7l4.4,14.2l19.7-6.1l-4.4-14.2 L153.5,204.7z"/> <g> <path class="st2" d="M248.7,168.9c-7-14.7-23-12.4-23.7-12.3l-0.4-2.3c0.2,0,18.4-2.8,26.2,13.5L248.7,168.9z"/> <polygon class="st2" points="250.4,169.9 245.7,168.8 246.2,166.6 248.9,167.2 249.8,164.4 252,165.2 "/> </g> <g> <path class="st2" d="M237.2,234.2l-0.9-2.1c15.1-6.2,13.6-22.3,13.5-23l2.3-0.3C252.1,209,253.9,227.3,237.2,234.2z"/> <polygon class="st2" points="239.9,235.6 235.2,233.8 236.5,229.1 238.7,229.8 238,232.4 240.7,233.5 "/> </g> <g> <path class="st2" d="M190,245.9c-0.2,0-18.6-0.6-23.2-18.1l2.2-0.6c4.2,15.8,20.9,16.4,21.1,16.4L190,245.9z"/> <polygon class="st2" points="167,231.4 165,230.3 167.4,225.9 171.8,227.8 170.9,229.9 168.4,228.8 "/> </g> <g> <path class="st2" d="M159,194.1l-2.3-0.3c0-0.2,2.4-18.5,20.3-21.4l0.4,2.3C161.3,177.4,159.1,193.4,159,194.1z"/> <polygon class="st2" points="176.5,177.6 174.5,176.4 175.8,174 173.4,172.4 174.7,170.5 178.9,173.3 "/> </g> </g> <g> <rect x="256.9" y="282.9" transform="matrix(0.9621 -0.2726 0.2726 0.9621 -68.2336 81.9537)" class="st3" width="7.8" height="7.3"/> <rect x="260.5" y="295.4" transform="matrix(0.9622 -0.2724 0.2724 0.9622 -71.478 83.34)" class="st4" width="7.8" height="7.3"/> <polygon class="st5" points="265.2,316.2 272.7,314.1 270.7,307 263.2,309.2 "/> <rect x="273.4" y="276" transform="matrix(0.9617 -0.2741 0.2741 0.9617 -64.8769 90.7833)" class="st6" width="38.1" height="3.3"/> <rect x="276.9" y="287.5" transform="matrix(0.9621 -0.2729 0.2729 0.9621 -67.5435 92.6554)" class="st6" width="45" height="3.3"/> <rect x="280.6" y="301.6" transform="matrix(0.9621 -0.2728 0.2728 0.9621 -71.4586 92.6359)" class="st6" width="33.5" height="3.3"/> </g> <g> <path class="st7" d="M219.2,333.5c-9.9,4.1-21.2-0.6-25.3-10.5c-3.6-8.6-0.4-18.4,7-23.4l-3-4.4c-11.1,7.6-14,22.9-6.3,34 c7.6,11.1,22.9,14,34,6.3c8.9-6.1,12.5-17,9.7-26.8l-5.1,1.4C233.1,319.6,228.4,329.7,219.2,333.5z"/> <path class="st7" d="M209.4,312c-0.3-0.7-0.7-1.3-1.2-1.7L209.4,312z"/> <polygon class="st7" points="213.1,305.8 212.3,315.2 213.9,314.8 214.7,305.2 "/> <path class="st7" d="M217.9,313.7l1.3-0.4c-0.4,0-0.7,0.1-1.1,0.2C218,313.6,218,313.6,217.9,313.7z"/> <path class="st7" d="M216.1,315.7c-0.2,1-0.1,2.1,0.3,3.2c0.6,1.4,1.4,2.4,2.3,2.8c0.9,0.4,1.9,0.5,2.8,0.1c1-0.4,1.6-1.1,2-2.1 c0.4-1,0.3-2.2-0.3-3.5c-0.6-1.4-1.3-2.3-2.3-2.7c-0.6-0.3-1.2-0.3-1.8-0.3l-1.3,0.4C216.9,314.1,216.3,314.8,216.1,315.7z M221.5,316.9c0.5,1.1,0.6,1.9,0.5,2.5c-0.1,0.6-0.5,0.9-1,1.1c-0.5,0.2-1,0.2-1.5-0.1c-0.5-0.3-0.9-0.9-1.4-1.9 c-0.4-1.1-0.6-1.9-0.5-2.5c0.1-0.5,0.5-0.9,0.9-1.1c0.5-0.2,1-0.2,1.5,0.1C220.7,315.2,221.1,315.9,221.5,316.9z"/> <polygon class="st7" points="211.4,326.1 213,325.4 213.9,314.8 212.3,315.2 "/> <path class="st7" d="M207.3,309.5c-0.9-0.4-1.9-0.4-2.9,0c-1.1,0.5-1.7,1.2-2,2.2c-0.3,1-0.1,2.1,0.3,3.2 c0.6,1.4,1.4,2.4,2.3,2.8c0.9,0.5,1.9,0.5,2.8,0.1c1-0.4,1.6-1.1,2-2.1c0.4-1,0.3-2.2-0.3-3.5c0-0.1-0.1-0.1-0.1-0.2l-1.2-1.7 C207.9,310,207.6,309.7,207.3,309.5z M208.3,315.3c-0.1,0.6-0.5,0.9-0.9,1.1c-0.5,0.2-1,0.2-1.5-0.1c-0.5-0.3-1-0.9-1.4-1.9 c-0.5-1.1-0.6-1.9-0.5-2.5c0.2-0.6,0.5-0.9,1-1.1c0.5-0.2,1-0.1,1.5,0.1c0.5,0.3,1,0.9,1.4,2 C208.3,313.9,208.5,314.8,208.3,315.3z"/> </g> </g> <g> <circle class="st8" cx="85.2" cy="372.1" r="36"/> <path class="st9" d="M66.1,391.2c10.5,10.5,27.6,10.5,38.1,0c10.5-10.5,10.5-27.6,0-38.1c-10.5-10.5-27.6-10.5-38.1,0 C55.6,363.6,55.6,380.7,66.1,391.2z"/> <path class="st8" d="M51.1,400.6l6.2-6.2l6.7,6.7l-6.2,6.2c-1.9,1.9-4.9,1.9-6.7,0l0,0C49.2,405.4,49.2,402.4,51.1,400.6z"/> <path class="st10" d="M104.2,391.2c0.6-0.6,1.1-1.2,1.6-1.8c-10.6,8.9-26.4,8.3-36.3-1.6c-10-10-10.5-25.7-1.6-36.3 c-0.6,0.5-1.2,1.1-1.8,1.6c-10.5,10.5-10.5,27.6,0,38.1C76.6,401.7,93.7,401.7,104.2,391.2z"/> </g> <rect x="267" y="89.5" class="st6" width="52.1" height="4.1"/> <g> <path class="st11" d="M349.9,389l-0.1-2.9c0-1-0.9-1.8-1.8-1.7l-5,0.2l0.2,6.5l5-0.2C349.2,390.8,349.9,390,349.9,389z"/> <path class="st12" d="M344.5,384.2l0.2,6.7c0.1,1.7-1.3,3.1-3,3.2l-71,2.4l-0.4-12.9l71-2.4C343,381.2,344.4,382.5,344.5,384.2z"/> <rect x="269.2" y="383.7" transform="matrix(0.9994 -3.383331e-02 3.383331e-02 0.9994 -13.0433 9.359)" class="st6" width="1.6" height="12.9"/> <rect x="302.3" y="386.3" transform="matrix(0.9994 -3.399172e-02 3.399172e-02 0.9994 -13.0162 11.118)" class="st11" width="36.4" height="4.2"/> <g> <path class="st11" d="M209.4,391.2l0.1,1.8l10.6,1.5c0.2,0,0.3,0,0.5,0.1l-0.2-5.7L209.4,391.2z"/> <path class="st13" d="M260,384c-13.3,0.5-26.6,2.2-39.5,4.9l-0.2,0l0.2,5.7c13.1,1.8,26.4,2.6,39.8,2.2l11.8-0.3l-0.4-12.9 L260,384z"/> </g> </g> <rect x="227.3" y="132" transform="matrix(0.9923 0.1242 -0.1242 0.9923 33.378 -37.8441)" class="st8" width="185.9" height="233.7"/> <g> <rect x="257.1" y="246.3" transform="matrix(0.1295 -0.9916 0.9916 0.1295 -30.4906 481.6862)" class="st14" width="3.9" height="23.7"/> <rect x="267.3" y="245.3" transform="matrix(0.1295 -0.9916 0.9916 0.1295 -31.9208 500.8785)" class="st6" width="4" height="46.7"/> <rect x="257.8" y="260.2" transform="matrix(0.1295 -0.9916 0.9916 0.1295 -46.4543 496.877)" class="st6" width="3.9" height="29.4"/> <rect x="248.5" y="274.7" transform="matrix(0.1296 -0.9916 0.9916 0.1296 -60.5363 492.8659)" class="st6" width="4" height="12.5"/> <g class="st15"> <polygon class="st6" points="362.8,304.4 350.5,283.9 329.6,306.5 316.6,306.1 305.1,318.9 294.3,301.9 263.3,326.6 383,343.2 "/> </g> <polygon class="st16" points="248.4,325.1 263.8,312 269.9,315.8 282,306.1 307.1,329 331.9,313.4 342,319.2 368.5,293.6 382.6,342.6 "/> </g> <g> <rect x="362.7" y="271.6" class="st17" width="86.3" height="123.7"/> <rect x="371.8" y="292.7" class="st6" width="68.4" height="18"/> <rect x="377.5" y="372.4" class="st12" width="11.4" height="10.4"/> <rect x="393.7" y="372.4" class="st12" width="11.4" height="10.4"/> <rect x="409.9" y="372.4" class="st12" width="11.4" height="10.4"/> <rect x="377.5" y="355.9" class="st12" width="11.4" height="10.4"/> <rect x="393.7" y="355.9" class="st12" width="11.4" height="10.4"/> <rect x="409.9" y="355.9" class="st12" width="11.4" height="10.4"/> <rect x="377.5" y="339.5" class="st12" width="11.4" height="10.4"/> <rect x="393.7" y="339.5" class="st12" width="11.4" height="10.4"/> <rect x="409.9" y="339.5" class="st12" width="11.4" height="10.4"/> <rect x="393.7" y="324.7" class="st12" width="11.4" height="6.9"/> <rect x="409.9" y="324.7" class="st12" width="11.4" height="6.9"/> <path class="st18" d="M434.4,381.6h-5.9c-1.5,0-2.7-1.2-2.7-2.7v-19.8c0-1.5,1.2-2.7,2.7-2.7h5.9c1.5,0,2.7,1.2,2.7,2.7v19.8 C437.2,380.4,436,381.6,434.4,381.6z"/> <rect x="425.8" y="339.5" class="st12" width="11.4" height="10.4"/> <rect x="425.8" y="324.7" class="st12" width="11.4" height="6.9"/> <path class="st18" d="M388.7,326.7c0-3.3-2.7-6-6-6c-3.3,0-6,2.7-6,6c0,3.3,2.7,6,6,6C386.1,332.7,388.7,330,388.7,326.7z"/> <g> <rect x="428.4" y="368.1" class="st8" width="6.1" height="1.7"/> <rect x="428.4" y="368.1" transform="matrix(6.123234e-17 -1 1 6.123234e-17 62.4889 800.4594)" class="st8" width="6.1" height="1.7"/> </g> </g> <g> <path class="st6" d="M310.9,190.5c2.7-12.4-5.1-24.7-17.6-27.5l-5,22.5L310.9,190.5z"/> <path class="st17" d="M293.4,163c-12.4-2.7-24.7,5.1-27.5,17.6c-2.7,12.4,5.1,24.7,17.6,27.5c6.2,1.4,12.4,0.1,17.4-3.1 l-12.4-19.4L293.4,163z"/> <path class="st19" d="M288.4,185.5l12.4,19.4c5-3.2,8.7-8.2,10.1-14.5L288.4,185.5z"/> </g> <g> <rect x="356.5" y="145.8" transform="matrix(0.1317 -0.9913 0.9913 0.1317 128.7884 515.7757)" class="st6" width="4.6" height="77.1"/> <rect x="352.8" y="173.5" transform="matrix(0.1317 -0.9913 0.9913 0.1317 98.123 536.1639)" class="st6" width="4.6" height="77.1"/> <rect x="327" y="207.8" transform="matrix(0.1317 -0.9913 0.9913 0.1317 65.7514 519.3068)" class="st6" width="4.6" height="28.6"/> <rect x="326.5" y="183.4" transform="matrix(0.1317 -0.9913 0.9913 0.1317 93.8077 493.7943)" class="st6" width="4.6" height="20"/> <rect x="354.8" y="187.1" transform="matrix(0.1309 -0.9914 0.9914 0.1309 114.9645 525.3588)" class="st6" width="4.6" height="20"/> </g> <g> <polygon class="st19" points="330.3,291.2 330.3,291.2 325.5,290.5 320.8,292.5 321.1,289.8 316.4,289 316.4,289 317.7,280.1 317.7,280.1 331.7,282.3 331.7,282.3 "/> </g> <path id="paper_clip_5_" class="st20" d="M193.7,390.8l-0.1,0.2c-1.9,3.4-6.2,4.7-9.6,2.8l-14.7-8c-0.4-0.2-0.5-0.7-0.3-1.1 c0.2-0.4,0.7-0.5,1.1-0.3l14.7,8c2.6,1.4,6,0.5,7.4-2.2l0.1-0.2c1.4-2.6,0.5-5.9-2.2-7.4l-19.2-10.5c-2-1.1-4.4-0.3-5.5,1.6 c-1.1,2-0.4,4.5,1.6,5.5l14.9,8.1c1.1,0.6,2.4,0.2,3-0.9l0.2-0.3c0.6-1.1,0.2-2.4-0.9-3l-9.8-5.4c-0.4-0.2-0.5-0.7-0.3-1.1 c0.2-0.4,0.7-0.5,1.1-0.3l9.8,5.4c1.8,1,2.5,3.3,1.5,5.2l-0.2,0.3c-1,1.8-3.3,2.5-5.2,1.5l-14.9-8.1c-2.7-1.5-3.8-5-2.3-7.7 c1.5-2.8,5-3.8,7.7-2.3l19.2,10.5C194.3,383.1,195.5,387.4,193.7,390.8z"/> <g> <polygon class="st21" points="100.5,290.1 99.5,160.3 94.5,160.4 95.6,290.1 100.5,290.1 "/> <path class="st21" d="M99,275.3c0,0,6.9,12.6,11.7,12.4c6.4-0.2,4.2-3.1,4.2-3.1s-11.5-11.4-14.5-15.5c-0.6-0.9-1.4,2.7-1.4,2.7 L99,275.3L99,275.3z"/> <path class="st21" d="M98.1,174c0,0,6.6-12.7,11.5-12.6c6.4,0.1,4.3,3.1,4.3,3.1s-11.3,11.6-14.2,15.8c-0.6,0.9-1.5-2.7-1.5-2.7 L98.1,174L98.1,174z"/> <g> <path class="st17" d="M88.8,151l8-0.1c2.2,6.7,17.3,7,17.3,7s20.8,3,21.1,27.6c0.2,28.6-26.4,32.8-30.9,33.9 c-3.8,0.9-4.1,4.4-4.2,5.3c0,0.9,0.4,4.3,4.3,5.2c4.4,1,31.2,4.8,31.4,33.4c0.2,23.7-20.7,26.5-20.7,26.5s-15,2.1-17,8.8l-8,0.1 c0,0-3.2-6.5-3.3-25.2c-0.2-18.7,2.5-29.6,2.5-29.6s2.7-13.8,2.8-19c-0.1-5.2-3.1-19-3.1-19s-2.8-10.9-3-29.6 C85.8,157.6,88.8,151,88.8,151L88.8,151z M90.9,252.2c0,0-2,9.1,0.4,22.8c2.4,13.6,11.6,12.8,17.6,11.7c6-1.2,24-2.6,23.1-25.5 c-0.6-8.5-6.5-22.1-24.1-26.2C93.5,231.6,90.9,252.2,90.9,252.2L90.9,252.2z M107.7,213.8c17.6-4.4,23.2-18,23.7-26.6 c0.5-22.9-17.6-24-23.5-25.1c-6-1.1-15.2-1.7-17.4,11.9c-2.2,13.7,0,22.8,0,22.8S93.4,217.4,107.7,213.8L107.7,213.8z"/> </g> <path class="st22" d="M95.2,240.3l0.4,44c1.5,1.4,3.2,2.2,5,2.6l-0.1-9.1c-0.9-1.5-1.5-2.5-1.5-2.5l0-3.5c0,0,0.8-3.6,1.4-2.8 l-0.3-33.4C98,236.8,96.4,238.4,95.2,240.3L95.2,240.3z"/> <path class="st22" d="M98.9,271.9l0,3.5c0,0,0.6,1,1.5,2.5c1.7,2.8,4.7,7.1,7.5,9c0.3-0.1,0.6-0.1,0.9-0.2 c1.5-0.3,3.8-0.6,6.3-1.3c-0.1-0.4-0.3-0.7-0.3-0.7s-11.5-11.4-14.5-15.5c0,0,0,0,0,0C99.7,268.3,98.9,271.9,98.9,271.9 L98.9,271.9z"/> <path class="st23" d="M90.1,262.5c0,3.5,0.3,7.7,1.2,12.5c1.8,10.1,7.3,12.3,12.5,12.3c-1.1,0-2.2-0.1-3.3-0.3 c-1.8-0.4-3.5-1.2-5-2.6c-1.9-1.9-3.5-4.8-4.3-9.3C90.5,270.2,90.2,266,90.1,262.5c-0.1-6.5,0.8-10.3,0.8-10.3s0.8-6.7,4.2-11.9 c1.3-1.9,2.9-3.6,4.9-4.6c1.3-0.7,2.9-1.1,4.6-1.1c-11.6,0.1-13.8,17.6-13.8,17.6S90.1,256.1,90.1,262.5L90.1,262.5z"/> <g> <path class="st24" d="M99.6,180.2l0.3,33c1.3,0.7,2.9,1.1,4.6,1c1,0,2-0.1,3.1-0.4c17.6-4.4,23.2-18,23.7-26.6l0,0 c0-0.4,0-0.9,0-1.3l0,0c0,0,0,0,0,0c-0.1-16.1-9.8-20.8-17.2-22.6c0,0,0,0,0,0.1c0,0.6-0.3,1-0.3,1S102.5,176,99.6,180.2 C99.6,180.2,99.6,180.2,99.6,180.2L99.6,180.2z M99.5,162l0.1,9.5c1.8-3,4.9-7.7,7.9-9.4c-1.4-0.3-3-0.5-4.7-0.4 C101.7,161.6,100.6,161.7,99.5,162L99.5,162z M89.5,186.5C89.5,186.6,89.5,186.6,89.5,186.5c0.1,6.4,1,10.3,1,10.3l0,0 c0,0,0.9,6.7,4.4,11.8l-0.4-44c-1.9,1.9-3.4,4.8-4.1,9.4l0,0c0,0.1,0,0.1,0,0.2C89.7,178.9,89.5,183.1,89.5,186.5 C89.5,186.5,89.5,186.5,89.5,186.5L89.5,186.5z"/> </g> <path class="st25" d="M94.6,164.7l0.4,44c1.3,1.9,2.9,3.5,5,4.5l-0.3-33c-0.6,0.8-1.5-2.7-1.5-2.7l0-3.5c0,0,0.5-1,1.4-2.5 l-0.1-9.5C97.7,162.4,96,163.2,94.6,164.7L94.6,164.7z"/> <path class="st25" d="M98.1,174l0,3.5c0,0,0.9,3.6,1.5,2.7c0,0,0,0,0,0c2.9-4.2,14.2-15.8,14.2-15.8s0.3-0.5,0.3-1 c0,0,0-0.1,0-0.1c-2.6-0.6-4.8-0.9-6.3-1.2c-0.1,0-0.3-0.1-0.4-0.1c-2.9,1.7-6.1,6.5-7.9,9.4C98.7,172.9,98.1,174,98.1,174 L98.1,174z"/> <path class="st23" d="M131.4,185.9C131.4,185.9,131.4,185.9,131.4,185.9L131.4,185.9C131.4,185.9,131.4,185.9,131.4,185.9 L131.4,185.9z M131.4,187.2c0-0.4,0-0.9,0-1.3C131.4,186.4,131.4,186.8,131.4,187.2L131.4,187.2z M90.5,174.1L90.5,174.1 c0.7-4.5,2.2-7.5,4.1-9.4c1.5-1.5,3.2-2.3,4.9-2.7c1.1-0.3,2.2-0.4,3.3-0.4C97.6,161.7,92.1,163.9,90.5,174.1L90.5,174.1 L90.5,174.1z M90.5,196.8L90.5,196.8c0,0,2.5,17.4,14.1,17.4c-1.7,0-3.3-0.4-4.6-1c-2.1-1-3.7-2.7-5-4.5 C91.4,203.6,90.5,196.8,90.5,196.8L90.5,196.8L90.5,196.8z M89.5,186.5c0-3.4,0.2-7.6,0.9-12.3C89.7,178.9,89.5,183.1,89.5,186.5 L89.5,186.5z M89.5,186.5C89.5,186.6,89.5,186.6,89.5,186.5C89.5,186.6,89.5,186.6,89.5,186.5L89.5,186.5L89.5,186.5z"/> <path class="st26" d="M113.7,211.7l-14.1-31.6l14.6-16.9c0,0,16.2,3.6,17,20.8C131.9,201.3,120.9,204.5,113.7,211.7z"/> <path class="st27" d="M90.4,153.3c0.5,0,0.9,0.8,0.9,1.9c0,1-0.4,1.9-0.9,1.9c-0.5,0-0.9-0.8-0.9-1.9 C89.5,154.1,89.9,153.3,90.4,153.3z"/> <path class="st27" d="M90.3,288.2c0.5,0,0.9,0.8,0.9,1.9c0,1-0.4,1.9-0.9,1.9c-0.5,0-0.9-0.8-0.9-1.9 C89.4,289,89.8,288.2,90.3,288.2z"/> <g> <path class="st28" d="M90.9,252.2c0,0-0.9,3.9-0.8,10.3c0,3.5,0.3,7.7,1.2,12.5c0.8,4.5,2.3,7.4,4.3,9.3l-0.4-44 C91.8,245.5,90.9,252.2,90.9,252.2z"/> <path class="st28" d="M100.4,277.8l0.1,9.1c1.1,0.2,2.2,0.3,3.3,0.3c1.4,0,2.8-0.2,4.1-0.4C105.1,284.9,102.2,280.6,100.4,277.8z "/> <path class="st24" d="M122.2,282.5c5.3-3.1,10-8.9,9.9-20.1c0-0.4,0-0.8,0-1.3c-0.4-5.6-3.1-13.3-9.8-19.1V282.5z"/> <path class="st24" d="M107.9,235c-1.1-0.3-2.2-0.4-3.2-0.4c-1.8,0-3.3,0.4-4.6,1.1l0.3,33.4c0,0,0,0,0,0 c2.9,4.1,14.5,15.5,14.5,15.5s0.2,0.3,0.3,0.7c2.2-0.6,4.7-1.5,7-2.8V242C118.6,238.9,114,236.4,107.9,235z"/> </g> </g> </g> </svg>