<?xml version="1.0" encoding="UTF-8" standalone="no"?>
<svg
   xmlns:dc="http://purl.org/dc/elements/1.1/"
   xmlns:cc="http://creativecommons.org/ns#"
   xmlns:rdf="http://www.w3.org/1999/02/22-rdf-syntax-ns#"
   xmlns:svg="http://www.w3.org/2000/svg"
   xmlns="http://www.w3.org/2000/svg"
   viewBox="0 0 1333.3333 1333.3333"
   height="1333.3333"
   width="1333.3333"
   xml:space="preserve"
   id="svg2"
   version="1.1"><metadata
     id="metadata8"><rdf:RDF><cc:Work
         rdf:about=""><dc:format>image/svg+xml</dc:format><dc:type
           rdf:resource="http://purl.org/dc/dcmitype/StillImage" /></cc:Work></rdf:RDF></metadata><defs
     id="defs6"><clipPath
       id="clipPath20"
       clipPathUnits="userSpaceOnUse"><path
         id="path18"
         d="M 0,1000 H 1000 V 0 H 0 Z" /></clipPath></defs><g
     transform="matrix(1.3333333,0,0,-1.3333333,0,1333.3333)"
     id="g10"><path
       id="path12"
       style="fill:#8da89a;fill-opacity:1;fill-rule:nonzero;stroke:none"
       d="M 0,0 H 1000 V 998 H 0 Z" /><g
       id="g14"><g
         clip-path="url(#clipPath20)"
         id="g16"><g
           transform="translate(7,500)"
           id="g22"><path
             id="path24"
             style="fill:#160d22;fill-opacity:1;fill-rule:nonzero;stroke:none"
             d="M 0,0 C 0,-272.276 220.724,-493 493,-493 765.276,-493 986,-272.276 986,0 986,272.276 765.276,493 493,493 220.724,493 0,272.276 0,0" /></g><g
           transform="translate(309.2051,522.8896)"
           id="g26"><path
             id="path28"
             style="fill:#cd6415;fill-opacity:1;fill-rule:nonzero;stroke:none"
             d="m 0,0 c -2.264,-18.853 -1.709,-37.38 1.317,-55.207 13.883,-81.643 79.977,-147.921 166.411,-158.301 105.287,-12.642 200.865,62.443 213.507,167.729 0.119,0.982 0.237,1.966 0.321,2.923 1.91,18.169 1.21,35.989 -1.805,53.15 C 365.549,91.551 299.643,157.385 213.508,167.728 117.097,179.305 28.833,117.331 4.927,25.936 2.709,17.531 1.066,8.876 0,0" /></g><g
           transform="translate(95.0869,550.0972)"
           id="g30"><path
             id="path32"
             style="fill:#8eb9cb;fill-opacity:1;fill-rule:nonzero;stroke:none"
             d="m 0,0 c -4.822,-40.156 87.833,-86.313 225.381,-118.75 23.343,-5.526 47.973,-10.612 73.639,-15.226 30.084,-5.4 61.522,-10.154 93.957,-14.05 32.434,-3.894 64.104,-6.719 94.611,-8.594 26.028,-1.593 51.121,-2.478 75.108,-2.634 141.318,-1.05 242.308,21.853 247.13,62.008 4.847,40.367 -88.632,86.75 -227.155,119.218 5.061,-12.441 8.861,-25.453 11.207,-38.888 1.088,-6.175 1.874,-12.398 2.309,-18.708 26.917,-13.32 42.062,-27.568 40.47,-40.827 -1.582,-13.175 -19.407,-23.379 -48.327,-29.909 -33.344,-7.573 -81.473,-10.307 -136.508,-7.103 -17.418,0.984 -35.526,2.606 -54.114,4.838 -18.588,2.232 -36.566,4.944 -53.722,8.111 -54.229,9.917 -100.342,23.968 -130.945,39.22 -26.552,13.191 -41.455,27.324 -39.873,40.5 1.593,13.259 19.68,23.516 48.992,30.127 6.219,19.173 15.285,36.898 26.72,52.721 C 106.65,63.299 4.842,40.323 0,0" /></g><g
           transform="translate(417.7241,190.8037)"
           id="g34"><path
             id="path36"
             style="fill:#f1f1ed;fill-opacity:1;fill-rule:nonzero;stroke:none"
             d="M 0,0 -8.733,-8.733 -17.467,0 c -6.271,6.271 -16.437,6.271 -22.708,0 -6.271,-6.271 -6.271,-16.437 0,-22.708 l 8.734,-8.733 -8.734,-8.734 c -6.271,-6.27 -6.271,-16.437 0,-22.708 6.271,-6.27 16.437,-6.27 22.708,0 l 8.734,8.734 L 0,-62.883 c 6.271,-6.27 16.437,-6.27 22.708,0 6.271,6.271 6.271,16.438 0,22.708 l -8.734,8.734 8.734,8.733 c 6.271,6.271 6.271,16.437 0,22.708 C 16.437,6.271 6.271,6.271 0,0" /></g><g
           transform="translate(757.9365,771.4956)"
           id="g38"><path
             id="path40"
             style="fill:#f1f1ed;fill-opacity:1;fill-rule:nonzero;stroke:none"
             d="M 0,0 -3.384,-3.384 -6.769,0 c -2.429,2.43 -6.369,2.43 -8.798,0 -2.43,-2.43 -2.43,-6.369 0,-8.799 l 3.383,-3.384 -3.383,-3.384 c -2.43,-2.431 -2.43,-6.37 0,-8.8 2.429,-2.429 6.369,-2.429 8.798,0 l 3.385,3.385 L 0,-24.367 c 2.43,-2.429 6.369,-2.429 8.799,0 2.43,2.43 2.43,6.369 0,8.8 l -3.384,3.384 3.384,3.384 c 2.43,2.43 2.43,6.369 0,8.799 C 6.369,2.43 2.43,2.43 0,0" /></g><g
           transform="translate(635.084,788.5864)"
           id="g42"><path
             id="path44"
             style="fill:#cd6415;fill-opacity:1;fill-rule:nonzero;stroke:none"
             d="m 0,0 h 4.786 v -4.786 c 0,-3.436 2.786,-6.222 6.223,-6.222 3.435,0 6.221,2.786 6.221,6.222 V 0 h 4.787 c 3.436,0 6.221,2.786 6.221,6.222 0,3.436 -2.785,6.222 -6.221,6.222 H 17.23 v 4.786 c 0,3.436 -2.786,6.222 -6.221,6.222 -3.437,0 -6.223,-2.786 -6.223,-6.222 V 12.444 H 0 c -3.436,0 -6.222,-2.786 -6.222,-6.222 C -6.222,2.786 -3.436,0 0,0" /></g><g
           transform="translate(239.3008,286.3838)"
           id="g46"><path
             id="path48"
             style="fill:#cd6415;fill-opacity:1;fill-rule:nonzero;stroke:none"
             d="M 0,0 -3.384,-3.385 -6.769,0 c -2.429,2.43 -6.369,2.43 -8.799,0 -2.43,-2.43 -2.43,-6.369 0,-8.799 l 3.384,-3.385 -3.384,-3.383 c -2.43,-2.431 -2.43,-6.37 0,-8.8 2.43,-2.43 6.37,-2.43 8.799,0 l 3.385,3.385 L 0,-24.367 c 2.43,-2.43 6.369,-2.43 8.799,0 2.43,2.43 2.43,6.369 0,8.8 l -3.384,3.383 3.384,3.385 c 2.43,2.43 2.43,6.369 0,8.799 C 6.369,2.43 2.43,2.43 0,0" /></g><g
           transform="translate(304.8291,768.0679)"
           id="g50"><path
             id="path52"
             style="fill:#f1f1ed;fill-opacity:1;fill-rule:nonzero;stroke:none"
             d="m 0,0 h -6.913 v 6.913 c 0,4.963 -4.024,8.987 -8.987,8.987 -4.963,0 -8.987,-4.024 -8.987,-8.987 V 0 H -31.8 c -4.963,0 -8.987,-4.023 -8.987,-8.987 0,-4.963 4.024,-8.987 8.987,-8.987 h 6.913 v -6.913 c 0,-4.963 4.024,-8.987 8.987,-8.987 4.963,0 8.987,4.024 8.987,8.987 v 6.913 H 0 c 4.963,0 8.987,4.024 8.987,8.987 C 8.987,-4.023 4.963,0 0,0" /></g><g
           transform="translate(749.3496,218.6025)"
           id="g54"><path
             id="path56"
             style="fill:#cd6415;fill-opacity:1;fill-rule:nonzero;stroke:none"
             d="M 0,0 -4.889,-4.888 -9.776,0 c -3.51,3.51 -9.201,3.51 -12.71,0 -3.509,-3.51 -3.509,-9.199 0,-12.709 l 4.888,-4.889 -4.888,-4.887 c -3.509,-3.51 -3.509,-9.201 0,-12.71 3.509,-3.51 9.2,-3.51 12.71,0 l 4.887,4.888 L 0,-35.195 c 3.51,-3.51 9.2,-3.51 12.709,0 3.51,3.509 3.51,9.2 0,12.71 l -4.888,4.887 4.888,4.889 c 3.51,3.51 3.51,9.199 0,12.709 C 9.2,3.51 3.51,3.51 0,0" /></g></g></g></g></svg>