<?xml version="1.0" encoding="utf-8"?>
<!-- Generator: Adobe Illustrator 22.1.0, SVG Export Plug-In . SVG Version: 6.00 Build 0)  -->
<svg version="1.1" id="Layer_1" xmlns="http://www.w3.org/2000/svg" xmlns:xlink="http://www.w3.org/1999/xlink" x="0px" y="0px"
	 viewBox="0 0 500 500" style="enable-background:new 0 0 500 500;" xml:space="preserve">
<style type="text/css">
	.st0{fill:#151CAD;}
	.st1{fill-rule:evenodd;clip-rule:evenodd;fill:#03386E;}
	.st2{fill-rule:evenodd;clip-rule:evenodd;fill:#7993B1;}
	.st3{fill-rule:evenodd;clip-rule:evenodd;fill:#032D59;}
	.st4{fill:#FFC012;}
	.st5{fill-rule:evenodd;clip-rule:evenodd;fill:#FFE679;}
	.st6{fill-rule:evenodd;clip-rule:evenodd;fill:#32618C;}
	.st7{fill-rule:evenodd;clip-rule:evenodd;fill:#F0A9A7;}
	.st8{fill:#FFFFFF;}
	.st9{fill-rule:evenodd;clip-rule:evenodd;fill:#FFFFFF;}
	.st10{fill-rule:evenodd;clip-rule:evenodd;fill:#EDEEEE;}
	.st11{fill:#32618C;}
	.st12{fill-rule:evenodd;clip-rule:evenodd;fill:#FFCF6D;}
	.st13{fill-rule:evenodd;clip-rule:evenodd;fill:#FFA758;}
	.st14{fill-rule:evenodd;clip-rule:evenodd;fill:#FBFBFB;}
</style>
<rect x="0" y="0.5" class="st0" width="500" height="500"/>
<g id="Financial_Analyst_2_">
	<g id="Laptop">
		<path class="st1" d="M144.6,191.9h225.3c3.1,0,5.6,2.5,5.6,5.6v143.7H139V197.5C139,194.4,141.6,191.9,144.6,191.9L144.6,191.9z"
			/>
		<path class="st2" d="M151.1,200h212.3c1.7,0,3.2,1.4,3.2,3.2v138H148v-138C148,201.4,149.4,200,151.1,200L151.1,200z"/>
		<path class="st3" d="M123.1,357.1c121.1,0,147.3,0,268.4,0c2.2,0,3.6-1.8,3-4.1l-2.6-10.2c-0.6-2.2-2.9-4.1-5.1-4.1
			c-118,0-141.1,0-259.1,0c-2.2,0-4.5,1.8-5.1,4.1l-2.6,10.2C119.5,355.3,120.8,357.1,123.1,357.1L123.1,357.1z"/>
	</g>
	<g id="Graph">
		<path class="st4" d="M165.1,315c-1.2,0-2.1-0.9-2.1-2.1c0-1.2,1-2.1,2.1-2.1h40.4l30.1-52.2c0.4-0.7,1.1-1,1.8-1l0,0h88.2
			l51.4-72.7c0.7-1,2-1.2,2.9-0.5c1,0.7,1.2,2,0.5,2.9l-51.9,73.5c-0.4,0.6-1,1-1.8,1h-88.2l-30,52c-0.3,0.7-1,1.2-1.9,1.2H165.1z"
			/>
		<path class="st5" d="M382.8,169.1c7.5,0,13.7,5.9,13.7,13.2c0,7.3-6.1,13.2-13.7,13.2c-7.5,0-13.6-5.9-13.6-13.2
			C369.2,175,375.3,169.1,382.8,169.1L382.8,169.1z M382.8,156.4c14.8,0,26.8,11.6,26.8,25.9c0,14.3-12,25.9-26.8,25.9
			c-14.8,0-26.8-11.6-26.8-25.9C356,168,368,156.4,382.8,156.4L382.8,156.4z M382.8,150.9c18,0,32.5,14,32.5,31.4
			c0,17.3-14.6,31.4-32.5,31.4c-17.9,0-32.5-14.1-32.5-31.4C350.4,165,364.9,150.9,382.8,150.9L382.8,150.9z"/>
		<path class="st4" d="M250.6,312.3c0,1.7-1.4,3.2-3.2,3.2c-1.7,0-3.2-1.4-3.2-3.2v-38.7c0-1.7,1.4-3.2,3.2-3.2
			c1.8,0,3.2,1.4,3.2,3.2V312.3z"/>
		<path class="st4" d="M275.2,312.3c0,1.7-1.4,3.2-3.2,3.2c-1.7,0-3.2-1.4-3.2-3.2v-38.7c0-1.7,1.4-3.2,3.2-3.2
			c1.8,0,3.2,1.4,3.2,3.2V312.3z"/>
		<path class="st4" d="M299.9,312.3c0,1.7-1.4,3.2-3.2,3.2c-1.7,0-3.2-1.4-3.2-3.2v-38.7c0-1.7,1.4-3.2,3.2-3.2
			c1.8,0,3.2,1.4,3.2,3.2V312.3z"/>
		<path class="st4" d="M324.5,312.3c0,1.7-1.4,3.2-3.2,3.2c-1.7,0-3.2-1.4-3.2-3.2v-38.7c0-1.7,1.4-3.2,3.2-3.2
			c1.8,0,3.2,1.4,3.2,3.2V312.3z"/>
	</g>
	<g id="Loop">
		<path class="st1" d="M138.8,203.6c29.3,16.9,39.4,54.4,22.4,83.7c-15.3,26.4-47.2,37.2-74.9,26.6l-38.7,67
			c-2.7,4.6-8.7,6.2-13.3,3.5l0,0c-4.6-2.7-6.2-8.7-3.5-13.3l38.7-67c-23-18.7-29.6-51.7-14.4-78.2
			C72,196.8,109.4,186.7,138.8,203.6L138.8,203.6z"/>
		<path class="st6" d="M138.8,203.6c29.3,16.9,39.4,54.4,22.4,83.7c-15.3,26.4-47.2,37.2-74.9,26.6l-38.7,67
			c-2.7,4.6-8.7,6.2-13.3,3.5L138.8,203.6z"/>
		<path class="st7" d="M134.1,211.7c24.5,14.2,33,45.5,18.8,70.1c-14.2,24.5-45.5,33-70.1,18.8c-24.5-14.2-33-45.6-18.8-70.1
			C78.2,205.9,109.6,197.5,134.1,211.7L134.1,211.7z"/>
		<path class="st8" d="M137.5,242c-1.2-2-0.5-4.6,1.5-5.7c2-1.2,4.6-0.5,5.8,1.5c5.3,9.1,6.7,17.4,5.4,25.3
			c-1.2,7.7-5,14.8-9.9,21.5c-1.4,1.8-4,2.2-5.9,0.9c-1.8-1.4-2.2-4-0.9-5.9c4.2-5.7,7.4-11.6,8.4-17.8
			C142.9,255.7,141.8,249.2,137.5,242L137.5,242z"/>
	</g>
	<g id="Gears">
		<path class="st9" d="M253.2,183.1c1.9,0.3,3.8,0.7,5.7,1.4l0,0c0.2,0.1,0.4,0.1,0.5,0.2l0.1,0c0.1,0.1,0.3,0.1,0.4,0.2l0.2,0.1
			c0.1,0,0.2,0.1,0.4,0.1l0.3,0.1l0.2,0.1c0.1,0.1,0.3,0.1,0.4,0.2l0.1,0.1c0.2,0.1,0.3,0.1,0.5,0.2l0,0c1.7,0.8,3.4,1.8,5,3l4-4
			l6.3,6.3l-4,4c1.2,1.6,2.2,3.3,3,5l0,0.1c0.1,0.1,0.1,0.3,0.2,0.5l0.1,0.1c0.1,0.1,0.1,0.3,0.2,0.4l0.1,0.2
			c0.1,0.1,0.1,0.2,0.1,0.3c0.1,0.1,0.1,0.3,0.1,0.4l0.1,0.1c0.1,0.2,0.1,0.3,0.2,0.5v0.1c0.1,0.2,0.1,0.4,0.2,0.5v0
			c0.7,1.8,1.1,3.7,1.4,5.7h5.6v8.9h-5.6c-0.3,2-0.7,3.8-1.4,5.7v0c-0.1,0.2-0.1,0.4-0.2,0.5l-0.1,0.1c-0.1,0.1-0.1,0.3-0.1,0.4
			l-0.1,0.2c-0.1,0.1-0.1,0.2-0.1,0.3c-0.1,0.1-0.1,0.2-0.1,0.3l-0.1,0.2c-0.1,0.1-0.1,0.3-0.2,0.4l-0.1,0.1
			c-0.1,0.2-0.2,0.4-0.2,0.5l0,0c-0.8,1.7-1.8,3.4-3,5l4,4l-6.3,6.3l-4-4c-1.6,1.2-3.3,2.2-5,3l0,0c-0.2,0.1-0.4,0.1-0.5,0.2
			l-0.1,0.1c-0.2,0.1-0.3,0.1-0.4,0.2l-0.2,0.1c-0.1,0-0.2,0.1-0.4,0.1c-0.1,0-0.2,0.1-0.3,0.1c-0.1,0.1-0.2,0.1-0.3,0.1
			c-0.1,0.1-0.2,0.1-0.4,0.1l-0.2,0.1c-0.2,0.1-0.3,0.1-0.5,0.2h0c-1.8,0.7-3.7,1.1-5.7,1.4v5.6h-8.9v-5.6c-2-0.3-3.8-0.7-5.7-1.4
			h-0.1c-0.1-0.1-0.3-0.1-0.5-0.2l-0.1-0.1c-0.1-0.1-0.3-0.1-0.4-0.1l-0.2-0.1c-0.1-0.1-0.2-0.1-0.3-0.1l-0.3-0.1l-0.2-0.1
			c-0.1-0.1-0.3-0.1-0.4-0.2l-0.1-0.1c-0.1-0.1-0.3-0.1-0.5-0.2l-0.1,0c-1.7-0.8-3.4-1.8-5-3l-4,4l-6.3-6.3l4-4
			c-1.2-1.6-2.2-3.3-3-5l0,0c-0.1-0.2-0.1-0.3-0.2-0.5l-0.1-0.1c-0.1-0.1-0.1-0.3-0.2-0.4l-0.1-0.2c0-0.1-0.1-0.2-0.1-0.3
			c0-0.1-0.1-0.2-0.1-0.4l-0.1-0.2c-0.1-0.1-0.1-0.3-0.2-0.5l0-0.1c-0.1-0.2-0.1-0.4-0.2-0.5l0,0c-0.6-1.8-1.1-3.7-1.4-5.7h-5.6
			v-8.9h5.6c0.3-2,0.7-3.8,1.4-5.7l0,0c0.1-0.2,0.1-0.4,0.2-0.5l0-0.1c0.1-0.1,0.1-0.3,0.2-0.4l0.1-0.2c0-0.1,0.1-0.2,0.1-0.3
			c0.1-0.1,0.1-0.2,0.1-0.3l0.1-0.2c0.1-0.1,0.1-0.3,0.2-0.4l0.1-0.1c0.1-0.2,0.1-0.3,0.2-0.5l0,0c0.8-1.8,1.8-3.4,3-5l-4-4l6.3-6.3
			l4,4c1.6-1.2,3.3-2.2,5-3l0,0c0.2-0.1,0.3-0.2,0.5-0.2l0.1-0.1c0.1-0.1,0.3-0.1,0.4-0.2l0.2-0.1c0.1-0.1,0.2-0.1,0.4-0.1
			c0.1,0,0.2-0.1,0.3-0.1c0.1,0,0.2-0.1,0.3-0.1c0.1-0.1,0.3-0.1,0.4-0.1l0.2-0.1c0.1-0.1,0.3-0.1,0.5-0.2l0.1,0
			c1.8-0.6,3.7-1.1,5.7-1.4v-5.6h8.9V183.1z M248.8,202.9c5.9,0,10.6,4.7,10.6,10.6c0,5.9-4.7,10.6-10.6,10.6
			c-5.8,0-10.6-4.7-10.6-10.6C238.2,207.7,242.9,202.9,248.8,202.9L248.8,202.9z M248.8,196.4c9.5,0,17.1,7.7,17.1,17.1
			c0,9.5-7.7,17.1-17.1,17.1c-9.5,0-17.1-7.7-17.1-17.1C231.6,204.1,239.3,196.4,248.8,196.4L248.8,196.4z"/>
		<path class="st10" d="M253.2,183.1c1.9,0.3,3.8,0.7,5.7,1.4l0,0c0.2,0.1,0.4,0.1,0.5,0.2l0.1,0c0.1,0.1,0.3,0.1,0.4,0.2l0.2,0.1
			c0.1,0,0.2,0.1,0.4,0.1l0.3,0.1l0.2,0.1c0.1,0.1,0.3,0.1,0.4,0.2l0.1,0.1c0.2,0.1,0.3,0.1,0.5,0.2l0,0c1.7,0.8,3.4,1.8,5,3l4-4
			l6.3,6.3l-4,4c1.2,1.6,2.2,3.3,3,5l0,0.1c0.1,0.1,0.1,0.3,0.2,0.5l0.1,0.1c0.1,0.1,0.1,0.3,0.2,0.4l0.1,0.2
			c0.1,0.1,0.1,0.2,0.1,0.3c0.1,0.1,0.1,0.3,0.1,0.4l0.1,0.1c0.1,0.2,0.1,0.3,0.2,0.5v0.1c0.1,0.2,0.1,0.4,0.2,0.5v0
			c0.7,1.8,1.1,3.7,1.4,5.7h5.6v8.9h-5.6c-0.3,2-0.7,3.8-1.4,5.7v0c-0.1,0.2-0.1,0.4-0.2,0.5l-0.1,0.1c-0.1,0.1-0.1,0.3-0.1,0.4
			l-0.1,0.2c-0.1,0.1-0.1,0.2-0.1,0.3c-0.1,0.1-0.1,0.2-0.1,0.3l-0.1,0.2c-0.1,0.1-0.1,0.3-0.2,0.4l-0.1,0.1
			c-0.1,0.2-0.2,0.4-0.2,0.5l0,0c-0.8,1.7-1.8,3.4-3,5l4,4l-6.3,6.3l-4-4c-1.6,1.2-3.3,2.2-5,3l0,0c-0.2,0.1-0.4,0.1-0.5,0.2
			l-0.1,0.1c-0.2,0.1-0.3,0.1-0.4,0.2l-0.2,0.1c-0.1,0-0.2,0.1-0.4,0.1c-0.1,0-0.2,0.1-0.3,0.1c-0.1,0.1-0.2,0.1-0.3,0.1
			c-0.1,0.1-0.2,0.1-0.4,0.1l-0.2,0.1c-0.2,0.1-0.3,0.1-0.5,0.2h0c-1.8,0.7-3.7,1.1-5.7,1.4v5.6h-4.5v-18.9
			c9.5,0,17.1-7.7,17.1-17.1c0-9.5-7.7-17.1-17.1-17.1v-18.9h4.5V183.1z M248.8,224.1v-21.2c5.9,0,10.6,4.7,10.6,10.6
			C259.4,219.4,254.6,224.1,248.8,224.1L248.8,224.1z"/>
		<path class="st9" d="M185.9,152.1c1.7,0.2,3.4,0.7,5,1.2l0,0c0.1,0,0.3,0.1,0.4,0.1l0.1,0c0.1,0.1,0.3,0.1,0.4,0.1l0.1,0.1
			c0.1,0,0.2,0.1,0.3,0.1l0.3,0.1l0.2,0.1c0.1,0.1,0.3,0.1,0.4,0.2l0.1,0.1c0.1,0.1,0.3,0.1,0.4,0.2l0.1,0c1.5,0.7,3,1.6,4.4,2.7
			l3.5-3.5l5.6,5.6l-3.5,3.5c1,1.4,1.9,2.9,2.7,4.4l0,0c0.1,0.1,0.1,0.3,0.2,0.4l0.1,0.1c0.1,0.1,0.1,0.2,0.1,0.4l0.1,0.2
			c0.1,0.1,0.1,0.1,0.1,0.2c0.1,0.1,0.1,0.2,0.1,0.3l0,0.1c0.1,0.1,0.1,0.3,0.2,0.4l0,0.1c0.1,0.1,0.1,0.3,0.1,0.5l0,0
			c0.5,1.6,1,3.3,1.2,5h5v7.9h-5c-0.3,1.7-0.7,3.4-1.2,5l0,0c0,0.1-0.1,0.3-0.1,0.5l-0.1,0.1c0,0.1-0.1,0.3-0.1,0.4l-0.1,0.2
			c0,0.1-0.1,0.2-0.1,0.3c0,0.1-0.1,0.2-0.1,0.3l-0.1,0.2c0,0.1-0.1,0.2-0.1,0.4l-0.1,0.1c-0.1,0.1-0.1,0.3-0.2,0.4l0,0
			c-0.7,1.6-1.6,3-2.7,4.4l3.5,3.5l-5.6,5.6l-3.5-3.5c-1.4,1-2.9,1.9-4.4,2.7l0,0c-0.1,0.1-0.3,0.1-0.4,0.2l-0.1,0
			c-0.1,0.1-0.3,0.1-0.4,0.2l-0.2,0.1c-0.1,0.1-0.2,0.1-0.3,0.1c-0.1,0-0.1,0.1-0.2,0.1c-0.1,0-0.1,0.1-0.2,0.1
			c-0.1,0.1-0.2,0.1-0.3,0.1l-0.1,0c-0.1,0.1-0.3,0.1-0.4,0.2h0c-1.6,0.6-3.3,1-5,1.2v5H178v-5c-1.7-0.2-3.4-0.7-5-1.2h-0.1
			c-0.1-0.1-0.3-0.1-0.4-0.2l-0.1,0c-0.1-0.1-0.3-0.1-0.4-0.1l-0.2-0.1c-0.1-0.1-0.2-0.1-0.3-0.1l-0.3-0.1l-0.2-0.1
			c-0.1-0.1-0.2-0.1-0.4-0.2l-0.1,0c-0.1-0.1-0.3-0.1-0.4-0.2l-0.1,0c-1.5-0.7-3-1.6-4.4-2.7l-3.5,3.5l-5.6-5.6l3.5-3.5
			c-1-1.4-1.9-2.9-2.7-4.4v0c-0.1-0.1-0.1-0.3-0.2-0.4l-0.1-0.1c0-0.1-0.1-0.2-0.1-0.4l-0.1-0.2c0-0.1-0.1-0.2-0.1-0.3
			c0-0.1-0.1-0.2-0.1-0.3l-0.1-0.1c-0.1-0.1-0.1-0.3-0.2-0.4v-0.1c-0.1-0.1-0.1-0.3-0.2-0.5v0c-0.6-1.6-1-3.3-1.3-5h-5v-7.9h5
			c0.3-1.7,0.7-3.4,1.3-5v0c0.1-0.1,0.1-0.3,0.2-0.4l0-0.1c0-0.1,0.1-0.2,0.1-0.4l0.1-0.2c0.1-0.1,0.1-0.2,0.1-0.3
			c0-0.1,0.1-0.2,0.1-0.3l0.1-0.2c0.1-0.1,0.1-0.3,0.1-0.4l0.1-0.1c0.1-0.1,0.1-0.3,0.2-0.4v0c0.7-1.5,1.6-3,2.7-4.4l-3.5-3.5
			l5.6-5.6l3.5,3.5c1.4-1,2.9-1.9,4.4-2.7l0,0c0.1-0.1,0.3-0.1,0.4-0.2l0.1-0.1c0.1-0.1,0.2-0.1,0.4-0.2l0.2-0.1
			c0.1-0.1,0.2-0.1,0.3-0.1c0.1,0,0.2-0.1,0.2-0.1c0.1,0,0.2-0.1,0.2-0.1c0.1,0,0.2-0.1,0.4-0.1l0.1-0.1c0.1-0.1,0.3-0.1,0.4-0.1
			l0.1,0c1.6-0.6,3.3-1,5-1.2v-5h7.9V152.1z M181.9,169.7c5.2,0,9.4,4.2,9.4,9.4s-4.2,9.4-9.4,9.4c-5.2,0-9.4-4.2-9.4-9.4
			S176.8,169.7,181.9,169.7L181.9,169.7z M181.9,163.9c8.4,0,15.2,6.8,15.2,15.2c0,8.4-6.8,15.2-15.2,15.2
			c-8.4,0-15.1-6.8-15.1-15.2C166.8,170.7,173.6,163.9,181.9,163.9L181.9,163.9z"/>
		<path class="st10" d="M185.9,152.1c1.7,0.2,3.4,0.7,5,1.2l0,0c0.1,0,0.3,0.1,0.4,0.1l0.1,0c0.1,0.1,0.3,0.1,0.4,0.1l0.1,0.1
			c0.1,0,0.2,0.1,0.3,0.1l0.3,0.1l0.2,0.1c0.1,0.1,0.2,0.1,0.4,0.2l0.1,0.1c0.1,0.1,0.3,0.1,0.4,0.2l0.1,0c1.5,0.7,3,1.6,4.4,2.7
			l3.5-3.5l5.6,5.6l-3.5,3.5c1,1.4,1.9,2.9,2.7,4.4l0,0c0.1,0.1,0.1,0.3,0.2,0.4l0.1,0.1c0.1,0.1,0.1,0.2,0.1,0.4l0.1,0.2
			c0.1,0.1,0.1,0.1,0.1,0.2c0.1,0.1,0.1,0.2,0.1,0.3l0,0.1c0.1,0.1,0.1,0.3,0.2,0.4l0,0.1c0.1,0.1,0.1,0.3,0.1,0.5l0,0
			c0.5,1.6,1,3.3,1.2,5h5v7.9h-5c-0.3,1.7-0.7,3.4-1.2,5l0,0c0,0.1-0.1,0.3-0.1,0.5l-0.1,0.1c0,0.1-0.1,0.3-0.1,0.4l-0.1,0.2
			c0,0.1-0.1,0.2-0.1,0.3c0,0.1-0.1,0.2-0.1,0.3l-0.1,0.2c0,0.1-0.1,0.2-0.1,0.4l-0.1,0.1c-0.1,0.1-0.1,0.3-0.2,0.4l0,0
			c-0.7,1.6-1.6,3-2.7,4.4l3.5,3.5l-5.6,5.6l-3.5-3.5c-1.4,1-2.9,1.9-4.4,2.7l0,0c-0.1,0.1-0.3,0.1-0.4,0.2l-0.1,0
			c-0.1,0.1-0.3,0.1-0.4,0.2l-0.2,0.1c-0.1,0.1-0.2,0.1-0.3,0.1c-0.1,0-0.1,0.1-0.2,0.1c-0.1,0-0.1,0.1-0.2,0.1
			c-0.1,0.1-0.2,0.1-0.3,0.1l-0.1,0c-0.1,0.1-0.3,0.1-0.4,0.2h0c-1.6,0.6-3.3,1-5,1.2v5h-4v-16.7c8.4,0,15.2-6.8,15.2-15.2
			c0-8.4-6.8-15.2-15.2-15.2v-16.7h4V152.1z M181.9,188.5v-18.8c5.2,0,9.4,4.2,9.4,9.4S187.1,188.4,181.9,188.5L181.9,188.5z"/>
	</g>
	<path id="Table" class="st11" d="M82.2,364.7c-2.3,0-4.2-1.9-4.2-4.2c0-2.3,1.9-4.2,4.2-4.2h384.5c2.3,0,4.2,1.9,4.2,4.2
		c0,2.3-1.9,4.2-4.2,4.2H82.2z"/>
	<g id="Calculator">
		<path class="st12" d="M406,255.6h52.6c3.1,0,5.7,2.6,5.7,5.7V343c0,3.1-2.6,5.7-5.7,5.7H406c-3.1,0-5.7-2.5-5.7-5.7v-81.7
			C400.3,258.2,402.8,255.6,406,255.6L406,255.6z"/>
		<path class="st13" d="M432.3,255.6h26.3c3.1,0,5.7,2.6,5.7,5.7V343c0,3.1-2.6,5.7-5.7,5.7h-26.3V255.6z"/>
		<path class="st14" d="M406.8,261.7h50.9c1.1,0,2,0.9,2,2V282c0,1.1-0.9,2-2,2h-50.9c-1.1,0-2-0.9-2-2v-18.3
			C404.8,262.6,405.7,261.7,406.8,261.7L406.8,261.7z"/>
		<path class="st14" d="M406.5,290.1h13.2v13.2h-13.2V290.1z M444.8,327.9H458v13.2h-13.2V327.9z M425.6,327.9h13.2v13.2h-13.2
			V327.9z M406.5,327.9h13.2v13.2h-13.2V327.9z M444.8,309.2H458v13.2h-13.2V309.2z M425.6,309.2h13.2v13.2h-13.2V309.2z
			 M406.5,309.2h13.2v13.2h-13.2V309.2z M444.8,290.1H458v13.2h-13.2V290.1z M425.6,290.1h13.2v13.2h-13.2V290.1z"/>
		<path class="st13" d="M443.2,265.7l0.5,0.5l-0.5,0.5h-5.3l-0.5-0.5l0.5-0.5H443.2z M444.4,266.8v5.4l-0.5,0.5l-0.5-0.5v-5.4
			l0.5-0.5L444.4,266.8z M437.7,266.8v5.4l-0.5,0.5l-0.5-0.5v-5.4l0.5-0.5L437.7,266.8z M444.4,273.5v5.4l-0.5,0.5l-0.5-0.5v-5.4
			l0.5-0.5L444.4,273.5z M443.2,278.9l0.5,0.5l-0.5,0.5h-5.4l-0.5-0.5l0.5-0.5H443.2z M443.2,272.3l0.5,0.5l-0.5,0.5h-5.4l-0.5-0.5
			l0.5-0.5H443.2z M453.1,265.8l0.5,0.5l-0.5,0.5h-5.4l-0.5-0.5l0.5-0.5H453.1z M454.2,266.9v5.4l-0.5,0.5l-0.5-0.5v-5.4l0.5-0.5
			L454.2,266.9z M447.6,273.6v5.4l-0.5,0.5l-0.5-0.5v-5.4l0.5-0.5L447.6,273.6z M447.6,266.9v5.4l-0.5,0.5l-0.5-0.5v-5.4l0.5-0.5
			L447.6,266.9z M454.2,273.6v5.4l-0.5,0.5l-0.5-0.5v-5.4l0.5-0.5L454.2,273.6z M453.1,279.1l0.5,0.5l-0.5,0.5h-5.4l-0.5-0.5
			l0.5-0.5H453.1z M450.3,273.3l0.3,0.8l-1.8,4.4l-0.7,0.4l-0.3-0.8l1.8-4.3L450.3,273.3z M452.7,267.2l0.3,0.8l-1.8,4.4l-0.7,0.4
			l-0.3-0.9l1.8-4.3L452.7,267.2z"/>
	</g>
</g>
</svg>
