<?xml version='1.0' encoding='utf-8'?>
<svg xmlns="http://www.w3.org/2000/svg" version="1.1" width="600px" height="976px" viewBox="0 0 600 976"> <g id="layer1"> <g style="fill:rgb(0,190,155); fill-opacity:1.0; stroke-linejoin: miter"> <path d="M294.3485,412.97015Q263.78433,413.35345,241.81952,434.64548Q220.41484,456.5086,219.92712,487.16895Q220.28696,517.839,241.52873,539.7675Q263.81445,561.4394,294.2542,561.7339Q324.81848,561.3569,346.7883,540.06836Q368.19733,518.2088,368.69055,487.5484Q368.33606,456.87842,347.09888,434.94647Q324.818,413.27087,294.37842,412.97015"/> </g> <g style="fill:rgb(0,0,0); fill-opacity:1.0; stroke-linejoin: miter"> <path d="M315.31885,437.20337C315.07037,437.20337,314.84692,437.21527,314.6668,437.2407C314.21454,437.31427,313.44974,437.5961,313.3595,437.72766C313.33234,437.7715,313.8981,437.81445,314.60593,437.8239C315.8357,437.84918,315.95056,437.85956,316.76093,438.1447C317.55365,438.42078,317.7995,438.56564,317.68304,438.6703C317.67828,438.67493,317.66022,438.67715,317.63074,438.67715C317.62784,438.67715,317.62485,438.67715,317.62177,438.67712C317.47784,438.6752,317.10248,438.62756,316.6758,438.55066C316.04266,438.43588,315.08063,438.3742,314.0194,438.36005C313.85983,438.35788,313.698,438.35684,313.53473,438.35684C311.71057,438.35684,309.70386,438.48865,308.6029,438.726C308.2835,438.7926,307.3507,439.0633,306.5243,439.31775C305.29785,439.70844,304.90634,439.8713,304.27258,440.27878L303.50494,440.77295L303.9558,440.80548C303.98795,440.80768,304.0202,440.809,304.05295,440.80945C304.06097,440.80954,304.06906,440.8096,304.07718,440.8096C304.37125,440.8096,304.70074,440.73853,305.2155,440.57452C305.77866,440.38678,306.6955,440.23962,307.10284,440.23962C307.11,440.23962,307.11694,440.2397,307.12375,440.23978C307.27448,440.24182,307.3465,440.26614,307.28964,440.31903C307.24484,440.36273,306.8,440.54266,306.31085,440.7219C304.95917,441.21716,303.73746,441.9176,302.7707,442.74542C302.2693,443.18118,301.0202,444.60693,300.8745,444.91473C300.8198,445.03787,300.61395,445.21216,300.41797,445.30685C299.04633,445.9699,297.44888,447.6388,297.0888,448.75787C297.03326,448.94293,297.05957,448.96103,297.37805,448.96527L297.71423,448.96976L297.0602,450.2353C296.26984,451.7734,295.98523,452.5395,295.99426,453.19446C295.99988,453.7813,296.19556,454.38104,296.32697,454.3828L296.3275,454.3828C296.36826,454.3828,296.40277,454.32507,296.4234,454.19128C296.44238,454.08594,296.51367,453.99878,296.5841,453.99878C296.58447,453.99878,296.58484,453.99878,296.58524,453.99878C296.6914,454.00018,296.70392,454.3897,296.66693,456.49536C296.64853,457.8756,296.59424,459.29077,296.5542,459.6353C296.4839,460.2627,296.4925,460.28052,296.6872,460.28314C296.6898,460.28317,296.69232,460.2832,296.6949,460.2832C296.84793,460.2832,296.89243,460.21848,296.9491,459.88843C296.97858,459.66754,297.0432,459.4649,297.08783,459.43896C297.112,459.4249,297.13348,459.41858,297.148,459.41858L297.14868,459.41858C297.16058,459.41873,297.16766,459.42322,297.16757,459.43115C297.16736,459.44885,297.20825,459.69724,297.25745,459.98987C297.30676,460.27368,297.39453,460.9917,297.43982,461.5763L297.5318,462.63947L297.65356,462.13672C297.71915,461.86322,297.7701,461.3595,297.77448,461.03217C297.78387,460.3284,297.83038,460.12378,298.00482,460.12378C298.00583,460.12378,298.00684,460.12378,298.00787,460.12378C298.00818,460.12378,298.00848,460.12378,298.0088,460.12378C298.10538,460.12378,298.13434,459.92798,298.14575,459.07257C298.1539,458.46207,298.19556,457.9936,298.24915,457.95892C298.2583,457.95453,298.26688,457.95242,298.27484,457.95242L298.2754,457.95242C298.31363,457.95294,298.3371,458.00214,298.33612,458.07513C298.3348,458.17242,298.45215,458.66074,298.59583,459.16705C299.12006,460.997,299.39856,463.33694,299.2257,464.3523C299.08188,465.18225,298.66168,466.1678,298.11108,466.9745C297.0191,468.56165,297.03717,468.53537,297.0855,468.88995C297.10962,469.0761,297.17706,469.32477,297.2284,469.45822C297.35724,469.752,298.20966,470.19696,298.85413,470.31177C299.8341,470.48416,299.99796,470.80493,299.6137,471.74664C299.4488,472.16922,299.3833,472.43384,299.42517,472.61136C299.48322,472.90417,299.84055,473.31598,300.1398,473.43506C300.31592,473.49936,300.3242,473.5437,300.2508,473.73743C300.12268,474.05426,300.1195,474.95688,300.24844,475.24176C300.3172,475.39313,300.45734,475.50116,300.70416,475.57526C301.26825,475.74207,301.3375,475.85806,301.4302,476.86813C301.5686,478.43628,302.12302,479.3286,303.15393,479.66095C303.40588,479.74237,303.63422,479.7906,303.88437,479.79395C303.89368,479.79407,303.90295,479.79407,303.9123,479.79407C304.5937,479.79407,305.44727,479.46234,307.37195,478.56683C309.59427,477.53674,311.30743,476.97318,312.18564,476.97318C312.19458,476.97318,312.20343,476.9732,312.21222,476.97333C312.2843,476.9743,312.35046,476.9792,312.4106,476.98813C313.43506,477.14343,314.46045,477.89163,316.32788,479.86334C317.5409,481.13617,319.7508,483.9709,320.14752,484.7461L320.2854,485.02228L319.1352,485.0069L318.50793,486.25513C317.7804,487.72327,316.89276,489.25116,316.3883,489.917C315.80304,490.67023,315.2577,491.7514,314.99786,492.65057C314.5433,494.21967,314.089,495.10736,313.04425,496.47394C311.72034,498.1996,310.73468,499.7793,309.59,502.00287C307.8642,505.33374,306.68384,506.91083,302.90512,510.8957C302.1306,511.71252,301.40967,512.4205,300.74023,513.02155C299.1165,512.7296,297.19495,512.5885,293.6834,512.482C293.23944,512.46857,292.77008,512.45575,292.27264,512.4431L284.91986,512.25714L284.182,511.28546C283.718,510.67438,282.93152,510.29645,282.2934,510.2771C282.28372,510.2768,282.27408,510.2766,282.26447,510.2765C282.25705,510.27637,282.24966,510.2763,282.2423,510.2763C282.2276,510.2763,282.21298,510.2765,282.19846,510.27686C281.86252,510.28613,281.57678,510.40173,281.4153,510.64355C281.27017,510.86816,281.1193,510.98712,280.9488,510.99182C280.94498,510.99188,280.94116,510.992,280.93735,510.992C280.93594,510.992,280.9345,510.992,280.9331,510.99194C280.93097,510.99188,280.9288,510.99188,280.92664,510.99176C280.58856,510.9815,280.1727,510.529,279.5746,509.5678C278.73016,508.28845,278.6978,508.05896,279.24564,507.50104C279.46902,507.25604,279.54663,506.9854,279.31024,506.2323L279.3086,506.2323L286.281,498.12396L267.76404,468.05536L267.75635,468.04285L251.10226,481.62695L243.36588,493.71643L265.79297,521.9498L270.75067,516.18445L270.75223,516.18445C271.67236,516.31995,272.74084,516.4099,274.0246,516.4799C278.51624,516.7461,278.5534,516.7851,279.59216,517.91693C280.26288,518.6791,280.6062,518.9533,281.22388,518.97205C281.23642,518.9725,281.24908,518.9727,281.26187,518.9729C281.27283,518.973,281.28384,518.9731,281.29498,518.9731C281.31854,518.9731,281.34253,518.9728,281.36694,518.9721C281.56998,518.96655,281.80304,518.93854,282.08344,518.89484C282.19598,518.8817,282.31134,518.8732,282.43134,518.86993C282.46863,518.8689,282.5064,518.8684,282.54465,518.8684C282.56396,518.8684,282.58337,518.8685,282.60294,518.8688C282.62756,518.86914,282.65247,518.8697,282.67755,518.8704C283.67297,518.9006,285.023,519.2705,287.5777,520.21564C288.40866,520.521,289.1812,520.8301,289.82312,521.1076L289.82205,521.1076L289.82138,521.1076C289.7032,522.0289,289.88144,523.2703,290.32568,524.49725C290.44507,524.8351,291.07288,526.1974,291.72757,527.5335C292.66626,529.4752,292.8807,529.9825,292.79102,530.0698C292.698,530.1604,292.35083,530.2071,292.00146,530.2071C291.984,530.2071,291.96655,530.2069,291.9491,530.2067C291.64273,530.20264,291.34436,530.1625,291.22452,530.08435C291.13855,530.0253,291.08627,529.9845,291.05542,529.89105L291.05365,529.89105L247.94072,529.69354L247.94205,529.6936C247.979,529.8171,247.99817,529.8983,247.99774,529.932C247.99524,530.1178,247.75601,530.1411,245.42776,530.2074C243.7567,530.2521,242.37372,530.2771,240.28128,530.2771C238.64029,530.2771,236.56294,530.2617,233.56812,530.2283L233.56801,530.2283Q236.04245,533.7101,238.96553,537.0041L238.96555,537.0041L238.96786,536.8289L242.13454,536.9331C243.8682,536.99164,248.83981,537.12,253.16574,537.22205C257.50043,537.33295,262.11823,537.44775,263.42734,537.49176C270.80426,537.7159,284.85376,537.9819,294.75452,538.114C298.6423,538.16595,301.89038,538.1972,303.8435,538.1972C304.97415,538.1972,305.67084,538.1867,305.80652,538.1637C305.95728,538.13916,306.53296,538.10266,307.09082,538.0747C307.64856,538.0556,308.2684,538.02844,308.4634,538.0045C308.6583,537.9894,309.0746,537.95953,309.39362,537.9284C310.5896,537.82935,313.5518,537.33795,315.85034,536.8465C316.10773,536.788,316.18936,536.6387,316.31317,535.9855C316.45602,535.2263,316.79193,531.2752,316.722,531.2123C316.6783,531.1674,313.75977,531.04004,310.94675,530.9582C306.25854,530.816,305.0744,530.694,304.94623,530.3471C304.88684,530.1698,305.40488,529.60406,305.627,529.60406C305.6276,529.60406,305.62817,529.60406,305.62872,529.60406C305.63058,529.6041,305.63245,529.6041,305.63428,529.6041C306.19635,529.6041,307.73688,528.4858,309.1939,527.0323C311.08655,525.1284,311.58673,524.11743,311.73138,521.89813C311.8242,520.5795,311.92212,520.05743,312.10327,520.05743L312.10452,520.05743C312.11487,520.05756,312.12552,520.0594,312.1364,520.06287C312.33026,520.1274,312.53494,520.7054,312.61362,521.4409C312.7477,522.6639,313.3169,523.77765,314.38107,524.9335C315.00055,525.59656,315.7365,526.1462,316.53625,526.56396C317.30963,526.9636,318.11572,527.56726,318.50787,528.0238C319.00424,528.62335,319.53625,529.8694,320.05225,531.65497C321.24475,535.7947,322.0876,538.2837,323.4141,541.6642C323.89362,542.86523,324.50952,544.45746,324.79156,545.2046C325.60422,547.3039,325.94952,547.95447,327.41763,550.0094C327.73035,550.4472,328.01572,550.9466,328.06644,551.12427C328.1083,551.30176,328.28027,551.6758,328.44485,551.9435C328.7348,552.41766,328.94415,552.7761,329.1076,553.09125L329.1076,553.09125Q338.5519,548.0493,346.7883,540.06836Q350.4879,536.2909,353.563,532.25055L353.56427,532.25055L352.50922,531.1591L352.47504,530.4065C352.3172,527.6434,352.1075,525.45483,351.75894,523.06085C351.64526,522.2983,351.51593,521.37616,351.4677,521.01276C351.20203,519.0358,350.46268,516.7517,349.42044,514.6139C348.70532,513.1619,348.46613,512.5216,348.3355,511.6969C348.2041,510.93408,348.03076,508.67517,347.98608,507.38257C347.96802,506.74518,347.9336,506.01025,347.91943,505.74457C347.89648,505.47882,347.87097,504.73517,347.8528,504.10657C347.82593,503.46906,347.79974,502.77844,347.785,502.557C347.7614,502.3355,347.71945,501.5031,347.67706,500.6972C347.63477,499.89142,347.54498,498.6601,347.46594,497.95117C347.28577,496.20544,347.3196,495.65723,347.70374,494.0606C348.17188,492.13776,348.23886,491.75812,348.25177,490.7937C348.2729,489.20996,347.77792,487.8405,346.36493,485.63593C344.53607,482.76202,342.56592,479.20483,342.5716,478.78015C342.5749,478.5324,342.2063,477.64255,341.24283,475.5678C340.6577,474.3211,340.15085,473.18158,340.12607,473.04858C340.05615,472.75214,339.95264,472.69122,339.35898,472.68335C339.31256,472.6827,339.26324,472.68243,339.21063,472.68234C338.72388,472.68472,338.03128,472.86133,335.0372,473.7505C333.06635,474.33435,331.40607,474.81635,331.35065,474.81635L331.35052,474.81635C331.26205,474.81516,330.3315,473.59033,330.27234,473.38605C330.2558,473.34607,330.2901,473.32495,330.3612,473.32495C330.36282,473.32495,330.3645,473.32498,330.36615,473.32498C330.40503,473.3255,330.45428,473.33206,330.51178,473.34497C330.571,473.3562,330.62616,473.36194,330.67126,473.36252C330.67395,473.36255,330.6765,473.36258,330.6791,473.36258C330.7439,473.36258,330.78604,473.35153,330.78632,473.33093C330.78693,473.28668,330.7043,472.84314,330.61383,472.32867C330.37393,471.07773,330.4043,469.46753,330.67868,468.13495C330.88666,467.13776,331.4402,465.44604,332.24646,463.3861C333.17242,460.97375,333.66748,459.02466,333.82556,457.12418C333.93967,455.8691,333.86444,454.21326,333.67276,453.3258C333.5141,452.61575,332.96118,450.94467,332.56696,449.9837C332.39548,449.57434,332.25848,449.22742,332.25873,449.20972C332.25897,449.192,332.3656,449.15802,332.5074,449.14224C332.64246,449.1206,332.6881,449.11328,332.6341,449.1125L332.63196,449.11246C332.62885,449.1124,332.62546,449.1124,332.62173,449.1124C332.59186,449.1124,332.54236,449.11353,332.47235,449.11523C332.4536,449.11627,332.4359,449.11688,332.41907,449.11688C332.41617,449.11688,332.4133,449.11685,332.41046,449.11682C332.20245,449.11407,332.1182,449.00647,331.73022,448.362C331.2022,447.47882,330.13318,446.02216,329.74884,445.64532C329.60046,445.49286,329.4786,445.34088,329.47922,445.29663C329.47955,445.27078,329.61655,445.25146,329.81433,445.25146C329.82803,445.25146,329.84204,445.25156,329.8563,445.25177C329.91815,445.25256,329.98505,445.25525,330.0549,445.26007C330.16754,445.26782,330.27252,445.27216,330.36108,445.27332C330.37787,445.27356,330.39404,445.27368,330.40958,445.27368C330.54385,445.27368,330.63,445.26538,330.63025,445.25003C330.6314,445.16156,329.19916,443.73535,328.93622,443.54602C328.8131,443.4714,328.68973,443.42084,328.62524,443.41998C328.62466,443.41998,328.62408,443.41998,328.62354,443.41998C328.61063,443.41998,328.60016,443.42206,328.59265,443.4264C328.57635,443.43433,328.5642,443.4381,328.5562,443.4381L328.5559,443.4381C328.53815,443.43787,328.5418,443.41815,328.5667,443.3818C328.63007,443.2765,327.77032,442.71634,327.2069,442.4964C326.99564,442.41394,326.4749,442.30963,326.04196,442.25964C325.6177,442.21863,325.18536,442.12436,325.07108,442.0697C324.96573,442.00635,324.52853,441.61115,324.09186,441.18054C323.1573,440.2566,322.63174,439.85132,321.4734,439.1191C320.38513,438.44086,318.95123,437.8023,317.83136,437.50415C317.1554,437.32874,316.1917,437.2143,315.42828,437.2041C315.39136,437.2036,315.35486,437.20337,315.31885,437.20337 Z M307.28735,440.09814C307.30304,440.09814,307.31952,440.0982,307.33685,440.09845C307.55804,440.1014,307.6463,440.1203,307.5399,440.13657C307.48846,440.1438,307.4248,440.14734,307.36066,440.14734C307.35287,440.14734,307.3451,440.14728,307.33734,440.14716C307.26544,440.14618,307.1947,440.1408,307.14175,440.13126C307.03595,440.1136,307.10303,440.09814,307.28735,440.09814 Z M328.03925,443.38397C328.05496,443.38397,328.07147,443.38406,328.0888,443.38428C328.31006,443.38727,328.39825,443.40613,328.29184,443.42242C328.24048,443.4296,328.17682,443.4331,328.11264,443.4331C328.10486,443.4331,328.09705,443.43304,328.0893,443.43295C328.0174,443.432,327.9467,443.42664,327.8937,443.4171C327.7879,443.39935,327.85498,443.38397,328.03925,443.38397 Z M329.71753,471.6442C329.727,471.64435,329.7369,471.64728,329.74677,471.65338C329.7995,471.68066,329.8341,471.74307,329.83337,471.7961C329.8328,471.83994,329.79767,471.87457,329.74542,471.87457C329.74493,471.87457,329.7444,471.87457,329.7438,471.87457C329.69962,471.87396,329.6562,471.81146,329.65723,471.73187C329.658,471.67737,329.68463,471.6442,329.71692,471.6442 Z"/> </g> <g style="fill:rgb(0,0,0); fill-opacity:1.0; stroke-linejoin: miter"> <path d="M291.0102,527.9486L291.03125,527.99L291.0318,527.94904L291.0102,527.9486 Z"/> </g> </g> </svg>