<?xml version='1.0' encoding='utf-8'?>
<svg xmlns="http://www.w3.org/2000/svg" version="1.1" id="Layer_1" x="0px" y="0px" viewBox="0 0 500 500" style="enable-background:new 0 0 500 500;"> <style type="text/css"> .st0{fill:#E84E0A;} .st1{fill:#1B3232;} .st2{fill:#D65000;} .st3{fill:#AC5000;} .st4{fill:#88A114;} .st5{fill:#9EC10D;} .st6{fill:#FFA300;} .st7{fill:#FFBD00;} .st8{opacity:0.8;} .st9{fill:#4D5357;} .st10{fill:#D85A0F;} .st11{fill:#AE5000;} .st12{fill:#1BAAB8;} .st13{fill:#5FC4CD;} </style> <rect class="st0" width="500" height="500"/> <g id="illustration_3_"> <g> <ellipse transform="matrix(0.9961 -8.857253e-02 8.857253e-02 0.9961 -25.5409 23.2558)" class="st1" cx="249.3" cy="299.4" rx="130.7" ry="130.7"/> </g> <g> <polygon class="st2" points="287.5,428.8 207.2,428.8 197.4,354.1 297.3,354.1 "/> </g> <g> <path class="st2" d="M306.4,354.1H188.3c-0.5,0-0.9-0.4-0.9-0.9v-16.9c0-0.5,0.4-0.9,0.9-0.9h118.1c0.5,0,0.9,0.4,0.9,0.9v16.9 C307.2,353.7,306.9,354.1,306.4,354.1z"/> </g> <g> <polygon class="st3" points="197.6,357.2 296.5,357.2 297.3,354.1 196.8,354.1 "/> </g> <g> <rect x="246.4" y="277.3" class="st4" width="6.2" height="57.9"/> </g> <g> <g> <path class="st5" d="M247.1,330.9c0,0-13.8,8.2-24.1,3.5c-10.3-4.7-13.2-20.5-13.2-20.5L247.1,330.9z"/> </g> <g> <path class="st4" d="M209.8,313.9c0,0,13.8-8.2,24.1-3.5c10.3,4.7,13.2,20.5,13.2,20.5L209.8,313.9z"/> </g> </g> <g> <g> <path class="st6" d="M290,241.7c0-20.6-16.8-37.3-37.4-37.2c-20.6,0-37.3,16.8-37.2,37.4c0,20.6,16.8,37.3,37.4,37.2 C273.4,279,290,262.2,290,241.7z"/> </g> <g> <path class="st7" d="M283.6,241.7c0-17.1-13.9-30.9-31-30.9c-17.1,0-30.9,13.9-30.9,31c0,17.1,13.9,30.9,31,30.9 C269.9,272.6,283.7,258.8,283.6,241.7z"/> </g> <g> <path class="st7" d="M283.6,241.7c0-17.1-13.9-30.9-31-30.9c-17.1,0-30.9,13.9-30.9,31c0,17.1,13.9,30.9,31,30.9 C269.9,272.6,283.7,258.8,283.6,241.7z"/> </g> <g> <path class="st2" d="M250.8,263.1l0-5.5c-3.2,0-6.5-1-8.4-2.4l1.3-3.7c2,1.3,4.8,2.4,7.9,2.3c3.9,0,6.5-2.3,6.5-5.4 c0-3-2.2-4.9-6.2-6.5c-5.6-2.2-9.1-4.7-9.1-9.5c0-4.6,3.2-8,8.3-8.9l0-5.5l3.4,0l0,5.3c3.3,0.1,5.5,1,7.1,1.9l-1.4,3.6 c-1.2-0.7-3.4-1.9-6.9-1.8c-4.2,0-5.8,2.5-5.8,4.7c0,2.9,2,4.3,6.8,6.2c5.7,2.3,8.5,5.1,8.5,10c0,4.3-3,8.4-8.7,9.4l0,5.7 L250.8,263.1z"/> </g> </g> <g> <g> <path class="st5" d="M251.9,289.8c0,0-22.5,11.2-38,2.7c-15.5-8.5-18.2-33.5-18.2-33.5L251.9,289.8z"/> </g> <g> <path class="st4" d="M195.7,259c0,0,22.5-11.2,38-2.7c15.5,8.5,18.2,33.5,18.2,33.5L195.7,259z"/> </g> </g> <g> <g> <path class="st5" d="M248.3,321.8c0,0,27.3,11.2,44.8-0.1c17.5-11.3,18.5-40.8,18.5-40.8L248.3,321.8z"/> </g> <g> <path class="st4" d="M311.6,280.8c0,0-27.3-11.2-44.8,0.1c-17.5,11.3-18.5,40.8-18.5,40.8L311.6,280.8z"/> </g> </g> <g> <g> <path class="st7" d="M229,196.4c-0.5,0-0.9-0.2-1.3-0.5l-7.6-8.9c-0.6-0.6-0.5-1.6,0.2-2.2c0.7-0.6,1.6-0.5,2.2,0.2l7.6,8.9 c0.6,0.6,0.5,1.6-0.2,2.2C229.6,196.2,229.3,196.4,229,196.4z"/> </g> <g> <path class="st7" d="M265.4,194.2c-0.4,0-0.7-0.1-1-0.3c-0.7-0.5-0.8-1.5-0.3-2.2l8.9-11.2c0.5-0.7,1.5-0.8,2.2-0.3 c0.7,0.5,0.8,1.5,0.3,2.2l-8.8,11.2C266.2,194,265.8,194.2,265.4,194.2z"/> </g> <g> <path class="st7" d="M248.3,192.9c-0.8,0.1-1.6-0.6-1.6-1.4l-1.2-17.1c-0.1-0.8,0.6-1.6,1.4-1.6l0,0c0.8-0.1,1.6,0.6,1.6,1.4 l1.2,17.1C249.8,192.1,249.2,192.9,248.3,192.9C248.3,192.9,248.3,192.9,248.3,192.9z"/> </g> </g> <g> <path class="st7" d="M280.7,189.8C285,190.7,285,190.7,280.7,189.8c4.6-0.4,5.9-1.3,8-5.4c-0.9,4.3-0.9,4.3,0,0 c0.4,4.6,1.3,5.9,5.4,8c-4.3-0.9-4.3-0.9,0,0c-4.6,0.4-5.9,1.3-8,5.4c0.9-4.3,0.9-4.3,0,0C285.6,193.2,284.8,192,280.7,189.8z"/> </g> <g> <path class="st7" d="M194.7,224.4C198.1,225,198.1,225,194.7,224.4c3.5-0.3,4.5-1,6.2-4.1c-0.7,3.3-0.7,3.3,0,0 c0.3,3.5,1,4.5,4.1,6.2c-3.3-0.7-3.3-0.7,0,0c-3.5,0.3-4.5,1-6.2,4.1c0.7-3.3,0.7-3.3,0,0C198.5,227,197.9,226,194.7,224.4z"/> </g> <g> <path class="st7" d="M295.1,220.1C297.2,219.1,297.2,219.1,295.1,220.1c1.8-1.6,2.1-2.4,1.7-4.8c1,2.1,1,2.1,0,0 c1.6,1.8,2.4,2.1,4.8,1.7c-2.1,1-2.1,1,0,0c-1.8,1.6-2.1,2.4-1.7,4.8c-1-2.1-1-2.1,0,0C298.3,220,297.5,219.7,295.1,220.1z"/> </g> <g> <path class="st7" d="M310.6,249.9C311.8,249.3,311.8,249.3,310.6,249.9c1.1-1,1.2-1.4,1-2.8c0.6,1.2,0.6,1.2,0,0 c1,1.1,1.4,1.2,2.8,1c-1.2,0.6-1.2,0.6,0,0c-1.1,1-1.2,1.4-1,2.8c-0.6-1.2-0.6-1.2,0,0C312.4,249.8,312,249.6,310.6,249.9z"/> </g> <g> <path class="st7" d="M213.6,204.8C214,203.5,214,203.5,213.6,204.8c0-1.4-0.3-1.8-1.5-2.6c1.3,0.4,1.3,0.4,0,0 c1.4,0,1.8-0.3,2.6-1.5c-0.4,1.3-0.4,1.3,0,0c0,1.4,0.3,1.8,1.5,2.6c-1.3-0.4-1.3-0.4,0,0C214.8,203.4,214.4,203.6,213.6,204.8z"/> </g> <g> <g class="st8"> <rect x="181.8" y="428.8" class="st9" width="123.8" height="1.5"/> </g> <g class="st8"> <g> <rect x="333.4" y="443.8" class="st9" width="3.1" height="1.2"/> </g> <g> <path class="st9" d="M328.6,445h-10.6v-1.2h10.6V445z M301.9,445h-4.8v-1.2h4.8V445z M286.5,445h-10.6v-1.2h10.6V445z"/> </g> <g> <path class="st9" d="M273.7,445h-3.2v-1.2h3.2V445z M265.7,445h-10.6v-1.2h10.6V445z M239.1,445h-3.2v-1.2h3.2V445z M231.1,445 h-10.6v-1.2h10.6V445z"/> </g> <g> <rect x="207.8" y="443.8" class="st9" width="3.1" height="1.2"/> </g> </g> <g class="st8"> <g> <rect x="315.8" y="435.3" class="st9" width="1.1" height="1.2"/> </g> <g> <path class="st9" d="M304.2,436.6h-7.7v-1.2h7.7L304.2,436.6z M294.6,436.6H283v-1.2h11.5V436.6z M283,436.6h-3.9v-1.2h3.8 L283,436.6z"/> </g> <g> <path class="st9" d="M275.3,436.6h-1.9v-1.2h1.9V436.6z M261.9,436.6h-7.7v-1.2h7.7L261.9,436.6z M252.2,436.6h-1.9v-1.2h1.9 V436.6z M238.8,436.6h-7.7v-1.2h7.7L238.8,436.6z M229.2,436.6h-1.9v-1.2h1.9V436.6z M215.7,436.6H208v-1.2h7.7L215.7,436.6z M206.1,436.6h-1.9v-1.2h1.9V436.6z"/> </g> <g> <rect x="189.6" y="435.3" class="st9" width="1.1" height="1.2"/> </g> </g> </g> <g> <path class="st10" d="M201.6,383.4h17.2c1.2,0,2.2,1,2.2,2.2l0,0c0,1.2-1,2.2-2.2,2.2H202L201.6,383.4z"/> </g> <g> <path class="st11" d="M290.4,406.2h-10.3c-0.7,0-1.4,0.6-1.4,1.4l0,0c0,0.7,0.6,1.4,1.4,1.4h10L290.4,406.2z"/> </g> <g> <path class="st7" d="M258.5,118.6c-0.7-1.5-4-5-4.6-4.5c0,0-0.1,0-0.1,0l-0.6,2.3c-0.1,0.6-0.4,1.1-0.7,1.6c0.7,2,0.5,4.3-0.5,6.2 l-1.6,2.7c-2.7,3.1-5.1,6.4-5.5,8.7c-1,5.6,2.7,10.9,8.3,12c5.6,1,10.9-2.7,12-8.3C266.2,133.6,258.5,118.6,258.5,118.6z M254.3,144.9c-1,0-1.8-0.8-1.8-1.8c0-1,0.8-1.8,1.8-1.8c1,0,1.8,0.8,1.8,1.8C256.1,144.1,255.3,144.9,254.3,144.9z"/> </g> <g> <path class="st12" d="M256.5,79c-2.8-0.7-5.6,0.8-6.6,3.4L140.8,54.9c-8.6-2.1-17.2,3.1-19.5,11.6L246,98l3.5,0.9l7.6,1.9 l3.7-14.9C261.5,82.8,259.6,79.7,256.5,79z"/> </g> <g> <path class="st13" d="M249.5,98.9L246,98L121.3,66.5c0,0.1-0.1,0.1-0.1,0.2c-2.1,8.7,3.2,17.4,11.8,19.5l109,27.5 c-0.6,3,1.2,6,4.2,6.7c2.5,0.6,4.9-0.5,6.2-2.6c0.3-0.5,0.6-1,0.7-1.6l0.6-2.3l3.2-13.2L249.5,98.9z"/> </g> </g> </svg>